<?xml version="1.0" encoding="UTF-8"?><svg xmlns="http://www.w3.org/2000/svg" viewBox="0 0 271 489.61"><defs><style>.e{fill:#002e63;}.f{stroke-width:2px;}.f,.g{fill:none;stroke:#002e63;stroke-miterlimit:10;}</style></defs><g id="a"/><g id="b"><g id="c"><rect class="g" x=".5" y="39.11" width="30" height="30"/><rect class="g" x="30.5" y="39.11" width="30" height="30"/><rect class="g" x="60.5" y="39.11" width="30" height="30"/><rect class="g" x="90.5" y="39.11" width="30" height="30"/><rect class="g" x="120.5" y="39.11" width="30" height="30"/><rect class="g" x="150.4" y="39.11" width="30" height="30"/><rect class="g" x="180.5" y="39.11" width="30" height="30"/><rect class="g" x="210.5" y="39.11" width="30" height="30"/><rect class="g" x="240.5" y="39.11" width="30" height="30"/><rect class="g" x=".5" y="69.11" width="30" height="30"/><rect class="g" x="30.5" y="69.11" width="30" height="30"/><rect class="g" x="60.5" y="69.11" width="30" height="30"/><rect class="g" x="90.5" y="69.11" width="30" height="30"/><rect class="g" x="120.5" y="69.11" width="30" height="30"/><rect class="g" x="150.4" y="69.11" width="30" height="30"/><rect class="g" x="180.5" y="69.11" width="30" height="30"/><rect class="g" x="210.5" y="69.11" width="30" height="30"/><rect class="g" x="240.5" y="69.11" width="30" height="30"/><rect class="g" x=".5" y="99.11" width="30" height="30"/><rect class="g" x="30.5" y="99.11" width="30" height="30"/><rect class="g" x="60.5" y="99.11" width="30" height="30"/><rect class="g" x="90.5" y="99.11" width="30" height="30"/><rect class="g" x="120.5" y="99.11" width="30" height="30"/><rect class="g" x="150.4" y="99.11" width="30" height="30"/><rect class="g" x="180.5" y="99.11" width="30" height="30"/><rect class="g" x="210.5" y="99.11" width="30" height="30"/><rect class="g" x="240.5" y="99.11" width="30" height="30"/><rect class="g" x=".5" y="129.11" width="30" height="30"/><rect class="g" x="30.5" y="129.11" width="30" height="30"/><rect class="g" x="60.5" y="129.11" width="30" height="30"/><rect class="g" x="90.5" y="129.11" width="30" height="30"/><rect class="g" x="120.5" y="129.11" width="30" height="30"/><rect class="g" x="150.4" y="129.11" width="30" height="30"/><rect class="g" x="180.5" y="129.11" width="30" height="30"/><rect class="g" x="210.5" y="129.11" width="30" height="30"/><rect class="g" x="240.5" y="129.11" width="30" height="30"/><rect class="g" x=".5" y="159.11" width="30" height="30"/><rect class="g" x="30.5" y="159.11" width="30" height="30"/><rect class="g" x="60.5" y="159.11" width="30" height="30"/><rect class="g" x="90.5" y="159.11" width="30" height="30"/><rect class="g" x="120.5" y="159.11" width="30" height="30"/><rect class="g" x="150.4" y="159.11" width="30" height="30"/><rect class="g" x="180.5" y="159.11" width="30" height="30"/><rect class="g" x="210.5" y="159.11" width="30" height="30"/><rect class="g" x="240.5" y="159.11" width="30" height="30"/><rect class="g" x=".5" y="189.11" width="30" height="30"/><rect class="g" x="30.5" y="189.11" width="30" height="30"/><rect class="g" x="60.5" y="189.11" width="30" height="30"/><rect class="g" x="90.5" y="189.11" width="30" height="30"/><rect class="g" x="120.5" y="189.11" width="30" height="30"/><rect class="g" x="150.4" y="189.11" width="30" height="30"/><rect class="g" x="180.5" y="189.11" width="30" height="30"/><rect class="g" x="210.5" y="189.11" width="30" height="30"/><rect class="g" x="240.5" y="189.11" width="30" height="30"/><rect class="g" x=".5" y="219.11" width="30" height="30"/><rect class="g" x="30.5" y="219.11" width="30" height="30"/><rect class="g" x="60.5" y="219.11" width="30" height="30"/><rect class="g" x="90.5" y="219.11" width="30" height="30"/><rect class="g" x="120.5" y="219.11" width="30" height="30"/><rect class="g" x="150.4" y="219.11" width="30" height="30"/><rect class="g" x="180.5" y="219.11" width="30" height="30"/><rect class="g" x="210.5" y="219.11" width="30" height="30"/><rect class="g" x="240.5" y="219.11" width="30" height="30"/><rect class="g" x=".5" y="279.11" width="30" height="30"/><rect class="g" x="30.5" y="279.11" width="30" height="30"/><rect class="g" x="60.5" y="279.11" width="30" height="30"/><rect class="g" x="90.5" y="279.11" width="30" height="30"/><rect class="g" x="120.5" y="279.11" width="30" height="30"/><rect class="g" x="150.4" y="279.11" width="30" height="30"/><rect class="g" x="180.5" y="279.11" width="30" height="30"/><rect class="g" x="210.5" y="279.11" width="30" height="30"/><rect class="g" x="240.5" y="279.11" width="30" height="30"/><rect class="g" x=".5" y="249.11" width="30" height="30"/><rect class="g" x="30.5" y="249.11" width="30" height="30"/><rect class="g" x="60.5" y="249.11" width="30" height="30"/><rect class="g" x="90.5" y="249.11" width="30" height="30"/><rect class="g" x="120.5" y="249.11" width="30" height="30"/><rect class="g" x="150.4" y="249.11" width="30" height="30"/><rect class="g" x="180.5" y="249.11" width="30" height="30"/><rect class="g" x="210.5" y="249.11" width="30" height="30"/><rect class="g" x="240.5" y="249.11" width="30" height="30"/><rect class="g" x=".5" y="309.11" width="30" height="30"/><rect class="g" x="30.5" y="309.11" width="30" height="30"/><rect class="g" x="60.5" y="309.11" width="30" height="30"/><rect class="g" x="90.5" y="309.11" width="30" height="30"/><rect class="g" x="120.5" y="309.11" width="30" height="30"/><rect class="g" x="150.4" y="309.11" width="30" height="30"/><rect class="g" x="180.5" y="309.11" width="30" height="30"/><rect class="g" x="210.5" y="309.11" width="30" height="30"/><rect class="g" x="240.5" y="309.11" width="30" height="30"/><rect class="g" x=".5" y="339.11" width="30" height="30"/><rect class="g" x="30.5" y="339.11" width="30" height="30"/><rect class="g" x="60.5" y="339.11" width="30" height="30"/><rect class="g" x="90.5" y="339.11" width="30" height="30"/><rect class="g" x="120.5" y="339.11" width="30" height="30"/><rect class="g" x="150.4" y="339.11" width="30" height="30"/><rect class="g" x="180.5" y="339.11" width="30" height="30"/><rect class="g" x="210.5" y="339.11" width="30" height="30"/><rect class="g" x="240.5" y="339.11" width="30" height="30"/><rect class="g" x=".5" y="369.11" width="30" height="30"/><rect class="g" x="30.5" y="369.11" width="30" height="30"/><rect class="g" x="60.5" y="369.11" width="30" height="30"/><rect class="g" x="90.5" y="369.11" width="30" height="30"/><rect class="g" x="120.5" y="369.11" width="30" height="30"/><rect class="g" x="150.4" y="369.11" width="30" height="30"/><rect class="g" x="180.5" y="369.11" width="30" height="30"/><rect class="g" x="210.5" y="369.11" width="30" height="30"/><rect class="g" x="240.5" y="369.11" width="30" height="30"/><rect class="g" x=".5" y="399.11" width="30" height="30"/><rect class="g" x="30.5" y="399.11" width="30" height="30"/><rect class="g" x="60.5" y="399.11" width="30" height="30"/><rect class="g" x="90.5" y="399.11" width="30" height="30"/><rect class="g" x="120.5" y="399.11" width="30" height="30"/><rect class="g" x="150.4" y="399.11" width="30" height="30"/><rect class="g" x="180.5" y="399.11" width="30" height="30"/><rect class="g" x="210.5" y="399.11" width="30" height="30"/><rect class="g" x="240.5" y="399.11" width="30" height="30"/><rect class="g" x=".5" y="429.11" width="30" height="30"/><rect class="g" x="30.5" y="429.11" width="30" height="30"/><rect class="g" x="60.5" y="429.11" width="30" height="30"/><rect class="g" x="90.5" y="429.11" width="30" height="30"/><rect class="g" x="120.5" y="429.11" width="30" height="30"/><rect class="g" x="150.4" y="429.11" width="30" height="30"/><rect class="g" x="180.5" y="429.11" width="30" height="30"/><rect class="g" x="210.5" y="429.11" width="30" height="30"/><rect class="g" x="240.5" y="429.11" width="30" height="30"/><rect class="g" x=".5" y="459.11" width="30" height="30"/><rect class="g" x="30.5" y="459.11" width="30" height="30"/><rect class="g" x="60.5" y="459.11" width="30" height="30"/><rect class="g" x="90.5" y="459.11" width="30" height="30"/><rect class="g" x="120.5" y="459.11" width="30" height="30"/><rect class="g" x="150.4" y="459.11" width="30" height="30"/><rect class="g" x="180.5" y="459.11" width="30" height="30"/><rect class="g" x="210.5" y="459.11" width="30" height="30"/><rect class="g" x="240.5" y="459.11" width="30" height="30"/></g><g id="d"><line class="f" x1="106.75" y1="3.02" x2="3.25" y2="3.02"/><line class="f" x1="268.75" y1="3.02" x2="165.25" y2="3.02"/><path class="e" d="M9.2,59.34l1.32-.42,3.41-11.3c.45-.07,.91-.13,1.38-.19,.46-.06,.78-.09,.97-.1,.06,0,.17,.06,.34,.17l3.47,11.42,1.32,.42v.8h-4.88v-.9l1.45-.42-.83-2.92h-3.96l-.79,2.92,1.51,.42v.9h-4.71v-.8Zm7.63-4.56l-1.53-5.63h-.26l-1.54,5.63h3.33Z"/><path class="e" d="M41.23,59.34l1.32-.42v-10.23l-1.32-.42v-.8h5.26c1.11,0,1.93,.25,2.47,.73,.54,.49,.81,1.34,.81,2.54,0,.78-.18,1.37-.55,1.74-.37,.38-.82,.69-1.36,.94v.13c.84,.14,1.51,.47,2.01,.98,.5,.51,.76,1.16,.76,1.94,0,1.32-.35,2.25-1.05,2.81s-1.64,.84-2.82,.84h-5.52v-.8Zm4.77-6.13c.6,0,1.03-.14,1.29-.43,.26-.29,.39-.86,.39-1.71,0-.95-.07-1.63-.2-2.05-.13-.41-.37-.6-.71-.56l-2.24,.25v4.49h1.47Zm2.26,5.32c.18-.46,.28-1.22,.28-2.3,0-.56-.07-.97-.21-1.23-.14-.26-.33-.42-.58-.49-.24-.07-.58-.1-1.02-.1h-2.2v4.45l2.81,.29c.43,.04,.73-.16,.92-.62Z"/><path class="e" d="M73.4,59.68c-.57-.43-1.04-1.1-1.4-2.01-.36-.9-.54-2.02-.54-3.35,0-.95,.06-1.83,.17-2.64,.11-.8,.27-1.45,.46-1.92,.21-.34,.55-.7,1.03-1.08,.48-.38,.95-.71,1.43-.98,.48-.27,.82-.4,1.03-.4,.41,.01,.98,.04,1.71,.07s1.46,.08,2.17,.14l-.25,3.63h-1.13l-.25-2.14c-.34-.07-.78-.13-1.32-.17s-.96-.06-1.24-.06-.5,.04-.67,.13c-.34,.18-.6,.69-.78,1.51-.18,.83-.27,1.88-.27,3.17,0,1.96,.24,3.31,.72,4.06,.48,.75,1.14,1.12,1.96,1.12h1.51l.36-2.67,1.07,.02,.02,3.72c-.34,.1-1.02,.2-2.06,.31s-1.67,.17-1.89,.17c-.66,0-1.27-.22-1.85-.65Z"/><path class="e" d="M103.24,59.71c-.57-.43-1.04-1.1-1.4-2.01-.36-.9-.54-2.02-.54-3.35,0-.95,.06-1.83,.17-2.64,.11-.8,.27-1.45,.46-1.92,.21-.34,.55-.7,1.03-1.08,.48-.38,.95-.71,1.43-.98,.48-.27,.82-.4,1.03-.4,.41,.01,.98,.04,1.71,.07s1.46,.08,2.17,.14l-.25,3.63h-1.13l-.25-2.14c-.34-.07-.78-.13-1.32-.17s-.96-.06-1.24-.06-.5,.04-.67,.13c-.34,.18-.6,.69-.78,1.51-.18,.83-.27,1.88-.27,3.17,0,1.96,.24,3.31,.72,4.06,.48,.75,1.14,1.12,1.96,1.12h1.51l.36-2.67,1.07,.02,.02,3.72c-.34,.1-1.02,.2-2.06,.31s-1.67,.17-1.89,.17c-.66,0-1.27-.22-1.85-.65Zm-.06-15.92l.59-.52,2.08,1.76h.17l2.08-1.76,.59,.52-2.06,2.86h-1.39l-2.06-2.86Z"/><path class="e" d="M133.86,59.68c-.57-.43-1.04-1.1-1.4-2.01-.36-.9-.54-2.02-.54-3.35,0-.95,.06-1.83,.17-2.64,.11-.8,.27-1.45,.46-1.92,.21-.34,.55-.7,1.03-1.08,.48-.38,.95-.71,1.43-.98,.48-.27,.82-.4,1.03-.4,.41,.01,.98,.04,1.71,.07s1.46,.08,2.17,.14l-.25,3.63h-1.13l-.25-2.14c-.34-.07-.78-.13-1.32-.17s-.96-.06-1.24-.06-.5,.04-.67,.13c-.34,.18-.6,.69-.78,1.51-.18,.83-.27,1.88-.27,3.17,0,1.96,.24,3.31,.72,4.06,.48,.75,1.14,1.12,1.96,1.12h1.51l.36-2.67,1.07,.02,.02,3.72c-.34,.1-1.02,.2-2.06,.31s-1.67,.17-1.89,.17c-.66,0-1.27-.22-1.85-.65Zm.67-14.15l3.42-1.97,.84,1.26-.08,.55-3.86,.92-.32-.76Z"/><path class="e" d="M160.27,59.34l1.3-.42v-10.23l-1.3-.42v-.8h5.82c.77,0,1.49,.19,2.16,.58,.67,.39,1.22,1.03,1.64,1.92,.42,.9,.63,2.06,.63,3.49,0,2.27-.38,3.95-1.16,5.04-.77,1.09-1.86,1.64-3.28,1.64h-5.82v-.8Zm7.64-1.69c.35-1,.52-2.36,.52-4.06,0-.92-.08-1.77-.24-2.55s-.39-1.4-.68-1.87c-.29-.47-.64-.7-1.03-.7l-2.96,.29v10.06l2.96,.34c.6,0,1.08-.5,1.43-1.5Z"/><path class="e" d="M198.29,48.05c.67,.39,1.22,1.03,1.64,1.92,.42,.9,.63,2.06,.63,3.49,0,2.27-.38,3.95-1.16,5.04-.77,1.09-1.86,1.64-3.28,1.64h-5.82v-.8l1.3-.42v-4.73h-1.36v-1.03h1.36v-4.47l-1.3-.42v-.8h5.82c.77,0,1.49,.19,2.16,.58Zm-.34,9.6c.35-1,.52-2.36,.52-4.06,0-.92-.08-1.77-.24-2.55s-.39-1.4-.68-1.87c-.29-.47-.64-.7-1.03-.7l-2.96,.29v4.41h1.85l-.02,1.03h-1.83v4.62l2.96,.34c.6,0,1.08-.5,1.43-1.5Z"/><path class="e" d="M221.81,59.34l1.3-.42v-10.23l-1.3-.42v-.8h8.36l-.27,3.68h-1.13l-.23-2.65-3.46,.29v4.16l3.07,.1v.99l-3.07,.1v4.62l3.65,.34,.34-2.73h1.13l.08,3.76h-8.46v-.8Z"/><path class="e" d="M251.48,59.27l1.31-.4,.17-10.23-1.29-.44v-.8l7.97,.14-.33,3.67-1.13-.02-.19-2.65-3.07,.24-.08,4.51,2.92,.15-.02,.99-2.92,.06-.07,4.26,2.09,.5-.02,.9-5.35-.09v-.8Z"/><path class="e" d="M12.68,89.65c-.68-.45-1.22-1.12-1.62-2.02-.4-.9-.6-2-.6-3.32,0-.95,.06-1.83,.17-2.64,.11-.8,.27-1.45,.47-1.92,.21-.34,.56-.7,1.04-1.08,.48-.38,.97-.71,1.45-.98,.48-.27,.83-.4,1.04-.4,.46,.01,1.1,.05,1.94,.09,.84,.05,1.65,.1,2.43,.16l-.26,3.59h-1.15l-.26-2.08c-.37-.07-.9-.14-1.6-.2s-1.17-.09-1.43-.09c-.29,0-.51,.04-.68,.13-.34,.18-.6,.69-.79,1.51-.18,.83-.28,1.88-.28,3.17,0,1.97,.22,3.35,.67,4.14,.45,.78,1.06,1.18,1.84,1.18l2.32-.21v-3.34l-1.98-.36v-.97h4.92v.82l-1.11,.27v3.78c-.3,.21-1.02,.5-2.16,.87-1.14,.37-1.84,.56-2.08,.56-.87,0-1.64-.22-2.32-.67Z"/><path class="e" d="M40.06,89.33l1.32-.42v-10.23l-1.32-.42v-.8h4.71v.9l-1.41,.42v4.26h4.84v-4.26l-1.41-.42v-.9h4.71v.8l-1.32,.42v10.23l1.32,.42v.8h-4.71v-.9l1.41-.42v-4.64h-4.84v4.64l1.41,.42v.9h-4.71v-.8Z"/><path class="e" d="M73.04,89.33l1.3-.42v-10.23l-1.32-.42v-.8h4.66v.9l-1.39,.42v10.02l1.39,.42v.9h-4.64v-.8Z"/><path class="e" d="M102.37,92.44l-.73-.19v-.99c1.33,0,2.1-.02,2.31-.06,.45-.08,.67-.92,.67-2.5v-9.97l-1.36-.42v-.8h4.68v.8l-1.37,.42v10.65c0,.41-.19,.87-.56,1.4s-.79,.99-1.25,1.39-.81,.6-1.03,.6c-.2,0-.65-.1-1.37-.31Z"/><path class="e" d="M130.8,89.33l1.3-.42v-10.23l-1.3-.42v-.8h4.64v.9l-1.39,.42v10.02l1.39,.42v.9h-4.64v-.8Zm6.47-1.55c-1.36-1.97-2.22-3.23-2.58-3.78v-.59l3.21-4.62-1.37-.42v-.9h4.64v.8l-1.3,.42-3.42,4.72c.57,.8,1.32,1.8,2.24,3s1.58,2.04,1.98,2.5l1.05,.34v.88h-2.83c-.04-.06-.58-.84-1.62-2.35Z"/><path class="e" d="M161.46,89.33l1.3-.42v-10.23l-1.3-.42v-.8h4.85v.9l-1.6,.42v9.97l3.8,.34,.34-2.73h1.13l.08,3.76h-8.61v-.8Z"/><path class="e" d="M188.06,89.33l1.3-.42,.38-10.23-1.3-.42v-.8h4.07l2.86,10.06h.25l2.83-10.06h4.09v.8l-1.3,.42,.4,10.23,1.3,.42v.8h-4.64v-.9l1.39-.42-.17-8.99h-.15c-.48,1.79-.85,3.12-1.11,3.99l-1.62,5.31c-.45,.07-.88,.13-1.28,.19-.41,.06-.69,.09-.84,.1-.06,0-.17-.06-.34-.17l-1.6-5.31c-.21-.7-.59-2.07-1.13-4.12h-.15l-.17,8.99,1.39,.42v.9h-4.47v-.8Z"/><path class="e" d="M227.52,90.11l-2.48-6.17c-.28-.69-.78-2.02-1.49-4.01h-.15l.21,8.13v.76l1.39,.42v.9h-4.47v-.8l1.3-.42v-10.23l-1.3-.42v-.8h3.86l2.88,7.04c.18,.46,.62,1.73,1.3,3.8h.17l-.21-8.78v-.73l-1.39-.42v-.9h4.47v.8l-1.3,.42v11.3c-.34,.06-.78,.12-1.33,.18-.55,.06-.93,.1-1.12,.12-.06,0-.17-.06-.34-.17Z"/><path class="e" d="M251.79,88.87c-.91-1-1.34-2.56-1.31-4.67,.02-.94,.09-1.79,.21-2.55s.29-1.38,.49-1.87c.22-.33,.56-.69,1.04-1.06,.48-.38,.96-.69,1.44-.95,.49-.26,.84-.38,1.05-.38,1.88,.03,3.27,.55,4.17,1.55,.91,1,1.34,2.57,1.31,4.7-.03,1.62-.23,3.09-.6,4.4-.23,.3-.6,.65-1.1,1.03-.5,.38-1,.71-1.49,.97-.49,.27-.84,.4-1.05,.39-1.88-.03-3.27-.55-4.17-1.55Zm5.01-.07c.5-.24,.78-.41,.84-.51,.29-1.17,.44-2.61,.47-4.32,.03-1.75-.17-3.06-.58-3.94s-1.18-1.32-2.29-1.34c-.7-.01-1.21,.06-1.54,.23-.35,.18-.62,.68-.81,1.52-.19,.84-.29,1.96-.32,3.38-.02,1.37,.06,2.44,.25,3.2s.52,1.3,.99,1.63c.47,.33,1.14,.5,2.01,.52,.15,0,.48-.12,.98-.36Z"/><path class="e" d="M10.78,119.35l1.32-.42v-10.23l-1.32-.42v-.8h5.58c1.11,0,1.96,.29,2.55,.86,.59,.57,.88,1.5,.88,2.79,0,1.55-.38,2.69-1.14,3.41-.76,.72-1.73,1.08-2.91,1.08h-1.66v3.19l1.81,.42v.9h-5.11v-.8Zm5.22-4.91c.44,0,.77-.05,.99-.15,.22-.1,.39-.33,.52-.7,.13-.37,.19-.96,.19-1.75,0-1.05-.1-1.86-.31-2.43-.21-.57-.51-.85-.91-.85l-2.41,.21v5.67h1.92Z"/><path class="e" d="M50.73,121.45l-.51,1.18h-.98l-4.07-2.37c-1.45-.21-2.53-.81-3.25-1.8-.72-.99-1.08-2.4-1.08-4.25,0-.94,.06-1.79,.17-2.55,.11-.76,.27-1.39,.47-1.88,.21-.34,.56-.7,1.03-1.08,.48-.38,.96-.71,1.45-.98,.49-.27,.84-.4,1.05-.4,1.9,0,3.33,.49,4.26,1.48,.94,.99,1.41,2.54,1.41,4.67,0,1.62-.18,3.09-.53,4.41-.27,.38-.72,.8-1.36,1.26-.64,.46-1.21,.81-1.71,1.03l3.64,1.28Zm-7.47-4.47c.21,.76,.55,1.29,1.03,1.62,.48,.32,1.17,.48,2.05,.48,.16,0,.49-.13,.99-.38s.79-.43,.84-.52c.27-1.18,.41-2.62,.41-4.33s-.22-3.06-.66-3.93c-.44-.87-1.22-1.3-2.34-1.3-.71,0-1.23,.08-1.56,.25-.36,.18-.62,.69-.8,1.53-.18,.84-.27,1.97-.27,3.38s.1,2.44,.31,3.19Z"/><path class="e" d="M70.7,119.35l1.3-.42v-10.23l-1.3-.42v-.8h5.29c1.16,0,2.02,.26,2.56,.77,.55,.51,.82,1.4,.82,2.68,0,1.02-.23,1.83-.68,2.43-.46,.6-1.05,.98-1.77,1.14v.13c1.11,1.85,2,3.29,2.67,4.33l1.13,.31v.88h-2.77c-.2-.39-.56-1.09-1.09-2.1-.87-1.6-1.45-2.72-1.74-3.36h-1.16v4.14l1.41,.36v.97h-4.66v-.8Zm4.96-5.86c.59,0,1.01-.14,1.27-.43s.39-.86,.39-1.71c0-.97-.1-1.67-.29-2.12-.2-.45-.5-.67-.9-.67l-2.16,.21v4.72h1.7Z"/><path class="e" d="M101.49,120.12l.15-3.84h1.18l.34,2.35c.55,.08,1.11,.16,1.69,.22s1.06,.09,1.44,.09c.08,0,.2-.09,.34-.27,.14-.18,.27-.4,.38-.66s.17-.51,.17-.75c0-.55-.2-1-.6-1.37-.4-.36-1.01-.78-1.84-1.24-.66-.38-1.19-.71-1.6-1.01-.41-.29-.75-.67-1.04-1.11-.29-.45-.43-.97-.43-1.55,0-.39,.04-.76,.11-1.09,.17-.31,.48-.66,.94-1.07s.94-.76,1.43-1.06c.49-.3,.85-.45,1.09-.45,.11,0,.94,.08,2.48,.23,.17,.01,.34,.03,.53,.04,.18,.01,.36,.04,.55,.06l-.15,3.63h-1.18l-.31-2.14c-.45-.08-.98-.16-1.59-.24-.61-.08-1.07-.12-1.38-.12-.18,0-.34,.12-.46,.37-.13,.25-.19,.63-.19,1.14,0,.56,.2,1.03,.59,1.41s.97,.78,1.74,1.22c.76,.43,1.34,.79,1.75,1.08,.41,.29,.77,.65,1.08,1.1,.31,.45,.46,.99,.46,1.62,0,.35-.04,.69-.13,1.03-.17,.35-.48,.73-.92,1.13-.45,.41-.91,.75-1.4,1.03-.48,.28-.86,.42-1.12,.42-1.05,0-2.42-.07-4.09-.21Z"/><path class="e" d="M132.11,120.16l.15-3.84h1.18l.34,2.35c.55,.08,1.11,.16,1.69,.22s1.06,.09,1.44,.09c.08,0,.2-.09,.34-.27,.14-.18,.27-.4,.38-.66s.17-.51,.17-.75c0-.55-.2-1-.6-1.37-.4-.36-1.01-.78-1.84-1.24-.66-.38-1.19-.71-1.6-1.01-.41-.29-.75-.67-1.04-1.11-.29-.45-.43-.97-.43-1.55,0-.39,.04-.76,.11-1.09,.17-.31,.48-.66,.94-1.07s.94-.76,1.43-1.06c.49-.3,.85-.45,1.09-.45,.11,0,.94,.08,2.48,.23,.17,.01,.34,.03,.53,.04,.18,.01,.36,.04,.55,.06l-.15,3.63h-1.18l-.31-2.14c-.45-.08-.98-.16-1.59-.24-.61-.08-1.07-.12-1.38-.12-.18,0-.34,.12-.46,.37-.13,.25-.19,.63-.19,1.14,0,.56,.2,1.03,.59,1.41s.97,.78,1.74,1.22c.76,.43,1.34,.79,1.75,1.08,.41,.29,.77,.65,1.08,1.1,.31,.45,.46,.99,.46,1.62,0,.35-.04,.69-.13,1.03-.17,.35-.48,.73-.92,1.13-.45,.41-.91,.75-1.4,1.03s-.86,.42-1.12,.42c-1.05,0-2.42-.07-4.09-.21Zm1.26-16.36l.59-.52,2.08,1.76h.17l2.08-1.76,.59,.52-2.06,2.86h-1.39l-2.06-2.86Z"/><path class="e" d="M163.13,119.35l1.3-.42v-10.23l-2.29,.13-.21,2.6h-1.11l-.27-3.95h9.72l-.27,3.95h-1.13l-.21-2.6-2.27-.13v10.12l1.39,.42v.9h-4.64v-.8Z"/><path class="e" d="M191.25,116.58v-7.88l-1.3-.42v-.8h4.64v.9l-1.39,.42v7.33c0,.99,.12,1.66,.35,1.98,.23,.33,.54,.49,.91,.49,.24,0,.67-.08,1.31-.24,.64-.16,1.24-.33,1.82-.49v-9.07l-1.39-.42v-.9h4.64v.8l-1.3,.42v10.23l1.3,.42v.8h-2.77l-.44-1.24c-.11,.04-.24,.1-.38,.17-.14,.07-.29,.14-.46,.21-1.46,.69-2.26,1.03-2.42,1.03-2.09,0-3.13-1.25-3.13-3.74Z"/><path class="e" d="M224.61,120.12l-2.98-11.42-1.3-.42v-.8h4.81v.9l-1.45,.42,1.62,6.49c.14,.59,.34,1.56,.61,2.92h.23l.76-3.19c.84-3.5,1.33-5.57,1.47-6.22l-1.51-.42v-.9h4.64v.8l-1.3,.42-1.41,5.42-1.53,5.88c-.45,.07-.9,.13-1.35,.19s-.77,.09-.96,.1c-.06,0-.17-.06-.34-.17Z"/><path class="e" d="M250.96,120.05l-2.58-11.47-1.29-.44v-.8l4.57,.08-.02,.9-1.2,.4,1.36,6.51c.12,.59,.3,1.57,.56,2.93h.23c.06-.25,.19-.72,.4-1.42s.38-1.27,.51-1.73c.55-1.83,.97-3.25,1.25-4.26l-.47-2.07-1.13-.5v-.73l4.57,.08-.02,.97-1.37,.33,1.21,6.51c.12,.59,.3,1.57,.56,2.93h.23l.81-3.17c.9-3.49,1.42-5.55,1.58-6.19l-1.51-.45,.02-.9,4.64,.08v.8l-1.32,.4-1.5,5.39-1.63,5.85c-.45,.06-.9,.12-1.36,.17s-.78,.08-.96,.09c-.06,0-.17-.06-.33-.17l-1.26-6.13h-.19l-1.72,5.95c-.45,.06-.9,.12-1.36,.17-.46,.05-.78,.08-.96,.09-.06,0-.17-.06-.33-.17Z"/><path class="e" d="M9.32,149.22l1.32-.42,3.3-5.21-3.11-5.02-1.13-.42v-.8h4.88v.9l-1.53,.42,2.3,3.55h.08l1.96-3.55-1.47-.42v-.9h4.71v.8l-1.32,.42-2.88,4.75,3.41,5.48,1.32,.42v.8h-5.09v-.9l1.43-.42-2.43-4.01h-.08l-2.43,4.01,1.47,.42v.9h-4.71v-.8Z"/><path class="e" d="M43.45,149.22l1.38-.42v-3.49l-3.39-6.74-1.32-.42v-.8h4.88v.9l-1.41,.42,2.26,4.72h.19l2.15-4.72-1.47-.42v-.9h4.71v.8l-1.32,.42-3.3,6.68v3.55l1.39,.42v.8h-4.75v-.8Z"/><path class="e" d="M71.31,149.22l5.44-10.54-3.55-.29-.19,2.65h-1.16l-.27-3.68h7.62v.8l-5.4,10.5,4.26,.34,.25-2.83h1.13l.23,3.86h-8.38v-.8Z"/><path class="e" d="M101.15,149.26l5.44-10.54-3.55-.29-.19,2.65h-1.16l-.27-3.68h7.62v.8l-5.4,10.5,4.26,.34,.25-2.83h1.13l.23,3.86h-8.38v-.8Zm1.49-15.58l.59-.52,2.08,1.76h.17l2.08-1.76,.59,.52-2.06,2.86h-1.39l-2.06-2.86Z"/><path class="e" d="M133.58,149.71c-.5-.33-.9-.84-1.21-1.52-.31-.69-.46-1.54-.46-2.56,0-.66,.05-1.27,.14-1.84s.21-1,.37-1.29c.22-.32,.72-.75,1.5-1.28,.78-.53,1.29-.8,1.54-.8,.28,0,1.5,.16,3.68,.48v7.9l.71,.29v.78c-1.11,.22-1.72,.34-1.85,.34-.06,0-.19-.1-.4-.29s-.32-.33-.32-.4v-.82c-.08,.07-.43,.34-1.05,.81-.62,.47-.97,.7-1.05,.7-.57,0-1.11-.16-1.61-.49Zm3.64-1.9v-5.77c-.35-.11-.81-.21-1.37-.3-.56-.09-.94-.12-1.13-.09-.27,.04-.47,.34-.6,.9-.13,.56-.2,1.54-.2,2.94,0,.71,.08,1.31,.24,1.79,.16,.48,.35,.83,.57,1.05,.22,.22,.41,.34,.58,.34,.15,0,.79-.28,1.91-.84Z"/><path class="e" d="M164.07,150.04c-.96-.11-1.62-.2-1.98-.27v-11.91l-.74-.29v-.78c.31-.07,.65-.14,1.04-.21,.38-.07,.67-.11,.87-.13,.07,0,.21,.1,.42,.29,.21,.2,.32,.33,.32,.4l-.11,4.7,.11,.02c.15-.11,.3-.22,.45-.34,.15-.11,.28-.21,.41-.29,.71-.55,1.11-.82,1.18-.82,.56,0,1.09,.16,1.6,.48,.5,.32,.91,.82,1.22,1.49s.46,1.5,.46,2.48c0,.71-.05,1.36-.14,1.93s-.21,1.02-.37,1.32c-.22,.32-.72,.75-1.5,1.28-.78,.53-1.29,.8-1.54,.8-.17,0-.73-.06-1.69-.17Zm3.02-1.95c.13-.56,.2-1.54,.2-2.94,0-.71-.08-1.31-.24-1.79-.16-.48-.35-.83-.57-1.05-.22-.22-.41-.34-.58-.34-.07,0-.32,.09-.75,.28-.43,.19-.82,.37-1.17,.56v5.77c.35,.11,.8,.21,1.36,.3,.56,.09,.94,.12,1.13,.09,.27-.04,.46-.34,.6-.9Z"/><path class="e" d="M194.2,149.71c-.46-.33-.84-.83-1.12-1.49s-.43-1.49-.43-2.47c0-.69,.05-1.33,.14-1.93s.21-1.04,.37-1.32c.14-.21,.42-.48,.85-.82s.86-.63,1.29-.88c.43-.25,.73-.38,.9-.38,.67,0,1.44,.13,2.31,.4l-.06,2.69h-1.28l-.29-1.45c-.17-.08-.38-.16-.63-.23-.25-.07-.48-.1-.67-.1-.13,0-.22,.03-.29,.08-.2,.15-.35,.57-.45,1.24-.11,.67-.16,1.48-.16,2.44,0,.73,.08,1.33,.24,1.81,.16,.48,.35,.83,.58,1.05,.22,.22,.44,.34,.65,.34h2.37v.88c-.49,.15-1.05,.3-1.67,.44s-1.02,.21-1.19,.21c-.5,0-.99-.16-1.45-.49Z"/><path class="e" d="M224.65,149.71c-.46-.33-.84-.83-1.12-1.49s-.43-1.49-.43-2.47c0-.69,.05-1.33,.14-1.93s.21-1.04,.37-1.32c.14-.21,.42-.48,.85-.82s.86-.63,1.29-.88c.43-.25,.73-.38,.9-.38,.67,0,1.44,.13,2.31,.4l-.06,2.69h-1.28l-.29-1.45c-.17-.08-.38-.16-.63-.23-.25-.07-.48-.1-.67-.1-.13,0-.22,.03-.29,.08-.2,.15-.35,.57-.45,1.24-.11,.67-.16,1.48-.16,2.44,0,.73,.08,1.33,.24,1.81,.16,.48,.35,.83,.58,1.05,.22,.22,.44,.34,.65,.34h2.37v.88c-.49,.15-1.05,.3-1.67,.44s-1.02,.21-1.19,.21c-.5,0-.99-.16-1.45-.49Zm-1.15-13.45l.59-.52,2.08,1.76h.17l2.08-1.76,.59,.52-2.06,2.86h-1.39l-2.06-2.86Z"/><path class="e" d="M253.98,149.69c-.46-.34-.82-.84-1.1-1.51-.28-.67-.41-1.49-.39-2.48,.01-.69,.07-1.33,.17-1.93,.1-.6,.23-1.04,.39-1.32,.14-.21,.43-.48,.87-.8,.43-.33,.87-.62,1.31-.86,.44-.24,.74-.37,.91-.36,.67,.01,1.44,.16,2.3,.44l-.11,2.69-1.28-.02-.27-1.45c-.17-.09-.38-.17-.63-.24-.25-.07-.47-.11-.67-.12-.13,0-.22,.02-.3,.08-.2,.15-.36,.56-.47,1.23-.12,.67-.18,1.48-.2,2.43-.01,.73,.06,1.33,.21,1.81,.15,.48,.34,.83,.56,1.06,.22,.23,.44,.34,.65,.35l2.37,.04-.02,.88c-.49,.15-1.05,.28-1.68,.41-.63,.13-1.02,.19-1.19,.19-.5,0-.98-.18-1.44-.52Zm.21-11.22l2.9-2.7,1.01,1.07v.52l-3.44,1.75-.47-.64Z"/><path class="e" d="M12.96,179.84c-.5-.33-.92-.83-1.24-1.49-.32-.67-.48-1.49-.48-2.47,0-.71,.05-1.36,.14-1.93s.22-1.02,.37-1.32c.23-.32,.74-.75,1.52-1.28,.79-.53,1.31-.8,1.57-.8,.23,0,.86,.08,1.9,.23v-2.79l-.75-.29v-.78c1.18-.22,1.83-.34,1.94-.34,.07,0,.21,.1,.43,.29,.21,.2,.32,.33,.32,.4l-.11,3.91v7.75l.72,.29v.78c-1.12,.22-1.75,.34-1.88,.34-.06,0-.19-.1-.4-.29-.21-.2-.32-.33-.32-.4v-.82l-.64,.48c-.92,.69-1.42,1.03-1.49,1.03-.57,0-1.11-.16-1.61-.49Zm3.68-1.9v-5.77c-.4-.11-.87-.21-1.43-.3-.55-.09-.92-.12-1.11-.09-.27,.04-.47,.34-.61,.9-.14,.56-.2,1.54-.2,2.94,0,.71,.08,1.31,.25,1.79,.16,.48,.36,.83,.58,1.05,.22,.22,.42,.34,.59,.34,.13,0,.77-.28,1.94-.84Z"/><path class="e" d="M49.07,171.18v7.75l.71,.29v.78c-1.11,.22-1.72,.34-1.85,.34-.06,0-.19-.1-.4-.29s-.32-.33-.32-.4v-.82l-.63,.48c-.91,.69-1.4,1.03-1.47,1.03-.56,0-1.09-.16-1.59-.49-.5-.33-.9-.83-1.22-1.49s-.47-1.49-.47-2.47c0-.71,.05-1.36,.14-1.93s.21-1.02,.37-1.32c.22-.32,.72-.75,1.5-1.28,.78-.53,1.29-.8,1.54-.8,.22,0,.85,.08,1.87,.23v-.94h-2.48v-1.03h2.48v-.82l-.73-.29v-.78c1.16-.22,1.8-.34,1.91-.34,.07,0,.21,.1,.42,.29,.21,.2,.32,.33,.32,.4l-.04,1.53h.82l-.02,1.03h-.82l-.04,1.34Zm-1.91,.99c-.39-.11-.86-.21-1.41-.3-.55-.09-.91-.12-1.09-.09-.27,.04-.47,.34-.6,.9-.13,.56-.2,1.54-.2,2.94,0,.71,.08,1.31,.24,1.79,.16,.48,.35,.83,.57,1.05,.22,.22,.41,.34,.58,.34,.13,0,.76-.28,1.91-.84v-5.77Z"/><path class="e" d="M73.68,179.85c-.53-.32-.96-.82-1.29-1.49-.33-.67-.49-1.5-.49-2.48,0-.7,.05-1.35,.14-1.94,.09-.59,.21-1.03,.37-1.31,.14-.21,.43-.49,.87-.84,.44-.35,.89-.66,1.34-.92,.46-.27,.77-.4,.93-.4,.76,0,1.37,.12,1.84,.36,.47,.24,.83,.69,1.09,1.37,.26,.67,.39,1.64,.39,2.9l-4.96,.42c0,.84,.11,1.51,.34,2.01,.22,.5,.49,.84,.79,1.04,.3,.2,.58,.29,.83,.29l.99-.04,1.72-.06v.86c-.52,.17-1.13,.33-1.84,.49-.71,.16-1.16,.24-1.35,.24-.6,0-1.17-.16-1.7-.48Zm3.15-5.59c0-.84-.11-1.47-.34-1.9-.22-.43-.6-.64-1.11-.64-.31,0-.57,.05-.8,.15-.18,.08-.33,.41-.45,.97-.12,.56-.18,1.16-.18,1.81l2.88-.38Z"/><path class="e" d="M103.75,180.04c-.2-.2-.3-.33-.3-.4v-7.79h-.99v-.82l.99-.4v-.8c0-.28,.17-.68,.51-1.21,.34-.52,.73-1,1.15-1.42s.75-.63,.96-.63c.2,0,.47,.01,.82,.04,.35,.03,.69,.06,1.03,.08,.1,.07,.2,.18,.3,.31,.1,.14,.16,.25,.16,.31,0,.04-.06,.21-.19,.49s-.2,.47-.23,.56c-.32-.08-.73-.18-1.22-.29-.49-.11-.81-.17-.97-.17-.1,0-.19,.12-.27,.37-.08,.25-.13,.51-.13,.81l-.02,1.64h2v1.13h-2v6.95l1.07,.32v.86c-1.39,.22-2.14,.34-2.27,.34-.07,0-.21-.1-.41-.29Z"/><path class="e" d="M133.98,183.75c-.96-.13-1.67-.25-2.13-.36l.19-1.53,2.6-2.35c-.38,0-.76-.17-1.14-.5-.39-.34-.7-.82-.96-1.45s-.38-1.37-.38-2.23c0-.45,.04-.93,.12-1.46s.19-.94,.33-1.25c.22-.31,.73-.73,1.52-1.27,.79-.54,1.31-.81,1.56-.81,.14,0,.63,.06,1.48,.19,.85,.13,1.51,.22,1.98,.29v9.55c0,.43-.19,.91-.56,1.44s-.8,.98-1.28,1.35c-.48,.38-.87,.57-1.17,.57-.49,0-1.21-.06-2.17-.19Zm3.18-1.78c.1-.67,.15-1.39,.15-2.14v-1.05l-.11-.04c-.77,.7-1.71,1.58-2.81,2.62-.32,.32-.61,.6-.86,.82v.13c.22,.1,.75,.23,1.58,.41,.83,.18,1.39,.26,1.67,.26,.15,0,.28-.34,.38-1.01Zm.08-4.35v-5.46c-.29-.1-.65-.19-1.07-.27-.42-.08-.74-.13-.97-.13-.11,0-.18,0-.21,.02-.56,.2-.84,1.39-.84,3.57,0,.76,.09,1.38,.27,1.86,.18,.48,.39,.83,.64,1.03s.46,.3,.64,.3c.14,0,.65-.31,1.53-.92Z"/><path class="e" d="M162.18,180.04c-.2-.2-.29-.33-.29-.4v-11.66l-.74-.29v-.78c1.15-.22,1.79-.34,1.91-.34,.07,0,.21,.1,.42,.29,.21,.2,.32,.33,.32,.4l-.11,4.75,.11,.02c1.32-.98,2.02-1.47,2.1-1.47,1.01,0,1.76,.26,2.27,.79,.5,.52,.76,1.44,.76,2.74v4.81l.73,.31v.78c-1.16,.22-1.81,.34-1.93,.34-.07,0-.21-.1-.41-.29-.2-.2-.3-.33-.3-.4v-5.54c0-.87-.12-1.41-.37-1.64-.25-.22-.53-.34-.85-.34-.14,0-.81,.27-2,.8v5.99l.71,.31v.78c-1.16,.22-1.81,.34-1.93,.34-.07,0-.2-.1-.4-.29Z"/><path class="e" d="M194.88,180c-.25-.22-.37-.37-.37-.44v-7.67l-.74-.23v-.78c1.06-.21,1.66-.31,1.79-.31,.08,0,.25,.1,.48,.31,.24,.21,.36,.36,.36,.46v7.67l.74,.21v.78c-1.06,.22-1.66,.34-1.79,.34-.07,0-.23-.11-.47-.34Zm-.49-13.31l1.62-.1,.31,.46-.1,1.83h-1.68l-.15-2.18Z"/><path class="e" d="M223.98,183.67c-.52-.18-.84-.29-.97-.34v-.82c1.3-.07,2.01-.15,2.12-.23,.35-.2,.53-1,.53-2.42v-7.96l-1.01-.21v-.82c1.25-.21,1.93-.31,2.06-.31,.08,0,.25,.11,.48,.33,.24,.22,.36,.37,.36,.45v9.26c0,.41-.16,.87-.48,1.4-.32,.52-.69,.98-1.1,1.37-.41,.38-.73,.58-.96,.58-.17,0-.51-.09-1.03-.27Zm1.66-16.99l1.62-.1,.32,.46-.11,1.83h-1.68l-.15-2.18Z"/><path class="e" d="M252.4,179.99c-.19-.2-.29-.33-.29-.4l.2-11.65-.75-.31v-.78c1.19-.2,1.85-.3,1.97-.3,.07,0,.2,.1,.39,.3,.19,.2,.29,.33,.29,.4l-.2,11.63,.71,.33v.78c-1.17,.2-1.8,.31-1.93,.3-.07,0-.2-.1-.39-.3Zm5.27,.12c-.21-.18-.35-.32-.41-.42l-2.79-4.21v-.86l2.5-2.73-.92-.14,.02-1.01,2.73-.1c.06,0,.13,.14,.22,.4,.09,.27,.14,.46,.14,.59l-3.14,3.18,2.96,4.12,.83,.35v.78c-1.05,.21-1.63,.31-1.74,.31-.06,0-.19-.09-.39-.27Z"/><path class="e" d="M14.59,210.03c-.2-.2-.3-.33-.3-.4v-11.66l-.77-.29v-.78c1.19-.22,1.85-.34,1.98-.34,.07,0,.21,.1,.4,.29,.2,.2,.3,.33,.3,.4v11.63l.72,.31v.78c-1.17,.22-1.81,.34-1.94,.34-.07,0-.21-.1-.41-.29Z"/><path class="e" d="M40.22,210.03c-.21-.2-.31-.33-.31-.4v-7.67l-.75-.31v-.78c1.17-.21,1.81-.31,1.94-.31,.07,0,.2,.09,.39,.28,.19,.19,.29,.32,.29,.39v.8c.37-.31,.77-.63,1.19-.97,.43-.34,.66-.5,.7-.5,.71,0,1.3,.11,1.78,.34,.48,.22,.82,.6,1.03,1.13,.34-.31,.71-.63,1.11-.97,.4-.34,.62-.5,.66-.5,1.12,0,1.97,.26,2.54,.79s.85,1.44,.85,2.74v4.81l.72,.31v.78c-1.17,.22-1.8,.34-1.92,.34-.07,0-.21-.1-.43-.29-.21-.2-.32-.33-.32-.4v-5.54c0-.87-.14-1.41-.42-1.64-.28-.22-.59-.34-.93-.34-.13,0-.67,.27-1.62,.8v5.99l.72,.31v.78c-1.17,.22-1.8,.34-1.92,.34-.07,0-.21-.1-.43-.29s-.32-.33-.32-.4v-5.54c0-.87-.13-1.41-.38-1.64-.26-.22-.54-.34-.85-.34-.14,0-.72,.27-1.73,.8v5.99l.72,.31v.78c-1.17,.22-1.81,.34-1.94,.34-.07,0-.21-.1-.42-.29Z"/><path class="e" d="M72.13,210.03c-.2-.2-.3-.33-.3-.4v-7.67l-.74-.31v-.78c1.15-.21,1.79-.31,1.91-.31,.07,0,.2,.09,.39,.28,.19,.19,.28,.32,.28,.39v.8c.42-.31,.87-.63,1.35-.97,.48-.34,.75-.5,.81-.5,1.01,0,1.76,.26,2.27,.79,.5,.52,.76,1.44,.76,2.74v4.81l.73,.31v.78c-1.16,.22-1.8,.34-1.91,.34-.07,0-.21-.1-.42-.29s-.31-.33-.31-.4v-5.54c0-.87-.13-1.41-.38-1.64-.25-.22-.53-.34-.84-.34-.15,0-.5,.12-1.04,.37s-.86,.39-.96,.43v5.99l.71,.31v.78c-1.15,.22-1.79,.34-1.91,.34-.07,0-.21-.1-.41-.29Z"/><path class="e" d="M102.33,209.21c-.73-.74-1.09-1.9-1.09-3.47,0-.64,.05-1.26,.14-1.84,.09-.58,.21-1.01,.37-1.29,.14-.21,.43-.49,.87-.84,.44-.35,.88-.66,1.33-.92,.45-.27,.76-.4,.92-.4,1.41,0,2.48,.38,3.2,1.14,.72,.76,1.08,1.87,1.08,3.31,0,.67-.05,1.3-.14,1.89s-.2,1.07-.33,1.45c-.22,.31-.73,.73-1.52,1.27-.79,.54-1.31,.81-1.56,.81-1.46,0-2.55-.37-3.28-1.11Zm4.45-.61c.24-1.05,.36-2.19,.36-3.42,0-1.09-.2-1.95-.6-2.56-.4-.62-.99-.92-1.77-.92-.35,0-.63,.06-.84,.17-.2,.11-.36,.48-.48,1.11-.13,.63-.19,1.46-.19,2.48,0,1.37,.23,2.33,.7,2.87,.47,.54,1.05,.81,1.75,.81,.1-.03,.45-.2,1.07-.53Z"/><path class="e" d="M132.73,213.64c-.21-.2-.31-.33-.31-.4l.1-3.38v-7.92l-.71-.29v-.78c.31-.07,.67-.14,1.09-.22,.42-.08,.67-.12,.76-.12,.06,0,.19,.1,.4,.29,.21,.2,.32,.33,.32,.4v.82l.63-.48c.91-.69,1.4-1.03,1.47-1.03,.56,0,1.09,.17,1.59,.49,.5,.33,.9,.83,1.22,1.49,.31,.67,.47,1.49,.47,2.47,0,.71-.05,1.36-.14,1.93-.09,.57-.21,1.02-.37,1.32-.22,.32-.72,.75-1.5,1.28s-1.29,.8-1.54,.8c-.22,0-.85-.08-1.87-.23v2.33l.84,.34v.84c-.32,.07-.69,.14-1.09,.21-.41,.07-.71,.11-.92,.13-.07,0-.21-.1-.42-.29Zm4.8-5.44c.13-.56,.2-1.54,.2-2.94,0-.71-.08-1.31-.24-1.79-.16-.48-.35-.83-.57-1.05-.22-.22-.41-.34-.58-.34-.11,0-.75,.28-1.91,.84v5.77c.35,.11,.8,.21,1.37,.3,.56,.09,.94,.12,1.13,.09,.27-.04,.47-.34,.6-.9Z"/><path class="e" d="M167.2,213.64c-.21-.2-.31-.33-.31-.4l.1-4.35-.1-.02c-.15,.11-.3,.22-.45,.34-.15,.11-.28,.21-.41,.29-.71,.55-1.11,.82-1.18,.82-.56,0-1.09-.16-1.6-.48-.5-.32-.91-.82-1.22-1.49-.31-.67-.46-1.5-.46-2.48,0-.71,.05-1.36,.14-1.93s.21-1.02,.37-1.32c.22-.32,.72-.75,1.5-1.28,.78-.53,1.29-.8,1.54-.8,.17,0,.73,.06,1.69,.17,.96,.11,1.62,.2,1.99,.27v11.55l.73,.29v.78c-1.16,.22-1.8,.34-1.91,.34-.07,0-.21-.1-.42-.29Zm-.31-5.71v-5.77c-.35-.11-.81-.21-1.37-.3-.56-.09-.94-.12-1.13-.09-.27,.04-.47,.34-.6,.9-.13,.56-.2,1.54-.2,2.94,0,.71,.08,1.31,.24,1.79,.16,.48,.35,.83,.57,1.05,.22,.22,.41,.34,.58,.34,.13,0,.76-.28,1.91-.84Z"/><path class="e" d="M193.96,210.03c-.2-.2-.3-.33-.3-.4v-7.73l-.74-.25v-.78c1.06-.21,1.66-.31,1.79-.31,.07,0,.23,.11,.47,.34,.24,.22,.37,.36,.37,.42l-.04,.73c1.01-1.06,1.55-1.6,1.64-1.6,.22,0,.69,.11,1.41,.34,.04,.1,.07,.21,.09,.34,.02,.13,.03,.23,.03,.31s-.08,.28-.24,.59c-.16,.31-.27,.48-.33,.5-.46-.18-.83-.27-1.11-.27-.18,0-.66,.22-1.43,.67v5.88l1.07,.32v.86c-1.39,.22-2.14,.34-2.27,.34-.07,0-.21-.1-.41-.29Z"/><path class="e" d="M224.96,210.23c-.88-.06-1.55-.12-2.02-.18l.04-3.02,1.05-.02,.44,1.6c.32,.11,.7,.21,1.14,.3,.44,.09,.77,.14,.98,.14,.11,0,.25-.15,.41-.46,.16-.31,.24-.58,.24-.82,0-.25-.06-.47-.18-.64-.12-.17-.3-.34-.56-.5-.25-.16-.68-.4-1.28-.72-.85-.46-1.44-.87-1.76-1.22-.32-.35-.48-.77-.48-1.26s.04-.82,.11-1.03c.22-.35,.6-.74,1.12-1.18,.53-.43,.9-.65,1.12-.65,.46,0,1.06,.02,1.79,.05,.74,.04,1.3,.07,1.69,.12l-.06,2.56h-1.18l-.15-1.11c-.11-.04-.48-.11-1.09-.2-.62-.09-1-.14-1.16-.14-.31,0-.46,.29-.46,.88,0,.27,.1,.49,.3,.68,.2,.19,.43,.36,.69,.51,.26,.15,.43,.26,.51,.31l.57,.34c.76,.42,1.35,.82,1.79,1.19,.44,.37,.66,.79,.66,1.27,0,.32-.05,.68-.15,1.07-.22,.41-.61,.88-1.14,1.42-.54,.54-.96,.81-1.25,.81s-.88-.03-1.76-.09Z"/><path class="e" d="M254.28,210.21c-.88-.08-1.55-.15-2.01-.21l.09-3.02h1.05l.41,1.6c.32,.12,.7,.23,1.14,.32,.44,.1,.76,.15,.97,.15,.11,0,.25-.15,.42-.46,.17-.3,.25-.58,.26-.81,0-.25-.05-.47-.17-.64-.12-.18-.3-.35-.55-.51-.25-.17-.67-.41-1.27-.75-.85-.48-1.43-.89-1.74-1.25-.32-.35-.47-.78-.46-1.27,0-.48,.05-.82,.12-1.03,.23-.35,.61-.73,1.14-1.16s.91-.64,1.13-.63c.46,0,1.06,.04,1.79,.08,.74,.05,1.3,.1,1.69,.14l-.11,2.56-1.18-.02-.13-1.12c-.11-.04-.47-.12-1.09-.22-.61-.1-1-.15-1.15-.16-.31,0-.47,.29-.48,.87,0,.27,.09,.5,.29,.69,.2,.19,.43,.37,.68,.53,.26,.16,.43,.27,.51,.32l.56,.35c.75,.43,1.34,.84,1.78,1.22s.65,.81,.64,1.28c0,.32-.06,.68-.17,1.07-.23,.4-.62,.87-1.17,1.4-.55,.53-.97,.79-1.26,.79-.29,0-.88-.05-1.76-.12Zm-1.36-13.88l.6-.51,2.05,1.8h.17l2.11-1.73,.58,.53-2.11,2.82-1.39-.02-2.01-2.89Z"/><path class="e" d="M14.69,240.13c-.26-.2-.48-.44-.67-.7-.19-.27-.29-.48-.29-.63v-6.85h-1.36v-.63l1.36-.67,1.19-1.43c.13,0,.38,.1,.75,.29v1.32h2.07v1.22h-2.07v5.82c0,.43,.04,.73,.11,.88,.07,.15,.21,.23,.41,.23l1.75,.04v1.01c-.41,.08-.92,.17-1.51,.26-.6,.09-.97,.14-1.11,.14-.16,0-.36-.1-.62-.3Z"/><path class="e" d="M43,239.65c-.51-.52-.77-1.45-.77-2.76v-4.81l-.72-.31v-.78c1.17-.21,1.8-.31,1.92-.31,.07,0,.21,.1,.43,.29,.21,.2,.32,.32,.32,.38v5.54c0,.87,.13,1.42,.38,1.65s.54,.35,.85,.35c.14,0,.79-.27,1.94-.8v-6.01l-.72-.31v-.78c1.17-.21,1.81-.31,1.94-.31,.07,0,.21,.1,.42,.29,.21,.2,.31,.32,.31,.38v7.67l.72,.31v.78c-1.15,.22-1.79,.34-1.92,.34-.07,0-.2-.1-.39-.29-.19-.2-.29-.33-.29-.4v-.8c-.4,.31-.84,.63-1.32,.98-.48,.34-.75,.51-.79,.51-1.02,0-1.79-.26-2.3-.79Z"/><path class="e" d="M74.24,240.31l-2.35-8.27-.78-.23v-.86c1.06-.17,1.66-.25,1.79-.25,.07,0,.22,.08,.44,.24,.22,.16,.35,.29,.38,.39l1.3,5.12,.42,1.81h.23l1.72-6.26-1.24-.15v-1.01l2.42-.15c.07,0,.19,.1,.36,.29,.17,.2,.25,.34,.25,.44l-2.75,8.67c-1.18,.25-1.81,.38-1.91,.38-.04,0-.13-.06-.27-.17Z"/><path class="e" d="M101.71,240.31l-2.27-8.27-.78-.23v-.86c1.06-.17,1.66-.25,1.79-.25,.07,0,.22,.08,.44,.24,.22,.16,.35,.29,.38,.39l1.22,5.12,.42,1.81h.23l1.45-4.83-.4-1.41-.78-.21v-.86c1.06-.17,1.66-.25,1.79-.25,.07,0,.22,.08,.44,.24,.22,.16,.35,.29,.38,.39l1.22,5.12,.42,1.81h.23l1.64-6.26-1.39-.15v-1.01l2.56-.15c.07,0,.19,.1,.36,.29,.17,.2,.25,.34,.25,.44l-2.67,8.67c-1.18,.25-1.81,.38-1.91,.38-.04,0-.13-.06-.27-.17l-1.22-4.62h-.13l-1.22,4.41c-1.18,.25-1.81,.38-1.91,.38-.04,0-.13-.06-.27-.17Z"/><path class="e" d="M131.89,240.03c-.1-.27-.16-.45-.16-.57l3.02-4.03-2.16-3.36-.74-.23v-.9c.99-.15,1.55-.23,1.66-.23,.06,0,.16,.08,.33,.24,.16,.16,.27,.29,.33,.39l1.85,2.9,1.58-2.31-1.03-.08v-1.01l2.6-.13c.07,0,.16,.13,.26,.4,.11,.27,.16,.46,.16,.57l-2.86,3.76,2.31,3.49,.82,.32v.9c-.88,.2-1.39,.29-1.51,.29-.06,0-.19-.09-.4-.26-.21-.17-.35-.31-.42-.41l-2.04-3.13-1.68,2.46,1.01,.15v1.01l-2.67,.19c-.07,0-.16-.13-.26-.4Z"/><path class="e" d="M164.25,243.69c-.13-.24-.19-.4-.19-.48l.99-2.98c-.28,.06-.46,.08-.55,.08-.04,0-.15-.06-.32-.17l-2.23-8.11-.82-.23v-.86c1.06-.17,1.66-.25,1.79-.25,.07,0,.22,.08,.45,.24,.23,.16,.36,.29,.39,.39l1.22,4.89,.48,2.25h.21l1.76-6.47-1.26-.15v-1.01l2.42-.15c.07,0,.19,.1,.37,.29,.17,.2,.26,.34,.24,.44l-2.79,8.82-.61,2.39,.82,.38v.78c-1.29,.17-1.99,.25-2.1,.25-.06,0-.15-.12-.27-.36Z"/><path class="e" d="M192.35,239.79c-.11-.22-.18-.39-.22-.51,.66-1.06,1.42-2.38,2.29-3.95l1.68-2.94-.04-.25-2.31-.13-.19,1.39h-1.09l-.17-2.56h5.78c.25,.41,.41,.72,.48,.95-1.18,2.11-2.47,4.38-3.88,6.78v.29l2.81,.13,.25-1.76h1.07l.06,3.02h-6.26c-.07-.08-.16-.23-.26-.45Z"/><path class="e" d="M222.8,239.79c-.11-.22-.18-.39-.22-.51,.66-1.06,1.42-2.38,2.29-3.95l1.68-2.94-.04-.25-2.31-.13-.19,1.39h-1.09l-.17-2.56h5.78c.25,.41,.41,.72,.48,.95-1.18,2.11-2.47,4.38-3.88,6.78v.29l2.81,.13,.25-1.76h1.07l.06,3.02h-6.26c-.07-.08-.16-.23-.26-.45Zm.3-13.3l.59-.52,2.08,1.76h.17l2.08-1.76,.59,.52-2.06,2.86h-1.39l-2.06-2.86Z"/><path class="e" d="M9.21,299.68l1.31-.4,3.55-11.24c.45-.06,.9-.12,1.36-.17s.77-.08,.96-.09c.06,0,.17,.06,.33,.17l3.23,11.48,1.29,.44v.8l-4.82-.08,.02-.9,1.44-.4-.77-2.93-3.91-.07-.83,2.91,1.48,.45-.02,.9-4.64-.08v-.8Zm4.37-13.71c-.57-.46-.98-.94-1.23-1.44l.6-.52c.38,.4,.77,.71,1.16,.94,.39,.23,.82,.35,1.3,.36,.48,0,.91-.1,1.31-.31,.4-.22,.79-.52,1.19-.9l.58,.53c-.26,.49-.69,.95-1.27,1.4-.59,.44-1.2,.66-1.83,.65s-1.23-.25-1.8-.71Zm3.23,9.29l-1.42-5.65h-.25l-1.61,5.6,3.28,.06Z"/><path class="e" d="M39.83,299.78l1.3-.42,3.36-11.3c.45-.07,.9-.13,1.35-.19,.46-.06,.77-.09,.96-.1,.06,0,.17,.06,.34,.17l3.42,11.42,1.3,.42v.8h-4.81v-.9l1.43-.42-.82-2.92h-3.91l-.78,2.92,1.49,.42v.9h-4.64v-.8Zm3.19-13.71l2.16-1.91h1.18l2.16,1.91-.57,.69-2.08-1.13h-.23l-2.06,1.13-.57-.69Zm4.33,9.16l-1.51-5.63h-.25l-1.51,5.63h3.28Z"/><path class="e" d="M71.25,299.78l1.3-.42v-10.23l-1.3-.42v-.8h8.36l-.27,3.68h-1.13l-.23-2.65-3.46,.29v4.16l3.07,.1v.99l-3.07,.1v4.62l3.65,.34,.34-2.73h1.13l.08,3.76h-8.46v-.8Zm1.68-13.71l2.16-1.91h1.18l2.16,1.91-.57,.69-2.08-1.13h-.23l-2.06,1.13-.57-.69Z"/><path class="e" d="M101.73,299.29c-.92-.99-1.39-2.54-1.39-4.65,0-.94,.06-1.79,.17-2.55,.11-.76,.27-1.39,.46-1.88,.21-.34,.55-.7,1.02-1.08,.47-.38,.94-.71,1.43-.98,.48-.27,.83-.4,1.04-.4,1.88,0,3.28,.49,4.2,1.48,.92,.99,1.39,2.54,1.39,4.67,0,1.62-.18,3.09-.53,4.41-.22,.31-.58,.66-1.08,1.05s-.99,.72-1.47,1c-.48,.27-.83,.41-1.04,.41-1.88,0-3.28-.49-4.2-1.48Zm.63-13.22l2.16-1.91h1.18l2.16,1.91-.57,.69-2.08-1.13h-.23l-2.06,1.13-.57-.69Zm4.38,13.06c.5-.25,.77-.43,.83-.52,.27-1.18,.4-2.62,.4-4.33s-.22-3.06-.65-3.93c-.43-.87-1.2-1.3-2.31-1.3-.7,0-1.21,.08-1.53,.25-.35,.18-.61,.69-.79,1.53-.17,.84-.26,1.97-.26,3.38s.1,2.44,.3,3.19,.54,1.29,1.02,1.62c.48,.32,1.15,.48,2.02,.48,.15,0,.48-.13,.98-.38Z"/><path class="e" d="M140.05,290.38c.41,.9,.62,2.08,.62,3.52,0,1.62-.18,3.09-.53,4.41-.22,.31-.58,.66-1.08,1.05-.5,.39-.99,.72-1.47,1-.48,.27-.83,.41-1.04,.41-1.88,0-3.28-.49-4.2-1.48s-1.39-2.54-1.39-4.65c0-.94,.06-1.79,.17-2.55,.11-.76,.27-1.39,.46-1.88,.21-.34,.55-.7,1.02-1.08,.47-.38,.94-.71,1.43-.98,.48-.27,.83-.4,1.04-.4,.59,0,1.18,.06,1.76,.17,.43-.01,.86-.24,1.27-.67,.41-.43,.67-.96,.77-1.58l1.11,.38c-.07,.48-.28,.92-.62,1.34s-.75,.75-1.21,.99c.84,.43,1.47,1.1,1.88,2.01Zm-1.46,3.9c0-1.75-.22-3.06-.65-3.93-.43-.87-1.2-1.3-2.31-1.3-.7,0-1.21,.08-1.53,.25-.35,.18-.61,.69-.79,1.53-.17,.84-.26,1.97-.26,3.38s.1,2.44,.3,3.19,.54,1.29,1.02,1.62c.48,.32,1.15,.48,2.02,.48,.15,0,.48-.13,.98-.38,.5-.25,.77-.43,.83-.52,.27-1.18,.4-2.62,.4-4.33Z"/><path class="e" d="M171.52,287.35c-.32,.41-.71,.73-1.15,.98-.45,.25-.88,.37-1.3,.39v10.65l1.3,.42v.8h-2.77l-.44-1.24c-.11,.04-.24,.1-.38,.17-.14,.07-.29,.14-.46,.21-1.46,.69-2.26,1.03-2.42,1.03-2.09,0-3.13-1.25-3.13-3.74v-7.88l-1.3-.42v-.8h4.64v.97l-1.39,.36v7.33c0,.99,.12,1.66,.35,1.98,.23,.33,.54,.49,.91,.49,.24,0,.67-.08,1.31-.24,.64-.16,1.24-.33,1.82-.49v-9.07l-1.39-.36v-.97h3.19c.43,0,.86-.22,1.29-.65,.43-.43,.69-.97,.79-1.6l1.11,.38c-.07,.46-.27,.9-.59,1.3Z"/><path class="e" d="M193.22,300.27c-.5-.33-.9-.84-1.21-1.52-.31-.69-.46-1.54-.46-2.56,0-.66,.05-1.27,.14-1.84s.21-1,.37-1.29c.22-.32,.72-.75,1.5-1.28,.78-.53,1.29-.8,1.54-.8,.28,0,1.5,.16,3.68,.48v7.9l.71,.29v.78c-1.11,.22-1.72,.34-1.85,.34-.06,0-.19-.1-.4-.29s-.32-.33-.32-.4v-.82c-.08,.07-.43,.34-1.05,.81-.62,.47-.97,.7-1.05,.7-.57,0-1.11-.16-1.61-.49Zm.52-11.65c-.58-.45-1-.93-1.25-1.42l.59-.52c.39,.39,.78,.7,1.18,.92,.39,.22,.83,.34,1.3,.34s.91-.11,1.3-.34c.39-.22,.78-.53,1.18-.92l.59,.52c-.25,.49-.67,.96-1.25,1.42-.58,.46-1.19,.68-1.82,.68s-1.24-.23-1.82-.68Zm3.12,9.75v-5.77c-.35-.11-.81-.21-1.37-.3-.56-.09-.94-.12-1.13-.09-.27,.04-.47,.34-.6,.9-.13,.56-.2,1.54-.2,2.94,0,.71,.08,1.31,.24,1.79,.16,.48,.35,.83,.57,1.05,.22,.22,.41,.34,.58,.34,.15,0,.79-.28,1.91-.84Z"/><path class="e" d="M223.67,300.27c-.5-.33-.9-.84-1.21-1.52-.31-.69-.46-1.54-.46-2.56,0-.66,.05-1.27,.14-1.84s.21-1,.37-1.29c.22-.32,.72-.75,1.5-1.28,.78-.53,1.29-.8,1.54-.8,.28,0,1.5,.16,3.68,.48v7.9l.71,.29v.78c-1.11,.22-1.72,.34-1.85,.34-.06,0-.19-.1-.4-.29s-.32-.33-.32-.4v-.82c-.08,.07-.43,.34-1.05,.81-.62,.47-.97,.7-1.05,.7-.57,0-1.11-.16-1.61-.49Zm-.43-11.12l2.06-2.86h1.39l2.06,2.86-.59,.52-2.08-1.76h-.17l-2.08,1.76-.59-.52Zm4.07,9.22v-5.77c-.35-.11-.81-.21-1.37-.3-.56-.09-.94-.12-1.13-.09-.27,.04-.47,.34-.6,.9-.13,.56-.2,1.54-.2,2.94,0,.71,.08,1.31,.24,1.79,.16,.48,.35,.83,.57,1.05,.22,.22,.41,.34,.58,.34,.15,0,.79-.28,1.91-.84Z"/><path class="e" d="M253.66,300.28c-.53-.32-.96-.82-1.29-1.49-.33-.67-.49-1.5-.49-2.48,0-.7,.05-1.35,.14-1.94,.09-.59,.21-1.03,.37-1.31,.14-.21,.43-.49,.87-.84,.44-.35,.89-.66,1.34-.92,.46-.27,.77-.4,.93-.4,.76,0,1.37,.12,1.84,.36,.47,.24,.83,.69,1.09,1.37,.26,.67,.39,1.64,.39,2.9l-4.96,.42c0,.84,.11,1.51,.34,2.01,.22,.5,.49,.84,.79,1.04,.3,.2,.58,.29,.83,.29l.99-.04,1.72-.06v.86c-.52,.17-1.13,.33-1.84,.49-.71,.16-1.16,.24-1.35,.24-.6,0-1.17-.16-1.7-.48Zm-1.05-11.13l2.06-2.86h1.39l2.06,2.86-.59,.52-2.08-1.76h-.17l-2.08,1.76-.59-.52Zm4.2,5.54c0-.84-.11-1.47-.34-1.9-.22-.43-.6-.64-1.11-.64-.31,0-.57,.05-.8,.15-.18,.08-.33,.41-.45,.97-.12,.56-.18,1.16-.18,1.81l2.88-.38Z"/><path class="e" d="M12.29,329.12c-.72-.75-1.06-1.92-1.03-3.48,.01-.64,.07-1.26,.17-1.83,.1-.58,.23-1.01,.39-1.29,.14-.21,.44-.48,.89-.83,.45-.34,.9-.64,1.35-.9s.76-.39,.93-.38c1.41,.02,2.47,.42,3.18,1.2,.71,.77,1.05,1.88,1.02,3.33-.01,.67-.07,1.3-.17,1.89-.1,.59-.22,1.07-.35,1.44-.23,.3-.74,.72-1.54,1.24-.8,.53-1.33,.79-1.58,.78-1.46-.02-2.54-.41-3.26-1.17Zm.26-10.5l2.11-2.82,1.39,.02,2.01,2.89-.6,.52-2.05-1.8h-.17l-2.11,1.73-.58-.54Zm4.2,9.96c.26-1.05,.39-2.19,.42-3.42,.02-1.09-.17-1.95-.56-2.57-.39-.62-.97-.94-1.76-.95-.35,0-.63,.05-.84,.15-.2,.11-.37,.48-.5,1.1-.14,.63-.21,1.45-.23,2.47-.02,1.37,.19,2.33,.65,2.88,.46,.55,1.04,.83,1.74,.84,.1-.03,.46-.2,1.08-.51Z"/><path class="e" d="M12.5,269.56l2.14-.44v-6.99l-2.25,.21v-.9l3.25-1.03,.88,.31v8.4l1.85,.44v.8h-5.88v-.8Z"/><path class="e" d="M41.98,269.31l3.55-4.33c.42-.52,.7-.92,.85-1.22,.15-.29,.22-.62,.22-.97,0-.28-.05-.55-.15-.8s-.22-.38-.36-.38c-.11,0-.42,.05-.93,.15-.51,.1-.91,.18-1.19,.25l-.21,1.74h-1.05l-.15-2.92c.46-.1,1.12-.2,1.98-.29,.86-.1,1.42-.15,1.69-.15,.7,0,1.29,.17,1.79,.5,.49,.34,.73,.87,.73,1.6,0,.43-.12,.9-.37,1.41-.25,.5-.54,.97-.89,1.39l-2.81,3.38v.13h3.28l.15-1.49h1.07l.08,3.04h-7.12l-.17-1.05Z"/><path class="e" d="M72.48,271.13c1.08-.27,2.01-.69,2.79-1.27,.78-.58,1.18-1.27,1.18-2.07,0-.45-.08-.82-.23-1.12-.15-.3-.34-.45-.55-.45h-2.16v-.88c.97-.24,1.64-.55,2.03-.94,.38-.39,.58-.93,.58-1.62,0-.27-.05-.52-.15-.78-.1-.25-.22-.38-.36-.38-.11,0-.43,.05-.95,.15s-.92,.18-1.2,.25l-.21,1.53h-1.05l-.15-2.71c.48-.1,1.05-.2,1.72-.29,.67-.1,1.12-.15,1.34-.15,.84,0,1.52,.18,2.04,.55,.52,.36,.78,.92,.78,1.66,0,.36-.11,.72-.33,1.08-.22,.36-.47,.67-.76,.92-.29,.26-.52,.42-.7,.47v.1c.8,.15,1.39,.42,1.76,.79s.57,.91,.57,1.61c0,.66-.3,1.33-.89,2.01-.6,.68-1.36,1.27-2.29,1.76-.93,.5-1.87,.81-2.82,.93v-1.16Z"/><path class="e" d="M105.96,269.45h-5.1l-.13-1.03c.49-1.01,1.09-2.32,1.79-3.95s1.28-2.99,1.71-4.1l1.66,.69v.44c-.31,.67-.82,1.71-1.53,3.12-.71,1.41-1.28,2.48-1.7,3.22l.04,.17h3.25v-2.88l1.41-.52,.4,.15v3.25h1.43v1.43h-1.43v2.79h-1.81v-2.79Z"/><path class="e" d="M132.93,271.13c.84-.22,1.54-.46,2.09-.7,.55-.25,1.01-.6,1.37-1.05,.36-.45,.54-1.04,.54-1.75s-.15-1.18-.46-1.49c-.31-.31-.69-.46-1.15-.46-.08,0-.49,.13-1.22,.38l-.99,.34-.34-.46,.48-5.33h3.78l.11-.94h1.01l.13,2.5h-3.74l-.23,2.79s.25-.13,.63-.3c.38-.17,.64-.26,.78-.26,1.09,0,1.9,.28,2.44,.85,.53,.57,.8,1.24,.8,2.03,0,.92-.29,1.75-.88,2.49-.59,.74-1.34,1.32-2.26,1.75s-1.87,.7-2.87,.8v-1.16Z"/><path class="e" d="M162.85,269.33c-.74-.81-1.1-1.94-1.1-3.38s.29-2.7,.88-3.73c.59-1.03,1.36-1.83,2.31-2.39,.95-.57,2-.92,3.13-1.06v1.15c-1.22,.25-2.21,.78-2.98,1.59-.77,.81-1.2,1.7-1.3,2.68l.06,.04c1.18-.6,1.83-.9,1.95-.9,1.23,0,2.1,.32,2.6,.97,.5,.64,.76,1.45,.76,2.42,0,.25-.03,.57-.07,.94s-.1,.66-.16,.84c-.28,.41-.75,.85-1.42,1.33-.67,.48-1.18,.72-1.54,.72-1.34,0-2.38-.41-3.12-1.22Zm4.08-.61c.14-.41,.21-1.1,.21-2.08,0-.78-.13-1.32-.38-1.6-.25-.28-.62-.42-1.11-.42-.07,0-.31,.06-.72,.18-.41,.12-.8,.24-1.17,.37-.01,.25-.02,.61-.02,1.07,0,.74,.07,1.33,.21,1.77,.14,.44,.39,.77,.76,.99,.36,.22,.9,.33,1.6,.33,.28,0,.49-.2,.63-.61Z"/><path class="e" d="M193.59,272.19c-.36-.16-.68-.32-.98-.47l4.66-9.32-.04-.25h-3.86l-.19,1.62h-1.05l-.17-3.17h7.01l.25,.95-4.58,10.71c-.15,.13-.29,.19-.4,.19-.08,0-.3-.08-.66-.24Z"/><path class="e" d="M223.92,270.04c-.57-.35-.97-.78-1.22-1.28-.25-.5-.37-.99-.37-1.45,0-.55,.14-1.05,.41-1.5,.27-.46,.7-.91,1.29-1.35v-.1c-.45-.31-.8-.66-1.05-1.05-.25-.39-.38-.85-.38-1.39,0-.49,.04-.85,.13-1.09,.11-.18,.37-.44,.77-.79,.4-.34,.82-.64,1.27-.9,.45-.26,.82-.39,1.11-.39,1.02,0,1.83,.25,2.44,.75,.6,.5,.9,1.13,.9,1.9,0,1.19-.48,2.23-1.45,3.11v.1c.53,.35,.95,.74,1.26,1.17,.31,.43,.46,.94,.46,1.54,0,.41-.06,.8-.19,1.18-.11,.18-.37,.44-.77,.79-.4,.34-.82,.64-1.27,.9-.45,.26-.82,.39-1.11,.39-.92,0-1.67-.18-2.24-.52Zm3.21-.93c.12-.15,.22-.35,.3-.6s.13-.53,.13-.84c0-.38-.11-.71-.32-1.01-.21-.29-.47-.55-.77-.76s-.72-.46-1.25-.76c-.17-.08-.29-.15-.38-.21-.17,.29-.32,.63-.46,1-.14,.37-.21,.72-.21,1.06,0,.67,.18,1.23,.56,1.67s1.07,.66,2.09,.66c.08,0,.19-.07,.3-.22Zm.24-7.19c0-.62-.14-1.09-.42-1.43s-.85-.5-1.72-.5c-.22,0-.4,.1-.51,.29-.12,.2-.18,.52-.18,.97,0,.49,.11,.9,.32,1.22,.21,.32,.45,.57,.72,.76,.27,.18,.72,.45,1.33,.8,.31-.76,.46-1.46,.46-2.1Z"/><path class="e" d="M252.5,271.09c.84-.15,1.59-.45,2.24-.88,.65-.43,1.16-.94,1.54-1.54,.38-.6,.6-1.21,.68-1.86l-.06-.04c-.37,.2-.73,.4-1.09,.59-.36,.19-.58,.28-.67,.28-1.23-.02-2.13-.39-2.69-1.11-.56-.72-.83-1.56-.82-2.52,0-.27,.04-.55,.1-.86,.06-.31,.13-.55,.2-.73,.27-.4,.74-.84,1.41-1.31,.67-.47,1.18-.7,1.54-.7,1.36,.02,2.39,.44,3.11,1.26,.71,.82,1.06,1.95,1.03,3.41-.02,1.47-.34,2.72-.96,3.75-.61,1.03-1.41,1.83-2.39,2.38-.98,.56-2.05,.9-3.2,1.02l.02-1.16Zm4.5-5.26c.02-.22,.03-.54,.04-.94,.01-.77-.05-1.38-.18-1.84-.13-.46-.38-.81-.75-1.04-.37-.24-.89-.36-1.58-.37-.31,0-.53,.18-.66,.57-.13,.38-.21,.95-.22,1.71-.03,1.61,.53,2.42,1.66,2.44,.1,0,.66-.17,1.69-.52Z"/><path class="e" d="M252.19,239.07c-.67-.89-.99-2.15-.96-3.79,.01-.85,.16-1.66,.44-2.42,.28-.76,.73-1.38,1.36-1.87,.62-.49,1.42-.72,2.38-.71,1.39,.02,2.41,.48,3.07,1.35,.66,.88,.97,2.14,.94,3.78-.01,.85-.16,1.66-.44,2.43-.28,.77-.72,1.39-1.33,1.88-.61,.49-1.4,.72-2.37,.71-1.39-.02-2.41-.48-3.08-1.37Zm3.77,.02c.32-.11,.67-.28,1.05-.5,.08-.32,.13-.72,.17-1.21,.04-.48,.06-1.15,.08-2,.02-1.41-.08-2.42-.32-3.01-.24-.59-.64-.89-1.21-.9-.69-.01-1.38,.21-2.07,.66-.1,.33-.17,.74-.2,1.2-.03,.47-.05,1.13-.06,1.98-.02,1.41,.08,2.42,.31,3.02,.23,.6,.63,.9,1.2,.91,.39,0,.75-.05,1.06-.16Z"/><path class="e" d="M49.74,324.86c0,.67-.05,1.3-.14,1.89s-.2,1.07-.33,1.45c-.22,.31-.73,.73-1.52,1.27-.79,.54-1.31,.81-1.56,.81-1.46,0-2.55-.37-3.28-1.11-.73-.74-1.09-1.9-1.09-3.47,0-.64,.05-1.26,.14-1.84,.09-.58,.21-1.01,.37-1.29,.14-.21,.43-.49,.87-.84,.44-.35,.88-.66,1.33-.92,.45-.27,.76-.4,.92-.4,.7,0,1.3,.09,1.81,.27,.43-.03,.86-.25,1.27-.68,.41-.43,.67-.95,.77-1.56l1.11,.38c-.07,.52-.3,1-.7,1.45-.4,.45-.86,.78-1.38,.99,.94,.76,1.41,1.96,1.41,3.61Zm-2.02,.27c0-1.09-.2-1.95-.6-2.56-.4-.62-.99-.92-1.77-.92-.35,0-.63,.06-.84,.17-.2,.11-.36,.48-.48,1.11-.13,.63-.19,1.46-.19,2.48,0,1.37,.23,2.33,.7,2.87,.47,.54,1.05,.81,1.75,.81,.1-.03,.45-.2,1.07-.53,.24-1.05,.36-2.19,.36-3.42Z"/><path class="e" d="M79.82,320.16c-.34,.42-.75,.75-1.23,.99l.02,.04v7.67l.71,.31v.78c-1.13,.22-1.76,.34-1.89,.34-.07,0-.2-.1-.39-.29-.19-.2-.28-.33-.28-.4v-.8c-.39,.31-.83,.63-1.3,.98-.48,.34-.73,.51-.78,.51-1.01,0-1.76-.26-2.27-.79-.5-.52-.76-1.45-.76-2.76v-4.81l-.71-.31v-.78c1.15-.21,1.78-.31,1.89-.31,.07,0,.21,.1,.42,.29,.21,.2,.31,.32,.31,.38v5.54c0,.87,.13,1.42,.38,1.65s.53,.35,.84,.35c.14,0,.78-.27,1.91-.8v-6.01l-.71-.31v-.78c1.15-.21,1.79-.31,1.91-.31,.34-.18,.64-.45,.9-.82,.27-.36,.44-.78,.52-1.26l1.11,.38c-.07,.48-.28,.92-.62,1.34Z"/><path class="e" d="M104.16,321.11c-.14-.15-.21-.26-.21-.33v-1.05c0-.27,.18-.74,.55-1.42,.36-.68,.75-1.29,1.16-1.84l.78,.38c-.46,1.15-.67,1.66-.61,1.53-.07,.21-.15,.41-.23,.61,.03,.01,.1,.07,.23,.16,.13,.09,.19,.17,.19,.22l-.06,1.83c-.7,.08-1.2,.13-1.49,.13-.06,0-.15-.07-.29-.22Z"/><path class="e" d="M134.58,320.89c.46-1.15,.67-1.66,.61-1.53,.07-.21,.15-.41,.23-.61-.03-.01-.1-.07-.23-.16-.13-.09-.19-.16-.19-.22l.06-1.83c.7-.08,1.2-.13,1.49-.13,.06,0,.15,.07,.29,.22,.14,.15,.21,.26,.21,.33v1.05c0,.27-.18,.74-.55,1.42-.36,.68-.75,1.29-1.16,1.84l-.78-.38Z"/><path class="e" d="M168.15,317.85c.45,.38,.68,1.02,.68,1.93,0,.56-.11,1.06-.33,1.51s-.49,.84-.81,1.17-.74,.71-1.26,1.14l-.44,.38c-.35,.31-.59,.63-.71,.98-.13,.34-.2,.89-.21,1.65-.53,.07-.86,.1-.99,.1-.03,0-.08-.04-.17-.12-.08-.08-.13-.13-.13-.16l-.04-1.37c-.01-.36,.06-.69,.21-.97,.15-.28,.33-.51,.52-.7s.52-.48,.97-.87c.62-.53,1.05-1,1.31-1.42,.26-.41,.39-.85,.39-1.31,0-.34-.05-.63-.16-.89-.11-.26-.28-.39-.54-.39-.36,0-1.16,.09-2.37,.27l-.17,1.85h-1.13l-.21-3.11c1.62-.17,2.76-.25,3.4-.25,.99,0,1.72,.19,2.17,.57Zm-3.12,10.02l.21,2.31c-.53,.07-.99,.1-1.39,.1-.04,0-.11-.07-.21-.2-.1-.13-.14-.22-.13-.26l.32-1.95h1.2Z"/><path class="e" d="M196.97,324.5l.06,.55c.13,1.13-.27,2.33-1.32,3.59-.94,1.13-1.45,1.91-1.45,2.86,0,1.07,.65,1.78,2,1.78,.73,0,1.57-.23,2.12-.65l.5,1.34c-.71,.48-1.91,.84-3.02,.84-2.39,0-3.51-1.49-3.51-3.09,0-1.43,.8-2.44,1.83-3.61,.9-1.11,1.24-1.99,1.18-3.07l-.02-.55h1.64Zm.44-2.98c0,.73-.48,1.32-1.24,1.32s-1.24-.59-1.24-1.32,.5-1.3,1.24-1.3,1.24,.55,1.24,1.3Z"/><path class="e" d="M223.4,321.11c-.14-.15-.21-.26-.21-.33v-1.05c0-.27,.18-.74,.55-1.42,.36-.68,.75-1.29,1.16-1.84l.78,.38c-.46,1.15-.67,1.66-.61,1.53-.07,.21-.15,.41-.23,.61,.03,.01,.1,.07,.23,.16,.13,.09,.19,.17,.19,.22l-.06,1.83c-.7,.08-1.2,.13-1.49,.13-.06,0-.15-.07-.29-.22Zm2.96,0c-.14-.15-.21-.26-.21-.33v-1.05c0-.27,.18-.74,.55-1.42,.36-.68,.75-1.29,1.16-1.84l.78,.38c-.46,1.15-.67,1.66-.61,1.53-.07,.21-.15,.41-.23,.61,.03,.01,.1,.07,.23,.16,.13,.09,.19,.17,.19,.22l-.06,1.83c-.7,.08-1.2,.13-1.49,.13-.06,0-.15-.07-.29-.22Z"/><path class="e" d="M252.61,320.89c.46-1.15,.67-1.66,.61-1.53,.07-.21,.15-.41,.23-.61-.03-.01-.1-.07-.23-.16-.13-.09-.19-.16-.19-.22l.06-1.83c.7-.08,1.2-.13,1.49-.13,.06,0,.15,.07,.29,.22,.14,.15,.21,.26,.21,.33v1.05c0,.27-.18,.74-.55,1.42-.36,.68-.75,1.29-1.16,1.84l-.78-.38Zm2.96,0c.46-1.15,.67-1.66,.61-1.53,.07-.21,.15-.41,.23-.61-.03-.01-.1-.07-.23-.16-.13-.09-.19-.16-.19-.22l.06-1.83c.7-.08,1.2-.13,1.49-.13,.06,0,.15,.07,.29,.22,.14,.15,.21,.26,.21,.33v1.05c0,.27-.18,.74-.55,1.42-.36,.68-.75,1.29-1.16,1.84l-.78-.38Z"/><path class="e" d="M14.28,359.38c-.1-.13-.14-.22-.14-.26l.14-1.91,1.76,.03,.11,2.25c-.76,.07-1.31,.1-1.66,.1-.04,0-.11-.07-.21-.2Zm.42-3.79c-.08-.08-.12-.13-.12-.16l-.23-8.68c1.03-.18,1.56-.27,1.6-.27,.03,0,.11,.06,.24,.17,.13,.11,.2,.19,.2,.23l-.53,8.73c-.52,.06-.85,.09-.99,.09-.03,0-.08-.04-.17-.12Z"/><path class="e" d="M44.87,358.51c-.63-1.33-.95-2.95-.95-4.87s.32-3.58,.95-4.9c.63-1.32,1.38-2.47,2.25-3.43l.66,.55c-.6,.95-1.07,2.12-1.42,3.52-.35,1.39-.52,2.81-.52,4.25s.18,2.88,.53,4.28c.36,1.4,.82,2.56,1.41,3.49l-.66,.55c-.87-.95-1.62-2.09-2.25-3.42Z"/><path class="e" d="M73.36,361.38c.58-.94,1.05-2.11,1.41-3.51,.36-1.4,.53-2.81,.53-4.24s-.18-2.88-.53-4.28c-.36-1.4-.82-2.57-1.41-3.51l.66-.55c.87,.95,1.62,2.09,2.25,3.42,.63,1.33,.95,2.95,.95,4.87s-.32,3.58-.95,4.9c-.63,1.32-1.38,2.47-2.25,3.43l-.66-.55Z"/><path class="e" d="M98,352.91c-.5-.52-.75-1.33-.75-2.4,0-.95,.23-1.75,.7-2.38,.47-.64,1.27-.96,2.4-.96s1.93,.27,2.43,.8c.5,.53,.75,1.35,.75,2.46-.01,.92-.26,1.7-.74,2.33-.48,.63-1.27,.95-2.39,.95s-1.91-.26-2.4-.79Zm3.69-.68c.06-.64,.08-1.25,.08-1.81,0-.62-.03-1.08-.08-1.41-.06-.32-.16-.55-.32-.69s-.38-.21-.69-.21c-.52,0-1.06,.18-1.64,.55-.06,.62-.08,1.2-.08,1.76,0,.62,.03,1.09,.08,1.42s.16,.56,.32,.7c.15,.14,.38,.21,.69,.21,.5,0,1.05-.17,1.64-.52Zm5.96-5.48h1.3l-6.26,13.02h-1.3l6.26-13.02Zm-.03,11.81c-.5-.52-.75-1.33-.75-2.4,0-.95,.23-1.75,.7-2.38,.47-.64,1.27-.96,2.4-.96s1.93,.27,2.42,.8,.75,1.35,.75,2.46c-.01,.92-.26,1.7-.74,2.33-.48,.63-1.27,.94-2.39,.94s-1.91-.26-2.4-.79Zm3.69-.7c.06-.64,.08-1.25,.08-1.81,0-.62-.03-1.08-.08-1.41-.06-.32-.16-.55-.32-.69-.15-.14-.39-.21-.69-.21-.52,0-1.06,.18-1.64,.55-.06,.62-.08,1.2-.08,1.76,0,.62,.03,1.09,.08,1.42s.16,.56,.32,.7c.15,.14,.38,.21,.69,.21,.5,0,1.05-.18,1.64-.53Z"/><path class="e" d="M134.54,361.78v-16.34l3-.15,.11,.76-1.49,.42v14.28l1.49,.44-.11,.73-3-.15Z"/><path class="e" d="M163.57,361.19l1.49-.44v-14.28l-1.49-.42,.1-.76,3,.15v16.34l-3,.15-.1-.73Z"/><path class="e" d="M197.86,353.26l-.38,2.33h2.35l-.23,1.45h-2.35l-.42,2.54h-1.09l.42-2.54h-2.35l-.42,2.54h-1.09l.42-2.54h-2.39l.23-1.45h2.39l.38-2.33h-2.35l.23-1.45h2.37l.42-2.6h1.09l-.42,2.6h2.35l.42-2.6h1.09l-.42,2.6h2.37l-.23,1.45h-2.39Zm-1.09,0h-2.35l-.38,2.33h2.35l.38-2.33Z"/><path class="e" d="M225.08,361.78v-6.66l-1.47-.99v-.71l1.47-.99v-6.99l3-.15,.11,.76-1.49,.42v6.3l-1.64,.95,1.64,1.07v5.96l1.49,.44-.11,.73-3-.15Z"/><path class="e" d="M253.03,361.19l1.49-.44v-5.96l1.64-1.07-1.64-.95v-6.3l-1.49-.42,.1-.76,3,.15v6.99l1.47,.99v.71l-1.47,.99v6.66l-3,.15-.1-.73Z"/><path class="e" d="M10.55,392.96c-.89-.55-1.6-1.39-2.15-2.51-.55-1.13-.81-2.53-.78-4.19,.03-1.9,.37-3.57,1.01-5.01,.64-1.44,1.57-2.55,2.78-3.33,1.21-.78,2.66-1.16,4.33-1.13,4.82,.08,7.19,2.17,7.12,6.27-.02,1.04-.18,2.09-.48,3.15-.31,1.07-.65,2.02-1.03,2.87-.38,.85-.57,1.24-.57,1.19-.67,.09-1.34,.16-1.99,.22-.65,.06-1.12,.09-1.4,.1-.06,0-.19-.1-.39-.3-.21-.2-.31-.33-.31-.4v-.82l-.62,.47c-.92,.67-1.42,1-1.49,1-.56,0-1.09-.18-1.58-.52-.49-.34-.89-.84-1.19-1.51-.3-.67-.45-1.5-.43-2.48,.01-.63,.07-1.24,.18-1.84,.11-.6,.24-1.07,.4-1.4,.14-.21,.43-.48,.87-.8,.43-.33,.86-.61,1.3-.86,.43-.24,.73-.37,.9-.36,.28,0,1.5,.19,3.67,.55l-.13,7.81,1.45,.23c.3-.92,.53-1.92,.71-3.01,.18-1.09,.28-2.04,.29-2.85,.03-1.82-.39-3.17-1.25-4.05-.87-.88-2.2-1.34-3.99-1.37-.7-.01-1.45,.08-2.24,.28-.79,.2-1.51,.48-2.15,.85-.27,.26-.55,.78-.84,1.55-.29,.77-.54,1.63-.73,2.57-.19,.94-.29,1.79-.31,2.55-.02,1.43,.07,2.61,.29,3.55s.69,1.71,1.43,2.29c.74,.59,1.84,.89,3.31,.92,.38,0,1.02-.01,1.91-.05l.11,.88c-.45,.1-.97,.19-1.57,.27-.6,.07-1.15,.11-1.65,.1-.97-.02-1.89-.3-2.78-.85Zm6.11-4.79l.1-5.77c-.39-.1-.82-.2-1.28-.28-.46-.08-.8-.13-1.01-.13-.67-.01-1.03,1.26-1.07,3.8-.01,.71,.06,1.31,.21,1.79,.15,.48,.34,.83,.55,1.06,.21,.23,.4,.34,.57,.35,.14,0,.78-.27,1.93-.81Z"/><path class="e" d="M47.26,375.93h1.3l-4.26,16.9h-1.3l4.26-16.9Z"/><path class="e" d="M72.51,375.93h1.43l4.26,16.9h-1.43l-4.26-16.9Z"/><path class="e" d="M104.51,376.22h1.37v18.25h-1.37v-18.25Z"/><path class="e" d="M141.63,389.41v.94h-2.02c-.15,0-.8-.59-1.95-1.79l-.29,.5c-.24,.25-.73,.56-1.47,.92s-1.28,.55-1.62,.55c-1.01,0-1.92-.26-2.74-.78s-1.23-1.4-1.23-2.65c0-.77,.24-1.5,.72-2.19,.48-.69,1.05-1.28,1.69-1.77-.69-.84-1.03-1.76-1.03-2.77,0-.15,.01-.34,.04-.57,.03-.22,.08-.4,.15-.52,.13-.22,.51-.57,1.14-1.05,.64-.48,1.05-.71,1.23-.71,.91,0,1.63,.15,2.15,.46,.53,.31,.79,.77,.79,1.39,0,.36-.04,.78-.12,1.24s-.12,.72-.14,.78h-1.07l-.11-1.68c-.01-.45-.21-.73-.6-.84-.38-.11-.86-.17-1.42-.17-.15,0-.29,.1-.4,.3-.11,.2-.17,.45-.17,.75,0,.42,.07,.82,.22,1.2,.15,.38,.4,.77,.75,1.18,.6,.71,1.77,1.99,3.51,3.82,.36-.62,.69-1.22,.97-1.81l-1.37-.4v-.8h3.84v.97l-.8,.19c-.39,.62-.96,1.56-1.7,2.83l2.14,2.21,.88,.27Zm-4.91-1.85l-3.34-3.67c-.35,.41-.61,.88-.79,1.41-.17,.53-.26,1.06-.26,1.6,0,.83,.21,1.42,.63,1.78,.42,.36,.95,.55,1.6,.55,.35,0,.66-.04,.92-.1,.21-.06,.62-.57,1.24-1.55Z"/><path class="e" d="M161.12,386.3v-1.89l8.59-3.68v1.51l-7.64,3.11,7.64,3.11v1.51l-8.59-3.68Z"/><path class="e" d="M192.85,384.5h5.21v1.47h-5.21v-1.47Z"/><path class="e" d="M221.24,391.87h9.34v.94h-9.34v-.94Z"/><path class="e" d="M259.83,385.65h-3.74v4.01h-1.55v-4.01h-3.72v-1.26h3.72v-3.99h1.55v3.99h3.74v1.26Z"/><path class="e" d="M11.08,419.1l8.17,.14-.02,1.26-8.17-.14,.02-1.26Zm8.26-5.59l-.02,1.26-3.32-.06-.05,3.17-1.55-.03,.05-3.17-3.3-.06,.02-1.26,3.3,.06,.05-3.15,1.55,.03-.05,3.15,3.32,.06Z"/><path class="e" d="M43.77,415.67v-.78l2.94-3.17,.67,.48-1.7,3.02v.13l1.62,3.23-.67,.53-2.86-3.44Z"/><path class="e" d="M77.83,407.41h1.3l-6.26,13.02h-1.3l6.26-13.02Z"/><path class="e" d="M101,412.73h8.38v1.26h-8.38v-1.26Zm0,3.78h8.38v1.26h-8.38v-1.26Z"/><path class="e" d="M131.42,414.45l3.4-6.87h1.97l3.42,6.87-1.07,.52-3.34-6.51-3.32,6.51-1.07-.52Z"/><path class="e" d="M161.01,414.39h8.8v1.26h-8.8v-1.26Zm3.61-2.22c-.18-.17-.27-.3-.27-.39l-.04-1.74c.27-.07,.55-.13,.85-.18,.3-.05,.51-.07,.64-.07,.07,0,.2,.09,.39,.27,.19,.18,.28,.31,.28,.38l-.13,1.74c-.28,.07-.54,.13-.78,.17-.24,.04-.42,.07-.55,.08-.08,0-.22-.09-.4-.26Zm0,8.02c-.18-.17-.27-.3-.27-.39l-.04-1.74c.27-.07,.55-.13,.85-.18,.3-.05,.51-.07,.64-.07,.07,0,.2,.09,.39,.27,.19,.18,.28,.31,.28,.38l-.13,1.74c-.28,.07-.54,.13-.78,.17-.24,.04-.42,.07-.55,.08-.08,0-.22-.09-.4-.26Z"/><path class="e" d="M196.52,415.23l2.56,2.58-1.09,1.09-2.56-2.58-2.58,2.62-1.01-.99,2.6-2.62-2.58-2.6,1.09-1.09,2.56,2.58,2.58-2.6,.99,1.01-2.56,2.6Z"/><path class="e" d="M223.03,414.49c-.85-.49-1.52-1.16-2-2.01-.48-.85-.71-1.8-.71-2.85s.24-2,.71-2.85c.48-.85,1.14-1.52,2-2.01,.85-.49,1.81-.73,2.88-.73s2.02,.25,2.88,.73c.85,.49,1.52,1.16,2,2.01,.48,.85,.71,1.8,.71,2.85s-.24,2-.71,2.85c-.48,.85-1.14,1.52-2,2.01-.85,.49-1.81,.73-2.88,.73s-2.02-.24-2.88-.73Zm6.01-1.65c.77-.81,1.16-1.87,1.16-3.2,0-.84-.18-1.6-.53-2.27s-.85-1.2-1.49-1.59c-.64-.38-1.4-.58-2.27-.58-1.32,0-2.36,.4-3.13,1.21-.77,.81-1.16,1.88-1.16,3.22,0,.84,.17,1.59,.51,2.26,.34,.67,.84,1.19,1.49,1.58,.65,.39,1.41,.58,2.28,.58,1.32,0,2.36-.4,3.13-1.21Zm-5.33-.77l.57-.17v-4.49l-.57-.17v-.5h2.52c.62,0,1.06,.15,1.34,.46,.28,.31,.42,.69,.42,1.15,0,.52-.11,.92-.34,1.21-.22,.29-.48,.49-.78,.6v.1l.88,1.58,.48,.13v.55h-1.2l-1.03-2.23h-.71v1.55l.61,.13v.55h-2.21v-.44Zm2.39-2.48c.31,0,.51-.06,.61-.18,.1-.12,.15-.39,.15-.81,0-.48-.03-.81-.09-1.01-.06-.2-.21-.29-.45-.29l-.92,.13v2.16h.71Z"/><path class="e" d="M251.68,417.38c-1.08-.61-1.92-1.45-2.53-2.53-.61-1.08-.91-2.3-.91-3.65s.3-2.58,.91-3.65c.61-1.08,1.45-1.92,2.53-2.53,1.08-.61,2.3-.91,3.65-.91s2.58,.3,3.65,.91c1.08,.61,1.92,1.45,2.53,2.53,.61,1.08,.91,2.3,.91,3.65s-.3,2.58-.91,3.65-1.45,1.92-2.53,2.53c-1.08,.61-2.3,.91-3.65,.91s-2.58-.3-3.65-.91Zm6.67-1.01c.86-.5,1.53-1.19,2-2.09,.47-.9,.7-1.92,.7-3.09s-.23-2.19-.7-3.09c-.47-.9-1.13-1.59-2-2.09-.86-.5-1.87-.75-3.01-.75s-2.15,.25-3.01,.75c-.86,.5-1.53,1.19-2,2.09-.47,.9-.7,1.93-.7,3.09s.23,2.19,.7,3.09c.47,.9,1.13,1.59,2,2.09,.86,.5,1.87,.75,3.01,.75s2.15-.25,3.01-.75Zm-4.59-1.92c-.39-.27-.71-.68-.97-1.23-.25-.55-.38-1.23-.38-2.03s.11-1.58,.32-2.31c.25-.32,.67-.68,1.25-1.07,.58-.39,.98-.59,1.21-.59,.21,0,.51,.01,.91,.04,.4,.03,.79,.06,1.19,.08l-.19,2.42h-.76l-.17-1.37c-.11-.01-.37-.06-.78-.14-.41-.08-.71-.12-.9-.12-.17,0-.32,.26-.44,.79s-.19,1.12-.19,1.77c0,1.19,.15,2.01,.44,2.47,.29,.46,.7,.68,1.22,.68l1.68-.21,.11,.69c-.35,.1-.8,.21-1.34,.33-.55,.12-.88,.18-.99,.18-.42,0-.83-.13-1.22-.4Z"/><path class="e" d="M15.79,443.01c1.05,.51,1.89,1,2.51,1.48,.61,.48,.92,1.05,.9,1.73,0,.49-.05,.88-.12,1.17-.19,.35-.49,.71-.89,1.09-.41,.38-.84,.69-1.3,.94-.46,.25-.84,.37-1.15,.37l-.03,1.95-1.22-.02,.03-1.97c-1.33-.08-2.39-.15-3.17-.22l.16-3.21,1.16,.02,.22,1.73c1.12,.26,2.19,.39,3.23,.41,.18,0,.35-.11,.5-.33s.27-.47,.36-.76,.13-.51,.14-.68c0-.36-.21-.7-.63-1-.43-.3-1.21-.72-2.33-1.26-.97-.46-1.66-.93-2.06-1.39-.4-.46-.59-.98-.58-1.55,0-.39,.05-.74,.12-1.05,.14-.31,.41-.67,.79-1.08,.39-.41,.8-.77,1.25-1.06,.45-.29,.83-.44,1.15-.43l.04-2.16,1.22,.02-.04,2.18c.81,.04,1.71,.12,2.68,.23l-.28,3.17-1.13-.02-.16-1.81c-1.44-.28-2.4-.42-2.89-.43-.24,0-.45,.13-.64,.41-.19,.28-.28,.62-.29,1.02,0,.38,.05,.69,.18,.93,.13,.24,.32,.45,.59,.63,.26,.18,.64,.4,1.14,.66l.54,.28Z"/><path class="e" d="M43.63,448.63c-.71-.76-1.16-1.81-1.32-3.15h-1.6l.11-1.05h1.41l.02-1.03h-1.53l.11-1.03h1.49c.11-.95,.37-1.76,.77-2.44,.4-.67,.88-1.18,1.45-1.52,.57-.34,1.17-.51,1.8-.51s1.97,.17,4.07,.52l-.19,2.83h-1.09l-.17-1.91h-2.23c-.8,0-1.39,.26-1.79,.79-.39,.52-.59,1.27-.59,2.24h4.49l-.1,1.03h-4.47v1.03h4.58l-.1,1.05h-4.37c-.01,.85,.18,1.54,.58,2.05,.4,.51,.99,.77,1.77,.77h2.33l.21-1.91h1.11l.13,2.88c-2.25,.34-3.7,.5-4.35,.5-.97,0-1.81-.38-2.52-1.13Z"/><path class="e" d="M79.87,449.58h-5.78c-.63,0-1.4,.08-2.31,.25l-.44,.06-.27-1.11c.45-.11,.77-.26,.98-.43,.2-.17,.34-.43,.4-.77,.06-.34,.09-.86,.09-1.57l-.02-1.89h-1.51l.11-1.03h1.41c.01-1.44,.1-2.52,.26-3.24s.44-1.23,.84-1.52c.4-.29,1-.44,1.8-.44,.46,0,1.17,.04,2.12,.13s1.6,.15,1.95,.21l-.23,3.07h-1.13l-.19-1.91c-.32-.04-.82-.1-1.48-.17-.67-.07-1.08-.1-1.25-.1-.21,0-.37,.11-.47,.33-.1,.22-.17,.6-.21,1.14-.04,.55-.05,1.39-.05,2.52h2.79l-.1,1.03h-2.71c-.03,1.15-.1,2.01-.22,2.59-.12,.58-.32,1.05-.6,1.4l4.68,.44,.31-2.16h1.16l.08,3.19Z"/><path class="e" d="M102.89,448.78l1.41-.42v-2.35h-3.07l.11-1.03h2.94l-.57-1.05h-2.48l.11-1.03h1.93l-2.23-3.59-1.3-.42v-.8h4.81v.97l-1.43,.36,2.21,3.89h.19l1.93-3.89-1.45-.36v-.97h4.64v.8l-1.3,.42-2.25,3.59h2.16l-.11,1.03h-2.54l-.4,.78v.27h3.04l-.11,1.03h-2.94v2.35l1.37,.42v.8h-4.68v-.8Z"/><path class="e" d="M135.34,445.99c.16,.48,.35,.83,.58,1.05,.22,.22,.44,.34,.65,.34h2.37v.88c-.45,.14-1.04,.29-1.79,.46v1.95h-1.09v-1.76c-.5-.01-.98-.18-1.44-.5-.46-.32-.83-.82-1.11-1.49s-.43-1.49-.43-2.46c0-.69,.05-1.33,.14-1.93,.09-.6,.21-1.04,.37-1.32,.17-.24,.5-.55,1-.92,.5-.38,.96-.68,1.4-.9v-1.91h1.07v1.68c.59,.04,1.22,.17,1.89,.38l-.06,2.69h-1.28l-.29-1.45c-.17-.08-.38-.16-.63-.23-.25-.07-.48-.1-.67-.1-.13,0-.22,.03-.29,.08-.2,.15-.35,.57-.45,1.24-.11,.67-.16,1.48-.16,2.44,0,.73,.08,1.33,.24,1.81Z"/><path class="e" d="M164.63,442.03c-.18-.18-.27-.3-.27-.39l-.04-1.74c.27-.07,.55-.13,.85-.18,.3-.05,.51-.07,.64-.07,.07,0,.2,.09,.39,.27,.19,.18,.28,.31,.28,.38l-.13,1.74c-.28,.07-.54,.13-.78,.17s-.42,.07-.55,.08c-.08,0-.22-.09-.4-.26Zm0,7.5c-.18-.17-.27-.3-.27-.39l-.04-1.74c.27-.07,.55-.13,.85-.18,.3-.05,.51-.07,.64-.07,.07,0,.2,.09,.39,.27,.19,.18,.28,.31,.28,.38l-.13,1.74c-.28,.07-.54,.13-.78,.17s-.42,.07-.55,.08c-.08,0-.22-.09-.4-.26Z"/><path class="e" d="M194.22,451.8c.11-.24,.26-.6,.45-1.07s.32-.83,.39-1.07c-.03-.01-.11-.06-.23-.15s-.19-.16-.19-.23l.06-1.83c.7-.08,1.2-.13,1.49-.13,.06,0,.15,.07,.29,.22s.21,.26,.21,.33v1.05c0,.27-.18,.74-.55,1.42-.36,.68-.75,1.29-1.16,1.84l-.78-.38Zm.46-9.78c-.18-.18-.27-.3-.27-.39l-.04-1.74c.27-.07,.55-.13,.85-.18,.3-.05,.51-.07,.64-.07,.07,0,.2,.09,.39,.27,.19,.18,.28,.31,.28,.38l-.13,1.74c-.28,.07-.54,.13-.78,.17s-.42,.07-.55,.08c-.08,0-.22-.09-.4-.26Z"/><path class="e" d="M225.14,449.52c-.18-.17-.27-.3-.27-.39l-.04-1.74c.27-.07,.55-.13,.85-.18,.3-.05,.51-.07,.64-.07,.07,0,.2,.09,.39,.27,.19,.18,.28,.31,.28,.38l-.13,1.74c-.28,.07-.54,.13-.78,.17s-.42,.07-.55,.08c-.08,0-.22-.09-.4-.26Z"/><path class="e" d="M254.72,441.24l.31-2.1-1.68,1.3-.4-.08-.5-1.05,2.16-.9-2.16-.9,.5-1.05,.4-.08,1.68,1.32-.31-2.33,1.18-.08,.27,.29-.31,2.12,1.68-1.32,.4,.08,.5,1.05-2.18,.9,2.18,.9-.5,1.05-.4,.08-1.68-1.32,.31,2.33-1.18,.08-.27-.29Z"/><path class="e" d="M10.88,478.28l7.69-2.98-7.59-3.24,.03-1.51,8.52,3.82-.03,1.89-8.65,3.53,.03-1.51Z"/><path class="e" d="M41.49,477.83l7.64-3.11-7.64-3.11v-1.51l8.59,3.68v1.89l-8.59,3.68v-1.51Zm0,1.97h8.59v1.26h-8.59v-1.26Z"/><path class="e" d="M68.73,474.43l.9-.29v-5.67l-1.47,.06-.15,1.83h-.73l-.19-2.77h6.47l-.19,2.77h-.74l-.15-1.83-1.47-.06v5.69l.88,.27v.57h-3.17v-.57Zm5.56,0l1.01-.31,.21-5.63-.86-.23-.02-.67h2.81l1.41,5.23h.13l1.55-5.23h2.75l.04,.67-.88,.25,.27,5.63,.88,.29,.02,.57h-3.17l-.02-.57,.92-.31-.11-4.43h-.08l-.44,1.62-.94,3.11-1.41,.17s-.09-.03-.19-.08l-.97-3.13c-.13-.41-.27-.97-.44-1.68h-.08l-.21,4.41,.99,.34,.02,.57h-3.17l-.02-.57Z"/><path class="e" d="M101.07,474.03v-.19l3.88-6.26h.46l3.91,6.26v.19l-3.91,6.26h-.46l-3.88-6.26Zm4.2,4.18l2.44-4.22v-.1l-2.44-4.22h-.17l-2.54,4.22v.1l2.54,4.22h.17Z"/><path class="e" d="M134.16,468.85c-.36-.34-.54-.91-.54-1.69,0-.67,.19-1.2,.58-1.58,.38-.38,.92-.57,1.61-.57s1.26,.18,1.64,.52c.38,.35,.57,.91,.57,1.68,0,.67-.2,1.2-.6,1.58-.4,.38-.95,.57-1.65,.57s-1.25-.17-1.61-.51Zm2.49-.58c.06-.31,.08-.65,.08-1.03,0-.53-.07-.89-.21-1.08-.14-.19-.38-.28-.71-.28-.15,0-.29,.02-.41,.05-.12,.04-.26,.09-.41,.18-.06,.31-.08,.65-.08,1.03,0,.55,.06,.91,.19,1.09,.13,.18,.35,.27,.67,.27,.28,0,.57-.08,.88-.23Z"/><path class="e" d="M161.64,475.67v-.78l2.94-3.17,.67,.48-1.7,3.02v.13l1.62,3.23-.67,.53-2.86-3.44Zm3.51,0v-.78l2.94-3.17,.67,.48-1.7,3.02v.13l1.64,3.23-.67,.53-2.88-3.44Z"/><path class="e" d="M192.17,478.58l1.64-3.23v-.13l-1.7-3.02,.67-.48,2.94,3.17v.78l-2.88,3.44-.67-.53Zm3.53,0l1.62-3.23v-.13l-1.7-3.02,.67-.48,2.94,3.17v.78l-2.86,3.44-.67-.53Z"/><path class="e" d="M217.62,474.39h16.59v1.26h-16.59v-1.26Z"/><path class="e" d="M253.87,475.97c-.4-.37-.6-.87-.6-1.5s.2-1.13,.6-1.5c.4-.37,.88-.56,1.46-.56s1.06,.19,1.46,.56c.4,.37,.6,.87,.6,1.5s-.2,1.13-.6,1.5c-.4,.37-.89,.56-1.46,.56s-1.06-.19-1.46-.56Z"/><g><path class="e" d="M123.6,8.86c-.64-.08-1.11-.16-1.42-.24l.13-1.02,1.74-1.57c-.25,0-.51-.11-.76-.34-.26-.22-.47-.55-.64-.97-.17-.42-.25-.91-.25-1.48,0-.3,.03-.62,.08-.97,.05-.35,.12-.63,.22-.83,.15-.21,.49-.49,1.02-.85s.88-.54,1.04-.54c.09,0,.42,.04,.99,.13,.56,.08,1,.15,1.32,.2V6.75c0,.29-.12,.61-.37,.96-.25,.35-.53,.65-.85,.9-.32,.25-.58,.38-.78,.38-.33,0-.81-.04-1.45-.13Zm2.12-1.19c.07-.45,.1-.92,.1-1.43v-.7l-.07-.03c-.51,.47-1.14,1.05-1.88,1.75-.21,.21-.41,.4-.57,.55v.08c.15,.07,.5,.16,1.06,.27,.55,.12,.93,.18,1.11,.18,.1,0,.19-.22,.25-.67Zm.06-2.9V1.13c-.2-.07-.43-.13-.71-.18-.28-.06-.5-.08-.64-.08-.07,0-.12,0-.14,.01-.37,.13-.56,.92-.56,2.38,0,.5,.06,.92,.18,1.24,.12,.32,.26,.55,.43,.69s.31,.2,.43,.2c.09,0,.43-.21,1.02-.62Z"/><path class="e" d="M129.54,6.26c-.35-.21-.64-.55-.86-.99-.22-.45-.33-1-.33-1.65,0-.47,.03-.9,.09-1.3,.06-.4,.14-.69,.25-.88,.09-.14,.29-.33,.58-.56s.59-.44,.9-.62c.3-.18,.51-.27,.62-.27,.5,0,.91,.08,1.23,.24,.31,.16,.55,.46,.73,.91,.17,.45,.26,1.09,.26,1.93l-3.3,.28c0,.56,.07,1.01,.22,1.34,.15,.33,.32,.56,.53,.69,.2,.13,.38,.2,.55,.2l.66-.03,1.15-.04v.57c-.35,.11-.75,.22-1.23,.33-.47,.11-.77,.16-.9,.16-.4,0-.78-.11-1.13-.32Zm2.1-3.72c0-.56-.08-.98-.22-1.27s-.4-.43-.74-.43c-.21,0-.38,.03-.53,.1-.12,.06-.22,.27-.3,.64-.08,.37-.12,.77-.12,1.2l1.92-.25Z"/><path class="e" d="M134.66,6.38c-.14-.13-.2-.22-.2-.27V1.01l-.49-.21V.28c.77-.14,1.19-.21,1.27-.21,.05,0,.13,.06,.26,.19s.19,.21,.19,.26v.53c.28-.21,.58-.42,.9-.64,.32-.22,.5-.34,.54-.34,.67,0,1.18,.17,1.51,.52s.5,.96,.5,1.83v3.21l.49,.21v.52c-.78,.15-1.2,.22-1.27,.22-.05,0-.14-.07-.28-.2-.14-.13-.21-.22-.21-.27V2.42c0-.58-.08-.94-.25-1.09-.17-.15-.35-.22-.56-.22-.1,0-.33,.08-.69,.25-.36,.16-.57,.26-.64,.29v3.99l.48,.21v.52c-.77,.15-1.19,.22-1.27,.22-.05,0-.14-.07-.27-.2Z"/><path class="e" d="M140.8,6.15c-.07-.15-.12-.26-.15-.34,.44-.71,.95-1.59,1.53-2.63l1.12-1.96-.03-.17-1.54-.08-.13,.92h-.73l-.11-1.71h3.85c.17,.27,.28,.48,.32,.63-.78,1.41-1.65,2.92-2.59,4.52v.2l1.88,.08,.17-1.18h.71l.04,2.02h-4.17c-.05-.06-.1-.16-.17-.3Z"/><path class="e" d="M147.35,6.26c-.35-.21-.64-.55-.86-.99-.22-.45-.33-1-.33-1.65,0-.47,.03-.9,.09-1.3,.06-.4,.14-.69,.25-.88,.09-.14,.29-.33,.58-.56s.59-.44,.9-.62c.3-.18,.51-.27,.62-.27,.5,0,.91,.08,1.23,.24,.31,.16,.55,.46,.73,.91,.17,.45,.26,1.09,.26,1.93l-3.3,.28c0,.56,.07,1.01,.22,1.34,.15,.33,.32,.56,.53,.69,.2,.13,.38,.2,.55,.2l.66-.03,1.15-.04v.57c-.35,.11-.75,.22-1.23,.33-.47,.11-.77,.16-.9,.16-.4,0-.78-.11-1.13-.32Zm2.1-3.72c0-.56-.08-.98-.22-1.27s-.4-.43-.74-.43c-.21,0-.38,.03-.53,.1-.12,.06-.22,.27-.3,.64-.08,.37-.12,.77-.12,1.2l1.92-.25Z"/></g></g></g></svg>