<svg xmlns="http://www.w3.org/2000/svg" viewBox="0 0 321 155"><defs><style>.cls-1{fill:#002e63;}.cls-2{fill:#fff;}.cls-3,.cls-4{fill:none;stroke:#002e63;stroke-miterlimit:10;}.cls-3{stroke-width:3px;}</style></defs><g id="Calque_2" data-name="Calque 2"><g id="Calque_6" data-name="Calque 6"><rect class="cls-1" width="321" height="155"/><rect class="cls-2" x="61.5" y="2.55" width="197" height="149.95"/><path class="cls-1" d="M256,5.05V150H64V5.05H256m5-5H59V155H261V.05Z"/><polyline class="cls-3" points="60.5 153.5 60.5 122.55 259.5 122.55 259.5 153.5"/></g><g id="text"><line class="cls-4" x1="60.5" y1="123.05" x2="259.5" y2="123.05"/><path class="cls-1" d="M91.94,20.86,89.32,36.23l2.19.47L91,39.58H80.1l.4-2.6,2.23-.46,2.7-16-2.05-.47.39-2.59h11l-.47,2.88Z"/><path class="cls-1" d="M118.76,20.1l-2.19.5-3.21,18.72-5.4.51-1-.65L105,34q-1.77-4.55-2.16-6.09h-.47l-1,8.21,2.45.58-.47,2.88H92.88l.4-2.6,2.23-.46,2.73-16-2.08-.4.39-2.59H105l2,6.66.83,2.55c.51,1.44.88,2.58,1.12,3.42h.43l1.44-9.21-2.48-.54.46-2.88h10.3Z"/><path class="cls-1" d="M131.25,25.5l.33-4.5a29.93,29.93,0,0,0-3.92-.43.8.8,0,0,0-.72.32,2.15,2.15,0,0,0-.22,1.15,3,3,0,0,0,.63,1.82,14,14,0,0,0,1.82,1.93l1.26,1.08a21.34,21.34,0,0,1,3,3,4.67,4.67,0,0,1,1.05,3,7.07,7.07,0,0,1-.17,1.41,5.67,5.67,0,0,1-.37,1.26,8.16,8.16,0,0,1-2.11,1.91,21.58,21.58,0,0,1-3.11,1.76,6.62,6.62,0,0,1-2.27.72c-3.08,0-6-.12-8.72-.36l1.7-8.68h3.34L122.44,36a35.33,35.33,0,0,0,4.17.28,1.09,1.09,0,0,0,.87-.59,2,2,0,0,0,.39-1.06,3,3,0,0,0-.77-2,18.66,18.66,0,0,0-2.4-2.19c-1-.82-1.78-1.48-2.32-2A7.91,7.91,0,0,1,121,26.6a4.64,4.64,0,0,1-.61-2.36,9,9,0,0,1,.57-2.81,7.77,7.77,0,0,1,2.13-1.8,27,27,0,0,1,3.33-1.82A7.36,7.36,0,0,1,128.7,17c.36,0,1.38.07,3.06.2s3.17.26,4.46.38L134.6,25.5Z"/><path class="cls-1" d="M155.11,18.7a4.09,4.09,0,0,1,1.53,3.42,12.19,12.19,0,0,1-1,4.95,9.43,9.43,0,0,1-2.92,3.76,7,7,0,0,1-4.37,1.44h-3.38l-.69,3.85,3.46.58-.47,2.88H135l.39-2.6,2.23-.46,2.7-16-2.05-.47.4-2.59h12.56A6,6,0,0,1,155.11,18.7ZM149.4,27a14.1,14.1,0,0,0,.61-4.5,3.41,3.41,0,0,0-.34-1.8,1.2,1.2,0,0,0-1.06-.5,15.26,15.26,0,0,0-1.69.39l-1.41,8.21h1.19A2.56,2.56,0,0,0,149.4,27Z"/><path class="cls-1" d="M167.25,20.86l-2.62,15.37,2.19.47-.47,2.88H155.41l.4-2.6,2.23-.46,2.7-16-2.05-.47.39-2.59H170l-.47,2.88Z"/><path class="cls-1" d="M187.77,36l2.06,1-.36,2.6h-8l-1.76-8.64h-1.44l-.9,5.32,2,.44L179,39.58H168.19l.4-2.6,2.23-.46,2.7-16-2.05-.47.39-2.59h12.89a6.26,6.26,0,0,1,3.75,1,3.67,3.67,0,0,1,1.4,3.15,10.36,10.36,0,0,1-1.15,4.74,8.59,8.59,0,0,1-3.13,3.47l0,.36Q186.48,32.95,187.77,36Zm-8.85-8.54h1a2.67,2.67,0,0,0,2.59-1.35,7.69,7.69,0,0,0,.72-3.61,3.45,3.45,0,0,0-.32-1.75,1.16,1.16,0,0,0-1.08-.52,12.36,12.36,0,0,0-1.8.39Z"/><path class="cls-1" d="M205.92,25.75l.21-5.18-4.82.47-.9,5.32,4.25.18-.58,3.35-4.32.18-1,5.87,4.79.47L205,31.12h3.21l-1.26,8.46H189.5l.43-2.6,2.2-.46,2.7-15.92-2.05-.5.39-2.59h17.28l-1.33,8.24Z"/><path class="cls-1" d="M102.89,70l-.4,2.6H91.73l.47-2.88,2.23-.47-.18-2.7H88.56l-1,2.59,2.73.58-.46,2.88H79.09l.4-2.6,2.59-.54,9.43-18.93,6.55-.33.69.69,2.09,18.65Zm-13-6.8H94l-.44-7.81h-.32Z"/><path class="cls-1" d="M129.35,53.1l-2.2.5L124,72.32l-5.4.51-1-.65-2-5.18q-1.77-4.55-2.16-6.09h-.47l-1,8.21,2.45.58-.47,2.88H103.46l.4-2.6,2.23-.46,2.74-16-2.09-.4.4-2.59h8.46l2.05,6.66.83,2.55q.75,2.16,1.11,3.42H120l1.44-9.21L119,53.39l.47-2.88h10.29Z"/><path class="cls-1" d="M149,52.22a7.19,7.19,0,0,1,1.67,5.2,24,24,0,0,1-1.08,7.16,14.2,14.2,0,0,1-3.24,5.75,6.9,6.9,0,0,1-5.15,2.25H127.8l.4-2.6,2.23-.5,2.73-15.91-2.08-.47.39-2.59h13.36A5.6,5.6,0,0,1,149,52.22Zm-7.55,15.23a19,19,0,0,0,1.73-5.1,27.44,27.44,0,0,0,.61-5.51,5.85,5.85,0,0,0-.46-2.8,1.68,1.68,0,0,0-1.55-.76,15,15,0,0,0-2.09.36L137,69.3a13.92,13.92,0,0,0,1.83.25C139.83,69.55,140.7,68.85,141.44,67.45Z"/><path class="cls-1" d="M176.2,62.51a3.62,3.62,0,0,1,1,2.65,7.58,7.58,0,0,1-1,3.85,6.52,6.52,0,0,1-2.79,2.63,9.23,9.23,0,0,1-4.26.94H156.31l.4-2.63,2.23-.47,2.7-15.91-2-.47.39-2.59h12.39a6.36,6.36,0,0,1,3.79,1.06,3.5,3.5,0,0,1,1.5,3,6.06,6.06,0,0,1-4.14,6.3l0,.25A5.12,5.12,0,0,1,176.2,62.51Zm-6.39,5.67a8.2,8.2,0,0,0,.68-3.38,1.49,1.49,0,0,0-.3-1,1.18,1.18,0,0,0-.76-.38,12.34,12.34,0,0,0-1.46-.06h-1.44l-1,6a13.81,13.81,0,0,0,2.23.43A2.2,2.2,0,0,0,169.81,68.18Zm.63-9.59a8.61,8.61,0,0,0,.67-3.73,2.57,2.57,0,0,0-.29-1.33,1,1,0,0,0-.87-.47,11.73,11.73,0,0,0-1.72.44l-1.12,6.44h.47C169,59.94,170,59.49,170.44,58.59Z"/><path class="cls-1" d="M194.11,58.75l.22-5.18L189.5,54l-.9,5.32,4.25.18-.58,3.35-4.32.18-1,5.87,4.78.47,1.44-5.29h3.21l-1.26,8.46H177.69l.44-2.6,2.19-.46L183,53.6,181,53.1l.4-2.59h17.28l-1.34,8.24Z"/><path class="cls-1" d="M91.94,86.86l-2.62,15.37,2.19.47L91,105.58H80.1l.4-2.6,2.23-.46,2.7-16-2.05-.47.39-2.59h11l-.47,2.88Z"/><path class="cls-1" d="M118.76,86.1l-2.19.5-3.21,18.72-5.4.51-1-.65L105,100q-1.77-4.55-2.16-6.09h-.47l-1,8.21,2.45.58-.47,2.88H92.88l.4-2.6,2.23-.46,2.73-16-2.08-.4.39-2.59H105l2,6.66.83,2.55c.51,1.44.88,2.58,1.12,3.42h.43l1.44-9.21-2.48-.54.46-2.88h10.3Z"/><path class="cls-1" d="M131.25,91.5l.33-4.5a29.93,29.93,0,0,0-3.92-.43.8.8,0,0,0-.72.32,2.15,2.15,0,0,0-.22,1.15,3,3,0,0,0,.63,1.82,14,14,0,0,0,1.82,1.93l1.26,1.08a21.34,21.34,0,0,1,3,3,4.67,4.67,0,0,1,1.05,3,7.07,7.07,0,0,1-.17,1.41,5.67,5.67,0,0,1-.37,1.26,8.16,8.16,0,0,1-2.11,1.91,21.58,21.58,0,0,1-3.11,1.76,6.62,6.62,0,0,1-2.27.72c-3.08,0-6-.12-8.72-.36l1.7-8.68h3.34l-.35,5.12a35.33,35.33,0,0,0,4.17.28,1.09,1.09,0,0,0,.87-.59,2,2,0,0,0,.39-1.06,3,3,0,0,0-.77-2,18.66,18.66,0,0,0-2.4-2.19c-1-.82-1.78-1.48-2.32-2A7.91,7.91,0,0,1,121,92.6a4.64,4.64,0,0,1-.61-2.36,9,9,0,0,1,.57-2.81,7.77,7.77,0,0,1,2.13-1.8,27,27,0,0,1,3.33-1.82A7.36,7.36,0,0,1,128.7,83c.36,0,1.38.07,3.06.2s3.17.26,4.46.38L134.6,91.5Z"/><path class="cls-1" d="M155.11,84.7a4.09,4.09,0,0,1,1.53,3.42,12.19,12.19,0,0,1-1,4.95,9.43,9.43,0,0,1-2.92,3.76,7,7,0,0,1-4.37,1.44h-3.38l-.69,3.85,3.46.58-.47,2.88H135l.39-2.6,2.23-.46,2.7-16-2.05-.47.4-2.59h12.56A6,6,0,0,1,155.11,84.7ZM149.4,93a14.1,14.1,0,0,0,.61-4.5,3.41,3.41,0,0,0-.34-1.8,1.2,1.2,0,0,0-1.06-.5,15.26,15.26,0,0,0-1.69.39l-1.41,8.21h1.19A2.56,2.56,0,0,0,149.4,93Z"/><path class="cls-1" d="M167.25,86.86l-2.62,15.37,2.19.47-.47,2.88H155.41l.4-2.6,2.23-.46,2.7-16-2.05-.47.39-2.59H170l-.47,2.88Z"/><path class="cls-1" d="M187.77,102l2.06,1-.36,2.6h-8l-1.76-8.64h-1.44l-.9,5.32,2,.44-.46,2.88H168.19l.4-2.6,2.23-.46,2.7-16-2.05-.47.39-2.59h12.89a6.26,6.26,0,0,1,3.75,1,3.67,3.67,0,0,1,1.4,3.15,10.36,10.36,0,0,1-1.15,4.74,8.59,8.59,0,0,1-3.13,3.47l0,.36Q186.48,98.95,187.77,102Zm-8.85-8.54h1a2.67,2.67,0,0,0,2.59-1.35,7.69,7.69,0,0,0,.72-3.61,3.45,3.45,0,0,0-.32-1.75,1.16,1.16,0,0,0-1.08-.52,12.36,12.36,0,0,0-1.8.39Z"/><path class="cls-1" d="M205.92,91.75l.21-5.18-4.82.47-.9,5.32,4.25.18-.58,3.35-4.32.18-1,5.87,4.79.47L205,97.12h3.21l-1.26,8.46H189.5l.43-2.6,2.2-.46,2.7-15.92-2.05-.5.39-2.59h17.28l-1.33,8.24Z"/><path class="cls-1" d="M230.56,85.22c1.12,1.14,1.67,2.87,1.67,5.2a24,24,0,0,1-1.08,7.16,14.2,14.2,0,0,1-3.24,5.75,6.88,6.88,0,0,1-5.14,2.25h-13.4l.4-2.6,2.23-.5,2.74-15.91-2.09-.47.4-2.59H226.4A5.59,5.59,0,0,1,230.56,85.22ZM223,100.45a19.4,19.4,0,0,0,1.73-5.1,28.19,28.19,0,0,0,.61-5.51,5.82,5.82,0,0,0-.47-2.8,1.67,1.67,0,0,0-1.55-.76,15.19,15.19,0,0,0-2.09.36l-2.66,15.66a14,14,0,0,0,1.84.25C221.41,102.55,222.27,101.85,223,100.45Z"/></g></g></svg>