<?xml version="1.0" encoding="UTF-8"?><svg xmlns="http://www.w3.org/2000/svg" viewBox="0 0 272.47 211.57"><defs><style>.e{fill:#f2f2f2;}.f{fill:#89cff0;}.g{fill:#ace5ee;}.h{fill:#a1caf1;}.i{fill:#6082b6;}</style></defs><g id="a"/><g id="b"><g id="c"><g><g><path class="f" d="M17.06,166.26c-.42-.37-.8-.79-1.13-1.26s-.49-.86-.49-1.16v-9.94h-2.29v-1.67l2.29-.92,2.84-3.33c.2-.07,.75,.1,1.67,.49v3.07h3.3v2.45h-3.3v8.47c0,.5,.06,.85,.18,1.05,.12,.2,.31,.29,.57,.29l2.88,.16v2.22c-1.05,.15-2.16,.29-3.35,.42s-1.91,.2-2.17,.2c-.24,0-.57-.19-1-.56Z"/><path class="f" d="M32.76,171.66c-.31-.54-.45-.88-.42-1.01l1.47-4.25-1.37,.2c-.07,0-.28-.12-.65-.36l-3.24-12.13-1.41-.42v-1.86c2.57-.41,3.97-.62,4.18-.62,.13,0,.41,.15,.83,.46,.42,.31,.66,.53,.7,.69l1.5,7.35,.39,3.27h.33l2.26-9.12-2.09-.26v-2.03l5.13-.36c.11,0,.31,.2,.61,.6,.29,.4,.43,.68,.41,.83l-4.28,13.47-.78,3.53,1.6,.59-.07,1.7c-2.72,.37-4.22,.56-4.48,.56-.11,0-.32-.27-.62-.82Z"/><path class="f" d="M47.19,171.93c-.36-.36-.54-.6-.54-.74l.2-5.65v-11.44l-1.31-.49v-1.8c2.7-.44,4.17-.65,4.41-.65,.11,0,.34,.18,.7,.54,.36,.36,.54,.6,.54,.74v.95c1.9-1.48,2.91-2.22,3.04-2.22,1.68,0,3.02,.64,4.04,1.91,1.01,1.28,1.52,3.04,1.52,5.31,0,.98-.08,1.92-.25,2.83-.16,.9-.37,1.62-.6,2.14-.41,.5-1.35,1.2-2.81,2.11-1.46,.9-2.41,1.36-2.84,1.36-.22,0-.88-.08-1.99-.23v2.88l1.37,.49v1.86c-.48,.11-1.34,.25-2.58,.41-1.24,.16-1.97,.25-2.19,.25-.11,0-.34-.18-.7-.54Zm7.79-13.09c0-.87-.08-1.64-.23-2.32-.15-.67-.35-1.2-.59-1.58-.24-.38-.48-.57-.72-.57-.13,0-.83,.32-2.09,.95v8.33c.44,.24,.9,.46,1.39,.65s.87,.29,1.13,.29c.74,0,1.11-1.92,1.11-5.75Z"/><path class="f" d="M66.58,164.99c-1.12-1.24-1.68-2.97-1.68-5.2,0-1,.08-1.98,.25-2.93,.16-.95,.35-1.68,.57-2.21,.26-.33,.8-.78,1.62-1.36,.82-.58,1.63-1.09,2.45-1.54,.82-.45,1.38-.67,1.68-.67,1.29,0,2.35,.23,3.19,.69s1.48,1.26,1.93,2.4c.45,1.14,.67,2.73,.67,4.76l-7.71,.65c0,1.29,.24,2.28,.72,2.97s1.04,1.05,1.67,1.05l4.8-.23v1.9c-.85,.28-1.92,.62-3.22,1-1.3,.38-2.11,.57-2.44,.57-1.87,0-3.37-.62-4.49-1.86Zm6.26-7.84c0-1.07-.11-1.93-.34-2.6-.23-.66-.58-1.04-1.06-1.13-.11-.02-.32-.03-.62-.03-.22,0-.36,.01-.42,.03-.17,.07-.35,.51-.52,1.32-.17,.82-.28,1.77-.33,2.86l3.3-.46Z"/><path class="f" d="M83.88,166.26c-.44-.37-.65-.61-.65-.72v-11.64h-1.73v-1.9l1.73-.62v-1.27c0-.44,.32-1.07,.95-1.9,.63-.83,1.34-1.57,2.12-2.24,.79-.66,1.38-1,1.8-1s1.01,.02,1.78,.07c.77,.04,1.52,.1,2.24,.16,.13,.09,.28,.3,.44,.64,.16,.34,.25,.57,.25,.7,0,.09-.13,.44-.39,1.05-.26,.61-.46,1.05-.59,1.31-2.07-.83-3.27-1.24-3.6-1.24-.11,0-.22,.15-.33,.46-.11,.31-.16,.68-.16,1.11v2.32h3.37v2.39h-3.37v9.77l1.9,.65v1.7c-3.03,.5-4.67,.75-4.94,.75-.11,0-.38-.19-.82-.56Z"/><path class="f" d="M96.76,164.94c-1-1.25-1.5-3-1.5-5.25,0-.96,.08-1.91,.25-2.84,.16-.94,.35-1.67,.57-2.19,.41-.52,1.35-1.24,2.81-2.14,1.46-.9,2.42-1.36,2.88-1.36,.22,0,1.16,.13,2.83,.39,1.67,.26,2.87,.45,3.61,.56v11.77l1.31,.49v1.8c-2.66,.44-4.13,.65-4.41,.65-.11,0-.34-.18-.7-.54s-.54-.59-.54-.7v-.95c-1.85,1.46-2.87,2.19-3.04,2.19-1.7,0-3.05-.63-4.05-1.88Zm6.93-2.27v-8.3c-.44-.24-.9-.46-1.41-.67s-.88-.31-1.14-.31c-.35,0-.62,.47-.8,1.41-.19,.94-.28,2.45-.28,4.54,0,1.24,.16,2.27,.47,3.07,.32,.81,.67,1.21,1.06,1.21,.13,0,.83-.32,2.09-.95Z"/><path class="f" d="M115.78,164.96c-1-1.24-1.5-2.96-1.5-5.16,0-.98,.08-1.94,.25-2.88,.16-.94,.35-1.67,.57-2.19,.26-.35,.79-.81,1.58-1.37,.79-.57,1.6-1.07,2.4-1.52,.81-.45,1.35-.67,1.63-.67,.57,0,1.24,.07,2.03,.2,.78,.13,1.5,.31,2.16,.52l-.1,4.8h-2.58l-.56-2.55c-.61-.33-1.11-.49-1.5-.49-.17,0-.31,.04-.39,.13-.24,.2-.43,.77-.57,1.73-.14,.96-.21,2.14-.21,3.53s.2,2.46,.6,3.25c.4,.79,.94,1.19,1.62,1.19h3.69v1.9c-2.72,.96-4.43,1.44-5.13,1.44-1.66,0-2.99-.62-3.99-1.86Z"/><path class="f" d="M131.52,164.99c-1.12-1.24-1.68-2.97-1.68-5.2,0-1,.08-1.98,.25-2.93,.16-.95,.35-1.68,.57-2.21,.26-.33,.8-.78,1.62-1.36,.82-.58,1.63-1.09,2.45-1.54,.82-.45,1.38-.67,1.68-.67,1.29,0,2.35,.23,3.19,.69s1.48,1.26,1.93,2.4c.45,1.14,.67,2.73,.67,4.76l-7.71,.65c0,1.29,.24,2.28,.72,2.97s1.04,1.05,1.67,1.05l4.8-.23v1.9c-.85,.28-1.92,.62-3.22,1-1.3,.38-2.11,.57-2.44,.57-1.87,0-3.37-.62-4.49-1.86Zm6.26-7.84c0-1.07-.11-1.93-.34-2.6-.23-.66-.58-1.04-1.06-1.13-.11-.02-.32-.03-.62-.03-.22,0-.36,.01-.42,.03-.17,.07-.35,.51-.52,1.32-.17,.82-.28,1.77-.33,2.86l3.3-.46Z"/><path class="f" d="M159.32,166.67c-1.59-.1-2.8-.19-3.63-.28l.07-5.26h2.19l.69,2.58c.52,.17,1.14,.34,1.86,.51,.72,.16,1.23,.25,1.54,.25,.15,0,.31-.2,.46-.59,.15-.39,.23-.7,.23-.92,0-.44-.16-.79-.47-1.06-.32-.27-.89-.63-1.72-1.06-.48-.24-.85-.44-1.11-.59-1.42-.81-2.38-1.53-2.89-2.16-.51-.63-.77-1.37-.77-2.22,0-.7,.08-1.26,.23-1.7,.41-.57,1.09-1.2,2.03-1.91,.94-.71,1.61-1.06,2.03-1.06,.83,0,1.9,.03,3.22,.08,1.32,.05,2.28,.11,2.89,.18l-.1,4.48h-2.45l-.23-1.8c-.2-.07-.74-.18-1.63-.34-.89-.16-1.45-.25-1.67-.25-.17,0-.3,.09-.38,.26s-.11,.39-.11,.65c0,.35,.2,.68,.59,.98,.39,.3,.79,.58,1.19,.82,.4,.24,.67,.39,.8,.46l.65,.39c1.29,.72,2.29,1.39,3.02,2.01,.73,.62,1.09,1.35,1.09,2.17,0,.74-.09,1.37-.26,1.9-.39,.68-1.05,1.45-1.98,2.32-.93,.87-1.65,1.31-2.17,1.31s-1.61-.05-3.2-.15Z"/><path class="f" d="M176.32,171.66c-.31-.54-.45-.88-.42-1.01l1.47-4.25-1.37,.2c-.07,0-.28-.12-.65-.36l-3.24-12.13-1.41-.42v-1.86c2.57-.41,3.97-.62,4.18-.62,.13,0,.41,.15,.83,.46,.42,.31,.66,.53,.7,.69l1.5,7.35,.39,3.27h.33l2.26-9.12-2.09-.26v-2.03l5.13-.36c.11,0,.31,.2,.61,.6,.29,.4,.43,.68,.41,.83l-4.28,13.47-.78,3.53,1.6,.59-.07,1.7c-2.72,.37-4.22,.56-4.48,.56-.11,0-.32-.27-.62-.82Z"/><path class="f" d="M192.92,166.67c-1.59-.1-2.8-.19-3.63-.28l.07-5.26h2.19l.69,2.58c.52,.17,1.14,.34,1.86,.51,.72,.16,1.23,.25,1.54,.25,.15,0,.31-.2,.46-.59,.15-.39,.23-.7,.23-.92,0-.44-.16-.79-.47-1.06-.32-.27-.89-.63-1.72-1.06-.48-.24-.85-.44-1.11-.59-1.42-.81-2.38-1.53-2.89-2.16-.51-.63-.77-1.37-.77-2.22,0-.7,.08-1.26,.23-1.7,.41-.57,1.09-1.2,2.03-1.91,.94-.71,1.61-1.06,2.03-1.06,.83,0,1.9,.03,3.22,.08,1.32,.05,2.28,.11,2.89,.18l-.1,4.48h-2.45l-.23-1.8c-.2-.07-.74-.18-1.63-.34-.89-.16-1.45-.25-1.67-.25-.17,0-.3,.09-.38,.26s-.11,.39-.11,.65c0,.35,.2,.68,.59,.98,.39,.3,.79,.58,1.19,.82,.4,.24,.67,.39,.8,.46l.65,.39c1.29,.72,2.29,1.39,3.02,2.01,.73,.62,1.09,1.35,1.09,2.17,0,.74-.09,1.37-.26,1.9-.39,.68-1.05,1.45-1.98,2.32-.93,.87-1.65,1.31-2.17,1.31s-1.61-.05-3.2-.15Z"/><path class="f" d="M208.2,166.26c-.42-.37-.8-.79-1.13-1.26s-.49-.86-.49-1.16v-9.94h-2.29v-1.67l2.29-.92,2.84-3.33c.2-.07,.75,.1,1.67,.49v3.07h3.3v2.45h-3.3v8.47c0,.5,.06,.85,.18,1.05,.12,.2,.31,.29,.57,.29l2.88,.16v2.22c-1.05,.15-2.16,.29-3.35,.42s-1.91,.2-2.17,.2c-.24,0-.57-.19-1-.56Z"/><path class="f" d="M220.88,164.99c-1.12-1.24-1.68-2.97-1.68-5.2,0-1,.08-1.98,.25-2.93,.16-.95,.35-1.68,.57-2.21,.26-.33,.8-.78,1.62-1.36,.82-.58,1.63-1.09,2.45-1.54,.82-.45,1.38-.67,1.68-.67,1.29,0,2.35,.23,3.19,.69s1.48,1.26,1.93,2.4c.45,1.14,.67,2.73,.67,4.76l-7.71,.65c0,1.29,.24,2.28,.72,2.97s1.04,1.05,1.67,1.05l4.8-.23v1.9c-.85,.28-1.92,.62-3.22,1-1.3,.38-2.11,.57-2.44,.57-1.87,0-3.37-.62-4.49-1.86Zm6.26-7.84c0-1.07-.11-1.93-.34-2.6-.23-.66-.58-1.04-1.06-1.13-.11-.02-.32-.03-.62-.03-.22,0-.36,.01-.42,.03-.17,.07-.35,.51-.52,1.32-.17,.82-.28,1.77-.33,2.86l3.3-.46Z"/><path class="f" d="M238.17,166.28c-.42-.36-.64-.6-.64-.74v-11.41l-1.31-.49v-1.8c2.68-.44,4.17-.65,4.48-.65,.11,0,.33,.18,.67,.54,.34,.36,.51,.59,.51,.7v.92c.54-.46,1.13-.93,1.75-1.42s.98-.74,1.06-.74c1.16,0,2.11,.17,2.88,.51,.76,.34,1.33,.89,1.7,1.65,1.61-1.44,2.5-2.16,2.65-2.16,1.85,0,3.22,.37,4.1,1.11,.88,.74,1.32,2.05,1.32,3.92v7.62l1.31,.49v1.8c-2.64,.46-4.08,.69-4.31,.69-.13,0-.41-.18-.85-.54-.44-.36-.65-.6-.65-.74v-9.28c0-1.24-.47-1.86-1.41-1.86-.13,0-.71,.29-1.73,.88v8.56l1.21,.49v1.8c-2.57,.46-3.98,.69-4.22,.69-.13,0-.41-.18-.85-.54-.44-.36-.65-.6-.65-.74v-9.28c0-1.24-.44-1.86-1.31-1.86-.15,0-.76,.29-1.83,.88v8.56l1.21,.49v1.8c-2.57,.46-3.99,.69-4.25,.69-.13,0-.41-.18-.83-.54Z"/></g><g><path class="g" d="M25.35,203.77c-.29-.31-.55-.66-.79-1.06-.24-.4-.35-.72-.35-.97,0-.39,.5-3.59,1.51-9.6h-2.06l.25-1.57,2.28-.89,3.08-3.35c.25,0,.72,.15,1.42,.46l-.46,3.14h2.92l-.37,2.21h-2.95l-.52,3.17c-.29,1.74-.5,3.05-.63,3.91-.13,.86-.2,1.39-.2,1.6,0,.23,.03,.39,.09,.49s.17,.16,.34,.18c.14,.04,.95,.06,2.43,.06l-.22,1.94c-.84,.17-1.83,.33-2.97,.49-1.14,.16-1.85,.25-2.14,.25-.14,0-.36-.15-.65-.46Z"/><path class="g" d="M49.85,190.08c.3,.35,.44,.59,.42,.74l-6.77,13.41-1.32,4.83c-.39,.12-.85,.25-1.37,.38-.52,.13-.9,.2-1.12,.2s-.51-.15-.86-.46c-.35-.31-.6-.57-.74-.8l2.86-4.65-2.31-.28-.83-10.92-1.57-.43,.18-1.6,1.08-.25c.49-.1,1.07-.23,1.72-.38,.66-.15,1.18-.26,1.57-.32,.08,0,.29,.17,.63,.51,.34,.34,.51,.58,.51,.72l.09,6.89-.25,3.23h.49l3.66-8.61-1.54-.55,.28-1.75c.31-.06,1.03-.14,2.17-.25,1.14-.1,1.94-.16,2.42-.18,.1,0,.3,.17,.6,.52Z"/><path class="g" d="M65.36,190.74c.69,.79,1.03,1.92,1.03,3.4,0,1.19-.17,2.48-.52,3.88-.35,1.4-.75,2.46-1.2,3.2-.55,.47-1.59,1.09-3.12,1.85-1.53,.76-2.5,1.14-2.91,1.14-.27,0-.79-.06-1.57-.18l-.49,2.83,1.32,.34-.28,1.6c-.68,.16-1.51,.34-2.51,.54-1,.19-1.63,.29-1.89,.29-.12,0-.32-.17-.58-.52-.27-.35-.39-.6-.37-.74l2.8-16.03-1.29-.34,.28-1.6c.14-.02,.8-.16,1.98-.43,1.18-.27,1.93-.4,2.26-.4,.12,0,.32,.17,.58,.52,.27,.35,.39,.59,.37,.74l-.58,3.85h.25c1.95-3.4,2.97-5.11,3.08-5.11,1.56,0,2.68,.4,3.37,1.18Zm-4.42,10.23c.33-.63,.61-1.47,.83-2.49s.34-2.11,.34-3.26c0-.64-.08-1.1-.25-1.38s-.41-.43-.74-.43c-.08,0-.35,.28-.81,.83-.46,.55-.95,1.16-1.46,1.81l-.52,.68-.83,4.83c.57,.16,1.11,.29,1.6,.38,.49,.09,.81,.12,.95,.08,.27-.06,.56-.41,.89-1.05Z"/><path class="g" d="M81.31,195.25c-.74,.82-1.69,1.46-2.85,1.92-1.16,.46-2.34,.73-3.55,.82-.02,.16-.03,.41-.03,.74,0,1,.13,1.72,.4,2.15,.27,.43,.74,.65,1.42,.65,.29,0,.69-.07,1.2-.2,.51-.13,1.04-.28,1.57-.45l.98-.28,.46,1.82c-.86,.39-1.92,.79-3.17,1.2-1.25,.41-2.04,.62-2.37,.62-1.5,0-2.68-.42-3.55-1.26-.87-.84-1.31-1.99-1.31-3.45,0-1.11,.18-2.36,.54-3.77,.36-1.4,.74-2.48,1.15-3.21,.59-.47,1.67-1.09,3.23-1.85s2.54-1.14,2.95-1.14c1.19,0,2.16,.22,2.91,.66,.75,.44,1.12,1.17,1.12,2.2s-.37,2.01-1.11,2.83Zm-5.54-1.97c-.33,.88-.57,1.93-.74,3.14,.9-.14,1.7-.53,2.38-1.17,.69-.64,1.03-1.4,1.03-2.31,0-.39-.09-.7-.28-.92-.18-.22-.46-.34-.83-.34-.23,0-.4,.03-.52,.09-.37,.12-.72,.63-1.05,1.51Z"/><path class="g" d="M92.75,187.86l-.34,2,3.08,.06-.4,2.25h-3.08l-1.6,9.29,1.66,.46-.31,1.81c-2.95,.33-4.52,.49-4.71,.49-.12,0-.32-.17-.6-.52-.28-.35-.41-.6-.38-.77l1.88-10.8h-1.72l.28-1.78,1.85-.58,.21-1.2c.06-.41,.45-1,1.15-1.78,.71-.78,1.47-1.48,2.28-2.11,.81-.62,1.4-.94,1.77-.94,.35,0,.92,.02,1.71,.06s1.35,.08,1.68,.12c.1,.1,.25,.33,.43,.68s.28,.57,.28,.68c-.02,.14-.17,.46-.45,.95-.28,.49-.53,.89-.75,1.2-.51-.23-1.12-.48-1.82-.75-.7-.28-1.12-.42-1.26-.42-.37,0-.65,.53-.83,1.6Z"/><path class="g" d="M109.33,201.46l1.38,.34-.28,1.6c-.14,.04-.8,.19-1.98,.45-1.18,.26-1.92,.38-2.23,.38-.12,0-.32-.17-.58-.51-.27-.34-.39-.59-.37-.75l.55-3.88h-.31l-.68,1.17c-.53,.96-1.05,1.86-1.55,2.69-.5,.83-.78,1.25-.85,1.25-2.93,0-4.4-1.53-4.4-4.58,0-1.19,.18-2.48,.54-3.88,.36-1.39,.75-2.46,1.18-3.2,.57-.47,1.62-1.09,3.15-1.85,1.53-.76,2.49-1.14,2.88-1.14,.27,0,1.13,.11,2.58,.32,1.46,.22,2.43,.38,2.92,.48l-1.97,11.11Zm-4.97-2.18c.58-.72,1.17-1.47,1.77-2.25l.8-4.83c-.57-.16-1.11-.29-1.6-.38-.49-.09-.81-.12-.95-.08-.27,.06-.56,.42-.88,1.06-.32,.65-.59,1.48-.82,2.49-.23,1.02-.34,2.1-.34,3.25,0,.64,.08,1.1,.25,1.38,.16,.29,.41,.43,.74,.43,.1,0,.45-.36,1.03-1.08Z"/><path class="g" d="M121.36,192.98c-.31,.71-.55,1.58-.74,2.63s-.28,2.1-.28,3.17c0,1,.15,1.71,.46,2.12,.31,.41,.8,.62,1.48,.62h3.04l-.34,1.78c-.88,.23-1.77,.44-2.66,.63-.89,.2-1.44,.29-1.65,.29-1.48,0-2.63-.43-3.46-1.29-.83-.86-1.25-2-1.25-3.41,0-1.13,.17-2.39,.52-3.8,.35-1.4,.74-2.47,1.17-3.18,.59-.47,1.67-1.09,3.23-1.85s2.53-1.14,2.92-1.14c.37,0,1.57,.11,3.6,.34l-1.08,5.11h-1.75l-.31-2.74c-.7-.37-1.26-.55-1.69-.55-.08,0-.18,.02-.31,.06-.31,.1-.62,.51-.92,1.22Z"/><path class="g" d="M141.38,195.25c-.74,.82-1.69,1.46-2.85,1.92-1.16,.46-2.34,.73-3.55,.82-.02,.16-.03,.41-.03,.74,0,1,.13,1.72,.4,2.15,.27,.43,.74,.65,1.42,.65,.29,0,.69-.07,1.2-.2,.51-.13,1.04-.28,1.57-.45l.98-.28,.46,1.82c-.86,.39-1.92,.79-3.17,1.2-1.25,.41-2.04,.62-2.37,.62-1.5,0-2.68-.42-3.55-1.26-.87-.84-1.31-1.99-1.31-3.45,0-1.11,.18-2.36,.54-3.77,.36-1.4,.74-2.48,1.15-3.21,.59-.47,1.67-1.09,3.23-1.85s2.54-1.14,2.95-1.14c1.19,0,2.16,.22,2.91,.66,.75,.44,1.12,1.17,1.12,2.2s-.37,2.01-1.11,2.83Zm-5.54-1.97c-.33,.88-.57,1.93-.74,3.14,.9-.14,1.7-.53,2.38-1.17,.69-.64,1.03-1.4,1.03-2.31,0-.39-.09-.7-.28-.92-.18-.22-.46-.34-.83-.34-.23,0-.4,.03-.52,.09-.37,.12-.72,.63-1.05,1.51Z"/><path class="g" d="M162.09,196.54c.45,.35,.85,.77,1.2,1.28,.35,.5,.52,1.05,.52,1.65,0,.25-.04,.56-.11,.94-.07,.38-.17,.7-.29,.97-.45,.57-1.19,1.2-2.21,1.86s-1.73,1-2.12,1c-1.7,0-3.87-.17-6.49-.49l.92-4.98h1.69l.4,2.49c1.54,.47,2.53,.71,2.98,.71,.16,0,.35-.14,.55-.43,.21-.29,.31-.55,.31-.8,0-.7-.75-1.48-2.25-2.34-1.05-.62-1.83-1.21-2.35-1.8-.52-.58-.78-1.3-.78-2.14,0-.31,.04-.67,.12-1.08,.08-.41,.19-.74,.34-.99,.55-.55,1.33-1.16,2.32-1.83,1-.67,1.63-1,1.89-1,.78,0,1.71,.05,2.78,.14,1.08,.09,2.06,.21,2.94,.35l-.86,4.46h-1.66l-.4-2.09c-.59-.16-1.19-.31-1.8-.43-.61-.12-1-.18-1.18-.18-.14,0-.31,.11-.49,.32-.18,.21-.28,.49-.28,.81,0,.35,.16,.67,.48,.95,.32,.29,.69,.56,1.12,.83s.73,.45,.89,.55c.76,.49,1.36,.91,1.81,1.26Z"/><path class="g" d="M181.95,190.08c.3,.35,.44,.59,.42,.74l-6.77,13.41-1.32,4.83c-.39,.12-.85,.25-1.37,.38-.52,.13-.9,.2-1.12,.2s-.51-.15-.86-.46c-.35-.31-.6-.57-.74-.8l2.86-4.65-2.31-.28-.83-10.92-1.57-.43,.18-1.6,1.08-.25c.49-.1,1.07-.23,1.72-.38,.66-.15,1.18-.26,1.57-.32,.08,0,.29,.17,.63,.51,.34,.34,.51,.58,.51,.72l.09,6.89-.25,3.23h.49l3.66-8.61-1.54-.55,.28-1.75c.31-.06,1.03-.14,2.17-.25,1.14-.1,1.94-.16,2.42-.18,.1,0,.3,.17,.6,.52Z"/><path class="g" d="M193.96,196.54c.45,.35,.85,.77,1.2,1.28,.35,.5,.52,1.05,.52,1.65,0,.25-.04,.56-.11,.94-.07,.38-.17,.7-.29,.97-.45,.57-1.19,1.2-2.21,1.86s-1.73,1-2.12,1c-1.7,0-3.87-.17-6.49-.49l.92-4.98h1.69l.4,2.49c1.54,.47,2.53,.71,2.98,.71,.16,0,.35-.14,.55-.43,.21-.29,.31-.55,.31-.8,0-.7-.75-1.48-2.25-2.34-1.05-.62-1.83-1.21-2.35-1.8-.52-.58-.78-1.3-.78-2.14,0-.31,.04-.67,.12-1.08,.08-.41,.19-.74,.34-.99,.55-.55,1.33-1.16,2.32-1.83,1-.67,1.63-1,1.89-1,.78,0,1.71,.05,2.78,.14,1.08,.09,2.06,.21,2.94,.35l-.86,4.46h-1.66l-.4-2.09c-.59-.16-1.19-.31-1.8-.43-.61-.12-1-.18-1.18-.18-.14,0-.31,.11-.49,.32-.18,.21-.28,.49-.28,.81,0,.35,.16,.67,.48,.95,.32,.29,.69,.56,1.12,.83s.73,.45,.89,.55c.76,.49,1.36,.91,1.81,1.26Z"/><path class="g" d="M202.05,203.77c-.29-.31-.55-.66-.79-1.06-.24-.4-.35-.72-.35-.97,0-.39,.5-3.59,1.51-9.6h-2.06l.25-1.57,2.28-.89,3.08-3.35c.25,0,.72,.15,1.42,.46l-.46,3.14h2.92l-.37,2.21h-2.95l-.52,3.17c-.29,1.74-.5,3.05-.63,3.91-.13,.86-.2,1.39-.2,1.6,0,.23,.03,.39,.09,.49s.17,.16,.34,.18c.14,.04,.95,.06,2.43,.06l-.22,1.94c-.84,.17-1.83,.33-2.97,.49-1.14,.16-1.85,.25-2.14,.25-.14,0-.36-.15-.65-.46Z"/><path class="g" d="M223.58,195.25c-.74,.82-1.69,1.46-2.85,1.92-1.16,.46-2.34,.73-3.55,.82-.02,.16-.03,.41-.03,.74,0,1,.13,1.72,.4,2.15,.27,.43,.74,.65,1.42,.65,.29,0,.69-.07,1.2-.2,.51-.13,1.04-.28,1.57-.45l.98-.28,.46,1.82c-.86,.39-1.92,.79-3.17,1.2-1.25,.41-2.04,.62-2.37,.62-1.5,0-2.68-.42-3.55-1.26-.87-.84-1.31-1.99-1.31-3.45,0-1.11,.18-2.36,.54-3.77,.36-1.4,.74-2.48,1.15-3.21,.59-.47,1.67-1.09,3.23-1.85s2.54-1.14,2.95-1.14c1.19,0,2.16,.22,2.91,.66,.75,.44,1.12,1.17,1.12,2.2s-.37,2.01-1.11,2.83Zm-5.54-1.97c-.33,.88-.57,1.93-.74,3.14,.9-.14,1.7-.53,2.38-1.17,.69-.64,1.03-1.4,1.03-2.31,0-.39-.09-.7-.28-.92-.18-.22-.46-.34-.83-.34-.23,0-.4,.03-.52,.09-.37,.12-.72,.63-1.05,1.51Z"/><path class="g" d="M247.15,201.52l1.29,.34-.25,1.6c-2.79,.51-4.26,.77-4.4,.77-.12,0-.32-.17-.58-.51-.27-.34-.39-.59-.37-.75l1.35-7.54c.08-.49,.12-.82,.12-.98,0-.33-.06-.57-.17-.72-.11-.15-.3-.23-.57-.23-.12,0-1.05,1.1-2.77,3.29l-.15,.89c-.37,2.21-.55,3.41-.55,3.6,0,.53,.16,.88,.49,1.05l-.09,1.32c-.6,.1-1.29,.21-2.09,.34-.8,.12-1.38,.2-1.75,.25-.12,0-.32-.17-.6-.51-.28-.34-.41-.59-.38-.75l1.35-7.54c.08-.49,.12-.82,.12-.98,0-.64-.24-.95-.71-.95-.1,0-.45,.36-1.03,1.08-.58,.72-1.17,1.46-1.77,2.21l-.71,4.28c-.02,.1-.03,.23-.03,.37,0,.41,.17,.71,.52,.89l-.09,1.32c-2.42,.39-3.7,.58-3.85,.58-.12,0-.32-.17-.6-.51-.28-.34-.41-.59-.38-.75l1.91-10.64-1.38-.34,.28-1.6c.51-.14,1.29-.32,2.34-.52,1.05-.2,1.71-.31,2-.31,.1,0,.28,.18,.54,.54,.26,.36,.37,.6,.35,.72l-.58,3.97h.25c.33-.57,.58-1.05,.77-1.42,.27-.47,.69-1.23,1.28-2.26,.58-1.04,.92-1.55,1-1.55,1.48,0,2.53,.25,3.17,.75,.64,.5,.95,1.34,.95,2.51,0,.43-.07,1.08-.22,1.94v.03h.22l.89-1.57c.12-.23,.49-.89,1.09-2,.61-1.11,.95-1.66,1.03-1.66,1.5,0,2.57,.26,3.23,.77s.98,1.35,.98,2.52c0,.53-.06,1.17-.18,1.91l-1.26,6.77Z"/></g><g><path class="i" d="M14.52,54.36c-.44-.38-.82-.82-1.16-1.32-.34-.5-.51-.92-.51-1.24v-9.67h-2.39v-1.9l2.39-.88,3.2-3.76c.2-.09,.83,.08,1.9,.49v3.46h3.3v2.65h-3.3v8.24c0,.81,.24,1.21,.72,1.21l2.97,.2v2.45c-1,.15-2.2,.3-3.6,.44-1.39,.14-2.23,.21-2.52,.21-.24,0-.58-.19-1.01-.57Z"/><path class="i" d="M31.06,59.67c-.35-.61-.5-.97-.46-1.08l1.44-4.12-1.57,.2c-.07,0-.32-.13-.75-.39l-3.14-11.96-1.44-.42v-2.06c2.94-.48,4.52-.72,4.74-.72,.11,0,.39,.16,.83,.49,.45,.33,.69,.57,.74,.72l1.37,7.26,.26,3.17h.33l2.06-8.73-2.12-.26v-2.22l5.62-.42c.13,0,.35,.22,.65,.65,.3,.44,.45,.74,.42,.92l-4.25,13.34-.72,3.5,1.7,.59-.07,1.9c-2.99,.39-4.64,.59-4.97,.59-.11,0-.34-.31-.69-.92Z"/><path class="i" d="M45.51,60.01c-.37-.38-.56-.64-.56-.77l.23-5.82v-11.08l-1.37-.49v-2.06l.72-.1c2.46-.39,3.89-.59,4.28-.59,.11,0,.35,.19,.72,.57,.37,.38,.56,.64,.56,.77v.82c.52-.41,1.13-.88,1.81-1.39,.69-.51,1.06-.77,1.13-.77,1.79,0,3.19,.65,4.22,1.96,1.02,1.31,1.54,3.09,1.54,5.36,0,.92-.08,1.83-.25,2.75-.16,.92-.37,1.65-.6,2.19-.28,.33-.86,.78-1.72,1.36-.86,.58-1.72,1.09-2.58,1.54-.86,.45-1.44,.67-1.75,.67-.26,0-.81-.07-1.63-.2v2.58l1.41,.49v2.06c-.54,.13-1.51,.28-2.89,.46s-2.23,.26-2.53,.26c-.11,0-.35-.19-.72-.57Zm7.81-13.12c0-1.18-.13-2.18-.38-3.02-.25-.84-.55-1.26-.9-1.26-.09,0-.68,.27-1.77,.82v8.07c.44,.33,.89,.6,1.36,.83,.47,.23,.78,.29,.93,.18,.5-.35,.75-2.22,.75-5.62Z"/><path class="i" d="M65.33,53.07c-1.14-1.26-1.72-3-1.72-5.2,0-.96,.09-1.92,.26-2.89,.17-.97,.37-1.74,.59-2.3,.28-.33,.85-.78,1.72-1.37,.86-.59,1.72-1.11,2.58-1.55,.86-.45,1.45-.67,1.78-.67,1.35,0,2.46,.25,3.32,.74,.86,.49,1.52,1.33,1.98,2.52,.46,1.19,.69,2.81,.69,4.85l-7.68,.65c0,1.05,.2,1.9,.6,2.55,.4,.65,.91,.98,1.52,.98l5.03-.23v2.09c-1.05,.37-2.21,.75-3.5,1.14-1.29,.39-2.09,.59-2.42,.59-2.03,0-3.61-.63-4.76-1.9Zm6.36-7.88c0-.98-.1-1.81-.29-2.48s-.47-1.07-.82-1.18c-.15-.04-.33-.07-.54-.08-.21-.01-.34,0-.41,.02-.15,.02-.31,.43-.47,1.23-.16,.8-.27,1.76-.31,2.89l2.84-.39Z"/><path class="i" d="M82.96,54.33c-.48-.4-.72-.66-.72-.77v-11.44h-1.8v-2.12l1.8-.62v-1.27c0-.44,.34-1.07,1.01-1.91,.67-.84,1.43-1.59,2.27-2.26,.84-.66,1.48-1,1.91-1,.46,0,1.12,.02,1.98,.07,.86,.04,1.68,.1,2.47,.16,.11,.11,.25,.35,.41,.72,.16,.37,.25,.62,.25,.75,0,.09-.17,.54-.51,1.36-.34,.82-.53,1.25-.57,1.29-2.14-.96-3.36-1.44-3.66-1.44-.11,0-.21,.13-.29,.39-.09,.26-.13,.61-.13,1.05l-.03,2.26h3.46v2.62h-3.46v9.38l2.03,.72v1.83c-3.36,.57-5.2,.85-5.52,.85-.11,0-.4-.2-.88-.6Z"/><path class="i" d="M96.28,53.04c-1.01-1.26-1.52-3.01-1.52-5.23,0-.94,.08-1.88,.25-2.84,.16-.96,.37-1.72,.61-2.29,.28-.33,.85-.78,1.72-1.36,.86-.58,1.72-1.09,2.57-1.54,.85-.45,1.44-.67,1.77-.67,.22,0,1.21,.14,2.99,.42,1.78,.28,3.01,.48,3.71,.59v11.57l1.37,.49v2.06c-3.01,.46-4.67,.69-5,.69-.11,0-.35-.19-.72-.57-.37-.38-.56-.64-.56-.77v-.78c-1.83,1.42-2.81,2.12-2.94,2.12-1.81,0-3.22-.63-4.23-1.9Zm6.16-1.99c.5-.26,.77-.4,.82-.42v-8.07c-1.26-.83-2.02-1.18-2.26-1.05-.54,.31-.82,2.27-.82,5.88,0,1.11,.13,2.06,.39,2.86,.26,.8,.57,1.19,.92,1.19,.13,0,.45-.13,.95-.39Z"/><path class="i" d="M115.75,53.04c-1.02-1.26-1.54-3-1.54-5.2,0-.96,.08-1.9,.25-2.83,.16-.93,.37-1.67,.61-2.24,.28-.33,.84-.79,1.68-1.39,.84-.6,1.68-1.13,2.53-1.58s1.43-.69,1.73-.69c.61,0,1.33,.07,2.16,.21,.83,.14,1.58,.32,2.26,.54l-.1,5.03h-2.81l-.59-2.65c-.52-.33-.96-.49-1.31-.49-.17,0-.3,.04-.39,.13-.22,.17-.39,.72-.51,1.65-.12,.93-.18,2.08-.18,3.45,0,1.29,.18,2.32,.54,3.09s.9,1.16,1.62,1.16h3.73v2.09c-.15,.04-.91,.32-2.27,.83-1.36,.51-2.4,.77-3.12,.77-1.83,0-3.26-.63-4.28-1.9Z"/><path class="i" d="M131.88,53.07c-1.14-1.26-1.72-3-1.72-5.2,0-.96,.09-1.92,.26-2.89,.17-.97,.37-1.74,.59-2.3,.28-.33,.85-.78,1.72-1.37,.86-.59,1.72-1.11,2.58-1.55,.86-.45,1.45-.67,1.78-.67,1.35,0,2.46,.25,3.32,.74,.86,.49,1.52,1.33,1.98,2.52,.46,1.19,.69,2.81,.69,4.85l-7.68,.65c0,1.05,.2,1.9,.6,2.55,.4,.65,.91,.98,1.52,.98l5.03-.23v2.09c-1.05,.37-2.21,.75-3.5,1.14-1.29,.39-2.09,.59-2.42,.59-2.03,0-3.61-.63-4.76-1.9Zm6.36-7.88c0-.98-.1-1.81-.29-2.48s-.47-1.07-.82-1.18c-.15-.04-.33-.07-.54-.08-.21-.01-.34,0-.41,.02-.15,.02-.31,.43-.47,1.23-.16,.8-.27,1.76-.31,2.89l2.84-.39Z"/><path class="i" d="M160.15,54.78c-1.69-.1-2.97-.19-3.84-.28l.1-5.49h2.42l.69,2.61c.54,.2,1.18,.38,1.9,.54,.72,.16,1.23,.25,1.54,.25,.13,0,.25-.17,.36-.52,.11-.35,.16-.6,.16-.75,0-.39-.15-.72-.46-.98-.31-.26-.83-.59-1.57-.98-.57-.28-1-.51-1.31-.69-1.48-.85-2.47-1.61-2.97-2.27-.5-.66-.75-1.44-.75-2.34,0-.67,.08-1.25,.23-1.73,.46-.59,1.18-1.24,2.16-1.96s1.68-1.08,2.09-1.08c.87,0,2,.03,3.38,.08,1.38,.05,2.39,.11,3.02,.18l-.1,4.71h-2.68l-.23-1.83c-.2-.07-.74-.18-1.62-.36-.88-.17-1.42-.26-1.62-.26-.15,0-.26,.08-.31,.23-.05,.15-.08,.32-.08,.49,0,.37,.23,.71,.69,1.03,.46,.32,1.11,.71,1.96,1.19,.13,.07,.68,.37,1.65,.92,.97,.55,1.74,1.15,2.3,1.81,.57,.66,.85,1.32,.85,1.98,0,.78-.09,1.44-.26,1.96-.24,.41-.64,.92-1.19,1.5s-1.12,1.1-1.7,1.54c-.58,.44-1.05,.65-1.42,.65-.57,0-1.69-.05-3.38-.15Z"/><path class="i" d="M177.75,59.67c-.35-.61-.5-.97-.46-1.08l1.44-4.12-1.57,.2c-.07,0-.32-.13-.75-.39l-3.14-11.96-1.44-.42v-2.06c2.94-.48,4.52-.72,4.74-.72,.11,0,.39,.16,.83,.49,.45,.33,.69,.57,.74,.72l1.37,7.26,.26,3.17h.33l2.06-8.73-2.12-.26v-2.22l5.62-.42c.13,0,.35,.22,.65,.65,.3,.44,.45,.74,.42,.92l-4.25,13.34-.72,3.5,1.7,.59-.07,1.9c-2.99,.39-4.64,.59-4.97,.59-.11,0-.34-.31-.69-.92Z"/><path class="i" d="M194.5,54.78c-1.69-.1-2.97-.19-3.84-.28l.1-5.49h2.42l.69,2.61c.54,.2,1.18,.38,1.9,.54,.72,.16,1.23,.25,1.54,.25,.13,0,.25-.17,.36-.52,.11-.35,.16-.6,.16-.75,0-.39-.15-.72-.46-.98-.31-.26-.83-.59-1.57-.98-.57-.28-1-.51-1.31-.69-1.48-.85-2.47-1.61-2.97-2.27-.5-.66-.75-1.44-.75-2.34,0-.67,.08-1.25,.23-1.73,.46-.59,1.18-1.24,2.16-1.96s1.68-1.08,2.09-1.08c.87,0,2,.03,3.38,.08,1.38,.05,2.39,.11,3.02,.18l-.1,4.71h-2.68l-.23-1.83c-.2-.07-.74-.18-1.62-.36-.88-.17-1.42-.26-1.62-.26-.15,0-.26,.08-.31,.23-.05,.15-.08,.32-.08,.49,0,.37,.23,.71,.69,1.03,.46,.32,1.11,.71,1.96,1.19,.13,.07,.68,.37,1.65,.92,.97,.55,1.74,1.15,2.3,1.81,.57,.66,.85,1.32,.85,1.98,0,.78-.09,1.44-.26,1.96-.24,.41-.64,.92-1.19,1.5s-1.12,1.1-1.7,1.54c-.58,.44-1.05,.65-1.42,.65-.57,0-1.69-.05-3.38-.15Z"/><path class="i" d="M210.14,54.36c-.44-.38-.82-.82-1.16-1.32-.34-.5-.51-.92-.51-1.24v-9.67h-2.39v-1.9l2.39-.88,3.2-3.76c.2-.09,.83,.08,1.9,.49v3.46h3.3v2.65h-3.3v8.24c0,.81,.24,1.21,.72,1.21l2.97,.2v2.45c-1,.15-2.2,.3-3.6,.44-1.39,.14-2.23,.21-2.52,.21-.24,0-.58-.19-1.01-.57Z"/><path class="i" d="M223.23,53.07c-1.14-1.26-1.72-3-1.72-5.2,0-.96,.09-1.92,.26-2.89,.17-.97,.37-1.74,.59-2.3,.28-.33,.85-.78,1.72-1.37,.86-.59,1.72-1.11,2.58-1.55,.86-.45,1.45-.67,1.78-.67,1.35,0,2.46,.25,3.32,.74,.86,.49,1.52,1.33,1.98,2.52,.46,1.19,.69,2.81,.69,4.85l-7.68,.65c0,1.05,.2,1.9,.6,2.55,.4,.65,.91,.98,1.52,.98l5.03-.23v2.09c-1.05,.37-2.21,.75-3.5,1.14-1.29,.39-2.09,.59-2.42,.59-2.03,0-3.61-.63-4.76-1.9Zm6.36-7.88c0-.98-.1-1.81-.29-2.48s-.47-1.07-.82-1.18c-.15-.04-.33-.07-.54-.08-.21-.01-.34,0-.41,.02-.15,.02-.31,.43-.47,1.23-.16,.8-.27,1.76-.31,2.89l2.84-.39Z"/><path class="i" d="M240.87,54.34c-.46-.39-.69-.65-.69-.78v-11.18l-1.37-.49v-2.06c3.01-.46,4.68-.69,5.03-.69,.11,0,.34,.19,.7,.57,.36,.38,.54,.64,.54,.77v.75c.5-.44,1.06-.89,1.68-1.37,.62-.48,.99-.72,1.09-.72,2.42,0,3.97,.7,4.64,2.09,.5-.46,1.04-.92,1.62-1.39,.58-.47,.92-.7,1.03-.7,1.9,0,3.29,.36,4.18,1.08s1.34,1.97,1.34,3.76v7.68l1.34,.49v2.03c-2.94,.5-4.55,.75-4.84,.75-.13,0-.43-.2-.9-.59-.47-.39-.7-.65-.7-.78v-9.51c0-.57-.12-.94-.36-1.13-.24-.19-.5-.28-.78-.28-.11,0-.59,.25-1.44,.75v8.27l1.21,.49v2.03c-2.88,.5-4.45,.75-4.71,.75-.13,0-.43-.2-.9-.59-.47-.39-.7-.65-.7-.78v-9.51c0-.57-.12-.94-.36-1.13-.24-.19-.5-.28-.79-.28-.11,0-.6,.25-1.47,.75v8.27l1.21,.49v2.03c-2.86,.5-4.43,.75-4.74,.75-.13,0-.42-.2-.88-.59Z"/></g><g><path class="h" d="M22.11,20.09c-.32-.35-.59-.74-.83-1.17-.24-.43-.34-.77-.32-1.02,.06-.29,.11-.63,.15-1.02l1.32-8.24h-2.15l.34-1.78,2.37-.95,3.45-3.63c.29,0,.82,.14,1.6,.43l-.52,3.51h2.95l-.43,2.43h-2.98c-.45,2.77-.78,4.79-.98,6.08-.21,1.28-.31,2.04-.31,2.26s.03,.39,.09,.49,.18,.16,.37,.18c.12,.02,.92,.03,2.4,.03l-.25,2.18c-.88,.14-1.96,.3-3.23,.48-1.27,.17-2.05,.26-2.34,.26-.14,0-.37-.17-.69-.52Z"/><path class="h" d="M47.55,6.37c.34,.39,.5,.66,.48,.8l-6.83,13.44-1.29,4.83c-.43,.14-.94,.28-1.54,.42-.6,.13-1.04,.2-1.32,.2-.25,0-.55-.16-.91-.48-.36-.32-.62-.61-.78-.88l2.89-4.55-2.49-.28-.83-10.89-1.51-.4,.22-1.88c3.08-.59,4.68-.89,4.8-.89,.08,0,.3,.18,.65,.55s.53,.63,.55,.77l-.03,6.68-.31,3.05h.46l3.42-8.06-1.54-.58,.34-2c.39-.06,1.19-.14,2.4-.25,1.21-.1,2.05-.16,2.52-.18,.1,0,.32,.19,.66,.58Z"/><path class="h" d="M63.58,6.98c.71,.8,1.06,1.94,1.06,3.41,0,1.15-.18,2.45-.55,3.89s-.78,2.55-1.23,3.31c-.66,.49-1.78,1.11-3.38,1.86-1.6,.75-2.61,1.12-3.04,1.12-.17,0-.58-.05-1.26-.15l-.46,2.61,1.29,.34-.31,1.85c-.6,.14-1.46,.31-2.6,.51-1.14,.19-1.88,.29-2.23,.29-.12,0-.33-.18-.62-.55-.29-.37-.42-.65-.4-.83l2.8-15.87-1.29-.34,.31-1.85c.64-.14,1.49-.31,2.55-.51,1.07-.19,1.76-.29,2.09-.29,.12,0,.32,.2,.6,.6,.28,.4,.41,.67,.38,.82l-.49,3.63h.28c1.91-3.36,2.91-5.04,3.01-5.04,1.62,0,2.78,.4,3.49,1.2Zm-4.89,10.26c.3-.6,.55-1.39,.77-2.37,.21-.97,.32-1.99,.32-3.06,0-.57-.07-.98-.21-1.21s-.39-.35-.74-.35c-.14,0-.92,.84-2.34,2.52l-.89,5.05c1.33,.35,2.1,.49,2.31,.43,.23-.06,.49-.39,.78-1Z"/><path class="h" d="M80.07,11.66c-.73,.84-1.68,1.5-2.86,1.97-1.18,.47-2.42,.73-3.71,.77v.74c0,.94,.13,1.61,.38,2,.26,.39,.7,.58,1.34,.58,.35,0,.76-.06,1.23-.18s.97-.26,1.51-.42,.9-.26,1.11-.32l.46,2.03c-.9,.39-1.99,.78-3.26,1.18-1.27,.4-2.07,.6-2.4,.6-1.64,0-2.93-.41-3.88-1.23s-1.42-1.99-1.42-3.51c0-1.09,.19-2.36,.57-3.81,.38-1.46,.77-2.54,1.18-3.26,.66-.51,1.8-1.14,3.45-1.89,1.64-.75,2.69-1.12,3.14-1.12,1.23,0,2.25,.23,3.05,.68s1.2,1.2,1.2,2.25c0,1.13-.36,2.11-1.09,2.95Zm-5.75-2.01c-.3,.87-.52,1.9-.66,3.09,.86-.14,1.59-.51,2.18-1.11,.59-.59,.89-1.34,.89-2.25,0-.39-.08-.7-.25-.92-.16-.23-.41-.34-.74-.34-.14,0-.3,.02-.46,.06-.35,.1-.67,.59-.97,1.46Z"/><path class="h" d="M91.81,4.31l-.34,1.85,3.17,.06-.46,2.46h-3.14l-1.57,8.95,1.78,.46-.37,2.03c-3.32,.33-5.08,.49-5.26,.49-.14,0-.35-.19-.63-.57-.28-.38-.41-.66-.38-.85l1.81-10.55h-1.85l.34-2,1.97-.58,.21-1.23c.06-.41,.46-1,1.2-1.78,.74-.78,1.54-1.48,2.4-2.11s1.49-.94,1.88-.94,1.03,.02,1.91,.06c.88,.04,1.49,.08,1.82,.12,.1,.14,.25,.41,.45,.8,.19,.39,.29,.64,.29,.74,0,.27-.43,1.05-1.29,2.34-.04-.02-.34-.15-.89-.4-1.31-.62-2.07-.92-2.28-.92-.33,0-.58,.52-.77,1.57Z"/><path class="h" d="M108.85,17.63l1.42,.34-.31,1.85c-.66,.14-1.51,.31-2.57,.51-1.06,.19-1.75,.29-2.08,.29-.12,0-.33-.18-.62-.55s-.42-.65-.4-.83l.49-3.66h-.31l-.31,.52c-1.68,2.99-2.58,4.49-2.71,4.49-1.62,0-2.78-.39-3.49-1.18-.71-.79-1.06-1.92-1.06-3.4,0-1.17,.18-2.47,.55-3.91,.37-1.44,.78-2.53,1.23-3.29,.64-.51,1.75-1.14,3.35-1.89,1.6-.75,2.62-1.12,3.08-1.12,.25,0,1.13,.12,2.65,.35,1.52,.24,2.53,.41,3.05,.51l-1.97,10.98Zm-3.78-3.97l.83-5.11c-.51-.14-.99-.26-1.43-.35-.44-.09-.71-.12-.82-.08-.25,.06-.52,.4-.82,1.02-.3,.62-.55,1.41-.77,2.38-.22,.97-.32,1.99-.32,3.06,0,.57,.08,.98,.23,1.22,.15,.24,.4,.35,.75,.35,.14,0,.92-.83,2.34-2.49Z"/><path class="h" d="M120.66,10.58c-.35,1.46-.52,2.99-.52,4.61,0,.92,.14,1.57,.42,1.95,.28,.38,.77,.57,1.49,.57h3.08l-.37,1.97c-.86,.23-1.79,.44-2.78,.63-1,.19-1.59,.29-1.8,.29-1.52,0-2.73-.43-3.63-1.28-.9-.85-1.35-2-1.35-3.46,0-1.07,.19-2.33,.57-3.78,.38-1.46,.77-2.55,1.18-3.29,.66-.51,1.81-1.14,3.46-1.89,1.65-.75,2.69-1.12,3.12-1.12s1.69,.11,3.72,.34l-1.17,5.35h-1.97l-.28-2.77c-.74-.39-1.28-.58-1.63-.58-.08,0-.18,.02-.31,.06-.47,.14-.88,.94-1.23,2.4Z"/><path class="h" d="M141.81,11.66c-.73,.84-1.68,1.5-2.86,1.97-1.18,.47-2.42,.73-3.71,.77v.74c0,.94,.13,1.61,.38,2,.26,.39,.7,.58,1.34,.58,.35,0,.76-.06,1.23-.18s.97-.26,1.51-.42,.9-.26,1.11-.32l.46,2.03c-.9,.39-1.99,.78-3.26,1.18-1.27,.4-2.07,.6-2.4,.6-1.64,0-2.93-.41-3.88-1.23s-1.42-1.99-1.42-3.51c0-1.09,.19-2.36,.57-3.81,.38-1.46,.77-2.54,1.18-3.26,.66-.51,1.8-1.14,3.45-1.89,1.64-.75,2.69-1.12,3.14-1.12,1.23,0,2.25,.23,3.05,.68s1.2,1.2,1.2,2.25c0,1.13-.36,2.11-1.09,2.95Zm-5.75-2.01c-.3,.87-.52,1.9-.66,3.09,.86-.14,1.59-.51,2.18-1.11,.59-.59,.89-1.34,.89-2.25,0-.39-.08-.7-.25-.92-.16-.23-.41-.34-.74-.34-.14,0-.3,.02-.46,.06-.35,.1-.67,.59-.97,1.46Z"/><path class="h" d="M162.91,12.83c.44,.35,.83,.78,1.17,1.29,.34,.51,.51,1.1,.51,1.75,0,.27-.03,.59-.09,.97-.06,.38-.15,.7-.28,.97-.49,.57-1.26,1.18-2.31,1.83s-1.76,.97-2.15,.97c-2.05,0-4.37-.15-6.95-.46l.98-5.23h1.94l.34,2.58c.57,.18,1.14,.35,1.69,.49s.95,.22,1.2,.22c.16,0,.33-.12,.51-.35,.17-.24,.26-.49,.26-.75,0-.62-.71-1.35-2.12-2.22-1.09-.68-1.91-1.31-2.46-1.89s-.83-1.33-.83-2.23c0-.33,.05-.71,.14-1.15,.09-.44,.21-.78,.35-1.03,.62-.55,1.42-1.16,2.43-1.81s1.66-.98,1.97-.98c1.39,0,3.44,.15,6.12,.46l-.92,4.74h-1.94l-.4-2.15c-1.56-.41-2.53-.62-2.92-.62-.12,0-.26,.09-.42,.28-.15,.18-.23,.4-.23,.65,0,.35,.16,.67,.49,.95,.33,.29,.84,.65,1.54,1.08l.55,.37c.78,.51,1.39,.94,1.83,1.29Z"/><path class="h" d="M183.19,6.37c.34,.39,.5,.66,.48,.8l-6.83,13.44-1.29,4.83c-.43,.14-.94,.28-1.54,.42-.6,.13-1.04,.2-1.32,.2-.25,0-.55-.16-.91-.48-.36-.32-.62-.61-.78-.88l2.89-4.55-2.49-.28-.83-10.89-1.51-.4,.22-1.88c3.08-.59,4.68-.89,4.8-.89,.08,0,.3,.18,.65,.55s.53,.63,.55,.77l-.03,6.68-.31,3.05h.46l3.42-8.06-1.54-.58,.34-2c.39-.06,1.19-.14,2.4-.25,1.21-.1,2.05-.16,2.52-.18,.1,0,.32,.19,.66,.58Z"/><path class="h" d="M195.8,12.83c.44,.35,.83,.78,1.17,1.29,.34,.51,.51,1.1,.51,1.75,0,.27-.03,.59-.09,.97-.06,.38-.15,.7-.28,.97-.49,.57-1.26,1.18-2.31,1.83s-1.76,.97-2.15,.97c-2.05,0-4.37-.15-6.95-.46l.98-5.23h1.94l.34,2.58c.57,.18,1.14,.35,1.69,.49s.95,.22,1.2,.22c.16,0,.33-.12,.51-.35,.17-.24,.26-.49,.26-.75,0-.62-.71-1.35-2.12-2.22-1.09-.68-1.91-1.31-2.46-1.89s-.83-1.33-.83-2.23c0-.33,.05-.71,.14-1.15,.09-.44,.21-.78,.35-1.03,.62-.55,1.42-1.16,2.43-1.81s1.66-.98,1.97-.98c1.39,0,3.44,.15,6.12,.46l-.92,4.74h-1.94l-.4-2.15c-1.56-.41-2.53-.62-2.92-.62-.12,0-.26,.09-.42,.28-.15,.18-.23,.4-.23,.65,0,.35,.16,.67,.49,.95,.33,.29,.84,.65,1.54,1.08l.55,.37c.78,.51,1.39,.94,1.83,1.29Z"/><path class="h" d="M203.64,20.09c-.32-.35-.59-.74-.83-1.17-.24-.43-.34-.77-.32-1.02,.06-.29,.11-.63,.15-1.02l1.32-8.24h-2.15l.34-1.78,2.37-.95,3.45-3.63c.29,0,.82,.14,1.6,.43l-.52,3.51h2.95l-.43,2.43h-2.98c-.45,2.77-.78,4.79-.98,6.08-.21,1.28-.31,2.04-.31,2.26s.03,.39,.09,.49,.18,.16,.37,.18c.12,.02,.92,.03,2.4,.03l-.25,2.18c-.88,.14-1.96,.3-3.23,.48-1.27,.17-2.05,.26-2.34,.26-.14,0-.37-.17-.69-.52Z"/><path class="h" d="M226.25,11.66c-.73,.84-1.68,1.5-2.86,1.97-1.18,.47-2.42,.73-3.71,.77v.74c0,.94,.13,1.61,.38,2,.26,.39,.7,.58,1.34,.58,.35,0,.76-.06,1.23-.18s.97-.26,1.51-.42,.9-.26,1.11-.32l.46,2.03c-.9,.39-1.99,.78-3.26,1.18-1.27,.4-2.07,.6-2.4,.6-1.64,0-2.93-.41-3.88-1.23s-1.42-1.99-1.42-3.51c0-1.09,.19-2.36,.57-3.81,.38-1.46,.77-2.54,1.18-3.26,.66-.51,1.8-1.14,3.45-1.89,1.64-.75,2.69-1.12,3.14-1.12,1.23,0,2.25,.23,3.05,.68s1.2,1.2,1.2,2.25c0,1.13-.36,2.11-1.09,2.95Zm-5.75-2.01c-.3,.87-.52,1.9-.66,3.09,.86-.14,1.59-.51,2.18-1.11,.59-.59,.89-1.34,.89-2.25,0-.39-.08-.7-.25-.92-.16-.23-.41-.34-.74-.34-.14,0-.3,.02-.46,.06-.35,.1-.67,.59-.97,1.46Z"/><path class="h" d="M250.2,17.72l1.29,.34-.31,1.85c-3.06,.47-4.66,.71-4.8,.71-.12,0-.33-.18-.62-.55-.29-.37-.42-.65-.4-.83l1.26-6.92c.06-.41,.09-.76,.09-1.05,0-.31-.05-.53-.15-.68-.1-.14-.28-.22-.52-.22-.1,0-.84,.83-2.21,2.49-.51,2.85-.77,4.41-.77,4.68,0,.47,.17,.8,.52,.98l-.12,1.57c-.66,.1-1.44,.21-2.34,.31s-1.56,.17-1.97,.22c-.14,0-.36-.19-.65-.57-.29-.38-.41-.65-.37-.81l1.23-6.92c.08-.53,.12-.88,.12-1.05,0-.31-.05-.53-.15-.68-.1-.14-.28-.22-.52-.22-.1,0-.85,.84-2.25,2.52l-.71,4.37c-.02,.1-.03,.23-.03,.37,0,.41,.17,.71,.52,.89l-.15,1.57c-2.71,.35-4.13,.52-4.28,.52s-.36-.19-.65-.57c-.29-.38-.41-.65-.37-.81l1.88-10.46-1.42-.34,.31-1.85c.62-.14,1.48-.31,2.58-.51,1.11-.19,1.83-.29,2.15-.29,.12,0,.32,.19,.58,.58s.39,.67,.37,.83l-.52,3.78h.28c1.83-3.45,2.8-5.17,2.92-5.17,1.56,0,2.67,.25,3.32,.75,.66,.5,.98,1.35,.98,2.54,0,.43-.07,1.06-.22,1.88h.22c.12-.25,.23-.43,.31-.55,.16-.31,.62-1.15,1.38-2.54s1.17-2.08,1.23-2.08c1.56,0,2.68,.26,3.37,.77,.69,.51,1.03,1.35,1.03,2.52,0,.43-.07,1.06-.22,1.88l-1.26,6.74Z"/></g></g></g><g id="d"><g><g><path class="e" d="M16.61,57.24c-.44-.38-.82-.82-1.16-1.32-.34-.5-.51-.92-.51-1.24v-9.67h-2.39v-1.9l2.39-.88,3.2-3.76c.2-.09,.83,.08,1.9,.49v3.46h3.3v2.65h-3.3v8.24c0,.81,.24,1.21,.72,1.21l2.97,.2v2.45c-1,.15-2.2,.3-3.6,.44-1.39,.14-2.23,.21-2.52,.21-.24,0-.58-.19-1.01-.57Z"/><path class="e" d="M33.15,62.56c-.35-.61-.5-.97-.46-1.08l1.44-4.12-1.57,.2c-.07,0-.32-.13-.75-.39l-3.14-11.96-1.44-.42v-2.06c2.94-.48,4.52-.72,4.74-.72,.11,0,.39,.16,.83,.49,.45,.33,.69,.57,.74,.72l1.37,7.26,.26,3.17h.33l2.06-8.73-2.12-.26v-2.22l5.62-.42c.13,0,.35,.22,.65,.65,.3,.44,.45,.74,.42,.92l-4.25,13.34-.72,3.5,1.7,.59-.07,1.9c-2.99,.39-4.64,.59-4.97,.59-.11,0-.34-.31-.69-.92Z"/><path class="e" d="M47.59,62.9c-.37-.38-.56-.64-.56-.77l.23-5.82v-11.08l-1.37-.49v-2.06l.72-.1c2.46-.39,3.89-.59,4.28-.59,.11,0,.35,.19,.72,.57,.37,.38,.56,.64,.56,.77v.82c.52-.41,1.13-.88,1.81-1.39,.69-.51,1.06-.77,1.13-.77,1.79,0,3.19,.65,4.22,1.96,1.02,1.31,1.54,3.09,1.54,5.36,0,.92-.08,1.83-.25,2.75-.16,.92-.37,1.65-.6,2.19-.28,.33-.86,.78-1.72,1.36-.86,.58-1.72,1.09-2.58,1.54-.86,.45-1.44,.67-1.75,.67-.26,0-.81-.07-1.63-.2v2.58l1.41,.49v2.06c-.54,.13-1.51,.28-2.89,.46s-2.23,.26-2.53,.26c-.11,0-.35-.19-.72-.57Zm7.81-13.12c0-1.18-.13-2.18-.38-3.02-.25-.84-.55-1.26-.9-1.26-.09,0-.68,.27-1.77,.82v8.07c.44,.33,.89,.6,1.36,.83,.47,.23,.78,.29,.93,.18,.5-.35,.75-2.22,.75-5.62Z"/><path class="e" d="M67.42,55.95c-1.14-1.26-1.72-3-1.72-5.2,0-.96,.09-1.92,.26-2.89,.17-.97,.37-1.74,.59-2.3,.28-.33,.85-.78,1.72-1.37,.86-.59,1.72-1.11,2.58-1.55,.86-.45,1.45-.67,1.78-.67,1.35,0,2.46,.25,3.32,.74,.86,.49,1.52,1.33,1.98,2.52,.46,1.19,.69,2.81,.69,4.85l-7.68,.65c0,1.05,.2,1.9,.6,2.55,.4,.65,.91,.98,1.52,.98l5.03-.23v2.09c-1.05,.37-2.21,.75-3.5,1.14-1.29,.39-2.09,.59-2.42,.59-2.03,0-3.61-.63-4.76-1.9Zm6.36-7.88c0-.98-.1-1.81-.29-2.48s-.47-1.07-.82-1.18c-.15-.04-.33-.07-.54-.08-.21-.01-.34,0-.41,.02-.15,.02-.31,.43-.47,1.23-.16,.8-.27,1.76-.31,2.89l2.84-.39Z"/><path class="e" d="M85.05,57.21c-.48-.4-.72-.66-.72-.77v-11.44h-1.8v-2.12l1.8-.62v-1.27c0-.44,.34-1.07,1.01-1.91,.67-.84,1.43-1.59,2.27-2.26,.84-.66,1.48-1,1.91-1,.46,0,1.12,.02,1.98,.07,.86,.04,1.68,.1,2.47,.16,.11,.11,.25,.35,.41,.72,.16,.37,.25,.62,.25,.75,0,.09-.17,.54-.51,1.36-.34,.82-.53,1.25-.57,1.29-2.14-.96-3.36-1.44-3.66-1.44-.11,0-.21,.13-.29,.39-.09,.26-.13,.61-.13,1.05l-.03,2.26h3.46v2.62h-3.46v9.38l2.03,.72v1.83c-3.36,.57-5.2,.85-5.52,.85-.11,0-.4-.2-.88-.6Z"/><path class="e" d="M98.37,55.92c-1.01-1.26-1.52-3.01-1.52-5.23,0-.94,.08-1.88,.25-2.84,.16-.96,.37-1.72,.61-2.29,.28-.33,.85-.78,1.72-1.36,.86-.58,1.72-1.09,2.57-1.54,.85-.45,1.44-.67,1.77-.67,.22,0,1.21,.14,2.99,.42,1.78,.28,3.01,.48,3.71,.59v11.57l1.37,.49v2.06c-3.01,.46-4.67,.69-5,.69-.11,0-.35-.19-.72-.57-.37-.38-.56-.64-.56-.77v-.78c-1.83,1.42-2.81,2.12-2.94,2.12-1.81,0-3.22-.63-4.23-1.9Zm6.16-1.99c.5-.26,.77-.4,.82-.42v-8.07c-1.26-.83-2.02-1.18-2.26-1.05-.54,.31-.82,2.27-.82,5.88,0,1.11,.13,2.06,.39,2.86,.26,.8,.57,1.19,.92,1.19,.13,0,.45-.13,.95-.39Z"/><path class="e" d="M117.83,55.92c-1.02-1.26-1.54-3-1.54-5.2,0-.96,.08-1.9,.25-2.83,.16-.93,.37-1.67,.61-2.24,.28-.33,.84-.79,1.68-1.39,.84-.6,1.68-1.13,2.53-1.58s1.43-.69,1.73-.69c.61,0,1.33,.07,2.16,.21,.83,.14,1.58,.32,2.26,.54l-.1,5.03h-2.81l-.59-2.65c-.52-.33-.96-.49-1.31-.49-.17,0-.3,.04-.39,.13-.22,.17-.39,.72-.51,1.65-.12,.93-.18,2.08-.18,3.45,0,1.29,.18,2.32,.54,3.09s.9,1.16,1.62,1.16h3.73v2.09c-.15,.04-.91,.32-2.27,.83-1.36,.51-2.4,.77-3.12,.77-1.83,0-3.26-.63-4.28-1.9Z"/><path class="e" d="M133.96,55.95c-1.14-1.26-1.72-3-1.72-5.2,0-.96,.09-1.92,.26-2.89,.17-.97,.37-1.74,.59-2.3,.28-.33,.85-.78,1.72-1.37,.86-.59,1.72-1.11,2.58-1.55,.86-.45,1.45-.67,1.78-.67,1.35,0,2.46,.25,3.32,.74,.86,.49,1.52,1.33,1.98,2.52,.46,1.19,.69,2.81,.69,4.85l-7.68,.65c0,1.05,.2,1.9,.6,2.55,.4,.65,.91,.98,1.52,.98l5.03-.23v2.09c-1.05,.37-2.21,.75-3.5,1.14-1.29,.39-2.09,.59-2.42,.59-2.03,0-3.61-.63-4.76-1.9Zm6.36-7.88c0-.98-.1-1.81-.29-2.48s-.47-1.07-.82-1.18c-.15-.04-.33-.07-.54-.08-.21-.01-.34,0-.41,.02-.15,.02-.31,.43-.47,1.23-.16,.8-.27,1.76-.31,2.89l2.84-.39Z"/><path class="e" d="M162.24,57.67c-1.69-.1-2.97-.19-3.84-.28l.1-5.49h2.42l.69,2.61c.54,.2,1.18,.38,1.9,.54,.72,.16,1.23,.25,1.54,.25,.13,0,.25-.17,.36-.52,.11-.35,.16-.6,.16-.75,0-.39-.15-.72-.46-.98-.31-.26-.83-.59-1.57-.98-.57-.28-1-.51-1.31-.69-1.48-.85-2.47-1.61-2.97-2.27-.5-.66-.75-1.44-.75-2.34,0-.67,.08-1.25,.23-1.73,.46-.59,1.18-1.24,2.16-1.96s1.68-1.08,2.09-1.08c.87,0,2,.03,3.38,.08,1.38,.05,2.39,.11,3.02,.18l-.1,4.71h-2.68l-.23-1.83c-.2-.07-.74-.18-1.62-.36-.88-.17-1.42-.26-1.62-.26-.15,0-.26,.08-.31,.23-.05,.15-.08,.32-.08,.49,0,.37,.23,.71,.69,1.03,.46,.32,1.11,.71,1.96,1.19,.13,.07,.68,.37,1.65,.92,.97,.55,1.74,1.15,2.3,1.81,.57,.66,.85,1.32,.85,1.98,0,.78-.09,1.44-.26,1.96-.24,.41-.64,.92-1.19,1.5s-1.12,1.1-1.7,1.54c-.58,.44-1.05,.65-1.42,.65-.57,0-1.69-.05-3.38-.15Z"/><path class="e" d="M179.84,62.56c-.35-.61-.5-.97-.46-1.08l1.44-4.12-1.57,.2c-.07,0-.32-.13-.75-.39l-3.14-11.96-1.44-.42v-2.06c2.94-.48,4.52-.72,4.74-.72,.11,0,.39,.16,.83,.49,.45,.33,.69,.57,.74,.72l1.37,7.26,.26,3.17h.33l2.06-8.73-2.12-.26v-2.22l5.62-.42c.13,0,.35,.22,.65,.65,.3,.44,.45,.74,.42,.92l-4.25,13.34-.72,3.5,1.7,.59-.07,1.9c-2.99,.39-4.64,.59-4.97,.59-.11,0-.34-.31-.69-.92Z"/><path class="e" d="M196.59,57.67c-1.69-.1-2.97-.19-3.84-.28l.1-5.49h2.42l.69,2.61c.54,.2,1.18,.38,1.9,.54,.72,.16,1.23,.25,1.54,.25,.13,0,.25-.17,.36-.52,.11-.35,.16-.6,.16-.75,0-.39-.15-.72-.46-.98-.31-.26-.83-.59-1.57-.98-.57-.28-1-.51-1.31-.69-1.48-.85-2.47-1.61-2.97-2.27-.5-.66-.75-1.44-.75-2.34,0-.67,.08-1.25,.23-1.73,.46-.59,1.18-1.24,2.16-1.96s1.68-1.08,2.09-1.08c.87,0,2,.03,3.38,.08,1.38,.05,2.39,.11,3.02,.18l-.1,4.71h-2.68l-.23-1.83c-.2-.07-.74-.18-1.62-.36-.88-.17-1.42-.26-1.62-.26-.15,0-.26,.08-.31,.23-.05,.15-.08,.32-.08,.49,0,.37,.23,.71,.69,1.03,.46,.32,1.11,.71,1.96,1.19,.13,.07,.68,.37,1.65,.92,.97,.55,1.74,1.15,2.3,1.81,.57,.66,.85,1.32,.85,1.98,0,.78-.09,1.44-.26,1.96-.24,.41-.64,.92-1.19,1.5s-1.12,1.1-1.7,1.54c-.58,.44-1.05,.65-1.42,.65-.57,0-1.69-.05-3.38-.15Z"/><path class="e" d="M212.23,57.24c-.44-.38-.82-.82-1.16-1.32-.34-.5-.51-.92-.51-1.24v-9.67h-2.39v-1.9l2.39-.88,3.2-3.76c.2-.09,.83,.08,1.9,.49v3.46h3.3v2.65h-3.3v8.24c0,.81,.24,1.21,.72,1.21l2.97,.2v2.45c-1,.15-2.2,.3-3.6,.44-1.39,.14-2.23,.21-2.52,.21-.24,0-.58-.19-1.01-.57Z"/><path class="e" d="M225.32,55.95c-1.14-1.26-1.72-3-1.72-5.2,0-.96,.09-1.92,.26-2.89,.17-.97,.37-1.74,.59-2.3,.28-.33,.85-.78,1.72-1.37,.86-.59,1.72-1.11,2.58-1.55,.86-.45,1.45-.67,1.78-.67,1.35,0,2.46,.25,3.32,.74,.86,.49,1.52,1.33,1.98,2.52,.46,1.19,.69,2.81,.69,4.85l-7.68,.65c0,1.05,.2,1.9,.6,2.55,.4,.65,.91,.98,1.52,.98l5.03-.23v2.09c-1.05,.37-2.21,.75-3.5,1.14-1.29,.39-2.09,.59-2.42,.59-2.03,0-3.61-.63-4.76-1.9Zm6.36-7.88c0-.98-.1-1.81-.29-2.48s-.47-1.07-.82-1.18c-.15-.04-.33-.07-.54-.08-.21-.01-.34,0-.41,.02-.15,.02-.31,.43-.47,1.23-.16,.8-.27,1.76-.31,2.89l2.84-.39Z"/><path class="e" d="M242.95,57.23c-.46-.39-.69-.65-.69-.78v-11.18l-1.37-.49v-2.06c3.01-.46,4.68-.69,5.03-.69,.11,0,.34,.19,.7,.57,.36,.38,.54,.64,.54,.77v.75c.5-.44,1.06-.89,1.68-1.37,.62-.48,.99-.72,1.09-.72,2.42,0,3.97,.7,4.64,2.09,.5-.46,1.04-.92,1.62-1.39,.58-.47,.92-.7,1.03-.7,1.9,0,3.29,.36,4.18,1.08s1.34,1.97,1.34,3.76v7.68l1.34,.49v2.03c-2.94,.5-4.55,.75-4.84,.75-.13,0-.43-.2-.9-.59-.47-.39-.7-.65-.7-.78v-9.51c0-.57-.12-.94-.36-1.13-.24-.19-.5-.28-.78-.28-.11,0-.59,.25-1.44,.75v8.27l1.21,.49v2.03c-2.88,.5-4.45,.75-4.71,.75-.13,0-.43-.2-.9-.59-.47-.39-.7-.65-.7-.78v-9.51c0-.57-.12-.94-.36-1.13-.24-.19-.5-.28-.79-.28-.11,0-.6,.25-1.47,.75v8.27l1.21,.49v2.03c-2.86,.5-4.43,.75-4.74,.75-.13,0-.42-.2-.88-.59Z"/></g><g><path class="e" d="M4.42,130.58c-.36-.42-.67-.88-.95-1.4-.28-.52-.39-.93-.35-1.23,.18-1.31,.72-4.67,1.59-10.07H2.23l.42-2.28,2.77-1.07,4.33-4.46c.39,0,1.06,.17,2.01,.52l-.66,4.33h3.32l-.52,2.98h-3.39l-.62,3.95c-.51,3.09-.76,4.76-.76,5.02,0,.28,.04,.47,.1,.59,.07,.12,.21,.19,.42,.21,.14,.02,1.04,.03,2.7,.03l-.31,2.67c-1.06,.16-2.37,.35-3.93,.55s-2.51,.31-2.86,.31c-.18,0-.46-.21-.81-.62Z"/><path class="e" d="M34.12,115.07c.43,.46,.63,.77,.61,.93l-7.79,15.19-1.38,5.43c-.6,.21-1.27,.39-2.01,.54-.74,.15-1.29,.23-1.66,.23-.28,0-.63-.19-1.06-.55-.43-.37-.74-.73-.95-1.07l3.39-5.05-3.11-.31-.9-12.18-1.7-.48,.31-2.39c.62-.14,1.62-.31,2.99-.52,1.37-.21,2.32-.35,2.86-.42,.09,0,.35,.23,.78,.67,.43,.45,.64,.76,.64,.92l-.14,7.23-.45,3.25h.55l3.53-8.44-1.73-.69,.45-2.53c.55-.09,1.55-.18,2.98-.28,1.43-.09,2.42-.15,2.98-.17,.12,0,.39,.23,.81,.69Z"/><path class="e" d="M52.63,115.71c.82,.89,1.23,2.16,1.23,3.82,0,1.29-.22,2.78-.66,4.46-.44,1.68-.91,2.95-1.42,3.81-.79,.58-2.12,1.28-4.01,2.11-1.89,.83-3.1,1.25-3.63,1.25l-1.11-.1-.45,2.67,1.42,.38-.42,2.39c-.72,.14-1.76,.31-3.13,.52-1.37,.21-2.29,.31-2.75,.31-.16,0-.41-.22-.74-.67-.33-.45-.49-.79-.47-1.02l3.11-17.65-1.42-.38,.42-2.39c.76-.16,1.78-.34,3.04-.54,1.27-.2,2.12-.29,2.56-.29,.16,0,.41,.24,.74,.73,.33,.48,.49,.82,.47,1l-.52,3.81h.35c.07-.12,.15-.25,.24-.42,.09-.16,.2-.35,.31-.55,.21-.35,.7-1.19,1.49-2.54,.78-1.35,1.21-2.02,1.28-2.02,1.89,0,3.25,.44,4.07,1.33Zm-5.99,11.59c.31-.66,.58-1.51,.81-2.54,.23-1.04,.35-2.12,.35-3.25,0-.58-.08-.96-.22-1.16-.15-.2-.43-.29-.85-.29-.12,0-.84,.67-2.18,2.01l-.97,5.85c1.27,.37,2.03,.52,2.28,.45,.21-.05,.47-.4,.78-1.06Z"/><path class="e" d="M71.81,121.15c-.82,.98-1.9,1.74-3.24,2.27-1.34,.53-2.77,.82-4.29,.87v.8c0,.99,.14,1.68,.42,2.08,.28,.39,.75,.59,1.42,.59,.37,0,.82-.06,1.37-.19,.54-.13,1.01-.25,1.4-.36,.39-.12,.67-.2,.83-.24l.8-.24,.59,2.56c-1.11,.44-2.38,.87-3.82,1.3-1.44,.43-2.35,.64-2.72,.64-2.01,0-3.58-.45-4.72-1.35-1.14-.9-1.71-2.24-1.71-4.01,0-1.15,.22-2.58,.66-4.29,.44-1.71,.9-2.98,1.38-3.81,.83-.58,2.22-1.28,4.17-2.11,1.95-.83,3.19-1.25,3.72-1.25,1.43,0,2.62,.25,3.57,.76,.95,.51,1.42,1.36,1.42,2.56,0,1.32-.41,2.46-1.23,3.44Zm-6.71-2.28c-.31,.96-.54,2.11-.67,3.44,.95-.16,1.71-.56,2.28-1.19,.58-.63,.87-1.47,.87-2.51,0-.95-.33-1.42-1-1.42-.16,0-.31,.02-.45,.07-.37,.12-.71,.65-1.02,1.61Z"/><path class="e" d="M85.65,111.61c-.13,.28-.24,.7-.33,1.28l-.35,1.94,3.67,.07-.55,3.01h-3.67l-1.7,9.69,2.11,.52-.45,2.53c-4.15,.37-6.33,.55-6.54,.55-.16,0-.41-.23-.74-.67-.33-.45-.49-.79-.47-1.02l2.04-11.63h-2.25l.42-2.49,2.39-.66,.24-1.38c.07-.46,.54-1.13,1.42-2.01,.88-.88,1.82-1.67,2.82-2.39,1-.71,1.75-1.07,2.23-1.07s1.27,.02,2.35,.07c1.08,.05,1.81,.09,2.18,.14,.11,.16,.29,.49,.54,.99,.24,.5,.36,.8,.36,.92,0,.21-.17,.61-.52,1.21-.35,.6-.7,1.17-1.07,1.7l-.69-.35c-1.75-.9-2.72-1.35-2.91-1.35-.23,0-.41,.14-.54,.42Z"/><path class="e" d="M105.08,127.6l1.59,.38-.42,2.39c-.74,.16-1.75,.34-3.04,.54-1.29,.2-2.17,.29-2.63,.29-.16,0-.4-.23-.73-.67-.32-.45-.47-.79-.45-1.02l.45-3.88h-.35c-.07,.12-.15,.25-.24,.42-.09,.16-.2,.35-.31,.55-.21,.35-.7,1.19-1.49,2.54-.79,1.35-1.21,2.02-1.28,2.02-1.89,0-3.25-.44-4.07-1.33-.82-.89-1.23-2.16-1.23-3.82,0-1.29,.22-2.78,.66-4.46,.44-1.68,.91-2.95,1.42-3.81,.78-.58,2.12-1.28,4.01-2.11,1.89-.83,3.1-1.25,3.63-1.25,.28,0,1.31,.14,3.1,.42s2.97,.47,3.55,.59l-2.18,12.22Zm-4.91-4.05l.97-5.92c-1.29-.37-2.04-.52-2.25-.45-.21,.05-.47,.4-.78,1.06s-.58,1.51-.81,2.54c-.23,1.04-.35,2.12-.35,3.25,0,.55,.08,.93,.24,1.14s.45,.31,.87,.31c.16,0,.87-.65,2.11-1.94Z"/><path class="e" d="M118.53,119.97c-.36,1.65-.54,3.39-.54,5.21,0,.92,.14,1.58,.42,1.97,.28,.39,.84,.59,1.7,.59h3.5l-.45,2.42c-.99,.23-2.08,.46-3.25,.69s-1.89,.35-2.15,.35c-1.8,0-3.24-.47-4.31-1.42-1.07-.95-1.61-2.26-1.61-3.95,0-1.15,.22-2.58,.66-4.29,.44-1.71,.9-2.98,1.38-3.81,.83-.58,2.21-1.28,4.15-2.11,1.94-.83,3.17-1.25,3.7-1.25s1.23,.03,2.02,.1c.8,.07,1.56,.14,2.3,.21l-1.38,6.3h-2.49l-.31-3.08c-.76-.48-1.34-.73-1.73-.73-.07,0-.17,.02-.31,.07-.51,.16-.94,1.07-1.3,2.72Z"/><path class="e" d="M143.1,121.15c-.82,.98-1.9,1.74-3.24,2.27-1.34,.53-2.77,.82-4.29,.87v.8c0,.99,.14,1.68,.42,2.08,.28,.39,.75,.59,1.42,.59,.37,0,.82-.06,1.37-.19,.54-.13,1.01-.25,1.4-.36,.39-.12,.67-.2,.83-.24l.8-.24,.59,2.56c-1.11,.44-2.38,.87-3.82,1.3-1.44,.43-2.35,.64-2.72,.64-2.01,0-3.58-.45-4.72-1.35-1.14-.9-1.71-2.24-1.71-4.01,0-1.15,.22-2.58,.66-4.29,.44-1.71,.9-2.98,1.38-3.81,.83-.58,2.22-1.28,4.17-2.11,1.95-.83,3.19-1.25,3.72-1.25,1.43,0,2.62,.25,3.57,.76,.95,.51,1.42,1.36,1.42,2.56,0,1.32-.41,2.46-1.23,3.44Zm-6.71-2.28c-.31,.96-.54,2.11-.67,3.44,.95-.16,1.71-.56,2.28-1.19,.58-.63,.87-1.47,.87-2.51,0-.95-.33-1.42-1-1.42-.16,0-.31,.02-.45,.07-.37,.12-.71,.65-1.02,1.61Z"/><path class="e" d="M167.39,122.32c.5,.38,.92,.87,1.28,1.47,.36,.6,.54,1.29,.54,2.08,0,.3-.04,.67-.12,1.11-.08,.44-.19,.82-.33,1.14-.6,.67-1.49,1.35-2.68,2.04-1.19,.69-2,1.04-2.44,1.04-2.17,0-4.95-.16-8.34-.48l1.18-6.2h2.42l.38,3.05c1.55,.53,2.58,.8,3.12,.8,.18,0,.36-.11,.52-.33s.24-.47,.24-.74c0-.65-.76-1.45-2.28-2.42-.81-.51-1.46-.96-1.97-1.35-.51-.39-.95-.88-1.31-1.47-.37-.59-.55-1.25-.55-1.99,0-.39,.06-.85,.17-1.38,.12-.53,.25-.93,.42-1.21,.71-.62,1.66-1.29,2.84-2.01,1.18-.71,1.94-1.07,2.28-1.07,1.71,0,4.15,.16,7.34,.48l-1.11,5.64h-2.42l-.42-2.49c-1.75-.48-2.84-.73-3.25-.73-.09,0-.22,.09-.38,.26-.16,.17-.24,.35-.24,.54,0,.37,.18,.72,.55,1.04,.37,.32,.96,.74,1.76,1.25l.69,.45c.92,.62,1.63,1.12,2.13,1.51Z"/><path class="e" d="M190.65,115.07c.43,.46,.63,.77,.61,.93l-7.79,15.19-1.38,5.43c-.6,.21-1.27,.39-2.01,.54-.74,.15-1.29,.23-1.66,.23-.28,0-.63-.19-1.06-.55-.43-.37-.74-.73-.95-1.07l3.39-5.05-3.11-.31-.9-12.18-1.7-.48,.31-2.39c.62-.14,1.62-.31,2.99-.52,1.37-.21,2.32-.35,2.86-.42,.09,0,.35,.23,.78,.67,.43,.45,.64,.76,.64,.92l-.14,7.23-.45,3.25h.55l3.53-8.44-1.73-.69,.45-2.53c.55-.09,1.55-.18,2.98-.28,1.43-.09,2.42-.15,2.98-.17,.12,0,.39,.23,.81,.69Z"/><path class="e" d="M205.5,122.32c.5,.38,.92,.87,1.28,1.47,.36,.6,.54,1.29,.54,2.08,0,.3-.04,.67-.12,1.11-.08,.44-.19,.82-.33,1.14-.6,.67-1.49,1.35-2.68,2.04-1.19,.69-2,1.04-2.44,1.04-2.17,0-4.95-.16-8.34-.48l1.18-6.2h2.42l.38,3.05c1.55,.53,2.58,.8,3.12,.8,.18,0,.36-.11,.52-.33s.24-.47,.24-.74c0-.65-.76-1.45-2.28-2.42-.81-.51-1.46-.96-1.97-1.35-.51-.39-.95-.88-1.31-1.47-.37-.59-.55-1.25-.55-1.99,0-.39,.06-.85,.17-1.38,.12-.53,.25-.93,.42-1.21,.71-.62,1.66-1.29,2.84-2.01,1.18-.71,1.94-1.07,2.28-1.07,1.71,0,4.15,.16,7.34,.48l-1.11,5.64h-2.42l-.42-2.49c-1.75-.48-2.84-.73-3.25-.73-.09,0-.22,.09-.38,.26-.16,.17-.24,.35-.24,.54,0,.37,.18,.72,.55,1.04,.37,.32,.96,.74,1.76,1.25l.69,.45c.92,.62,1.63,1.12,2.13,1.51Z"/><path class="e" d="M214.01,130.58c-.36-.42-.67-.88-.95-1.4-.28-.52-.39-.93-.35-1.23,.18-1.31,.72-4.67,1.59-10.07h-2.49l.42-2.28,2.77-1.07,4.33-4.46c.39,0,1.06,.17,2.01,.52l-.66,4.33h3.32l-.52,2.98h-3.39l-.62,3.95c-.51,3.09-.76,4.76-.76,5.02,0,.28,.04,.47,.1,.59,.07,.12,.21,.19,.42,.21,.14,.02,1.04,.03,2.7,.03l-.31,2.67c-1.06,.16-2.37,.35-3.93,.55s-2.51,.31-2.86,.31c-.18,0-.46-.21-.81-.62Z"/><path class="e" d="M240.62,121.15c-.82,.98-1.9,1.74-3.24,2.27-1.34,.53-2.77,.82-4.29,.87v.8c0,.99,.14,1.68,.42,2.08,.28,.39,.75,.59,1.42,.59,.37,0,.82-.06,1.37-.19,.54-.13,1.01-.25,1.4-.36,.39-.12,.67-.2,.83-.24l.8-.24,.59,2.56c-1.11,.44-2.38,.87-3.82,1.3-1.44,.43-2.35,.64-2.72,.64-2.01,0-3.58-.45-4.72-1.35-1.14-.9-1.71-2.24-1.71-4.01,0-1.15,.22-2.58,.66-4.29,.44-1.71,.9-2.98,1.38-3.81,.83-.58,2.22-1.28,4.17-2.11,1.95-.83,3.19-1.25,3.72-1.25,1.43,0,2.62,.25,3.57,.76,.95,.51,1.42,1.36,1.42,2.56,0,1.32-.41,2.46-1.23,3.44Zm-6.71-2.28c-.31,.96-.54,2.11-.67,3.44,.95-.16,1.71-.56,2.28-1.19,.58-.63,.87-1.47,.87-2.51,0-.95-.33-1.42-1-1.42-.16,0-.31,.02-.45,.07-.37,.12-.71,.65-1.02,1.61Z"/><path class="e" d="M269.47,120.23l-1.42,7.51,1.38,.38-.38,2.35c-3.74,.48-5.69,.73-5.85,.73s-.42-.23-.76-.67c-.35-.45-.5-.79-.45-1.02l1.28-7.13c.09-.6,.14-1,.14-1.21,0-.35-.05-.59-.16-.73-.1-.14-.29-.21-.57-.21-.05,0-.68,.65-1.9,1.94-.58,3.46-.87,5.28-.87,5.47,0,.46,.2,.8,.59,1l-.21,2.04-5.33,.52c-.16,0-.42-.23-.76-.67-.35-.45-.5-.79-.45-1.02l1.28-7.13c.09-.6,.14-1,.14-1.21,0-.35-.05-.59-.16-.73-.1-.14-.29-.21-.57-.21-.05,0-.68,.65-1.9,1.94l-.8,5.05c-.02,.12-.04,.25-.04,.42,0,.46,.2,.8,.59,1l-.21,2.04-5.33,.52c-.16,0-.42-.23-.76-.67-.35-.45-.5-.79-.45-1.02l2.08-11.52-1.59-.38,.42-2.39c.71-.14,1.74-.31,3.08-.52,1.34-.21,2.24-.31,2.7-.31,.16,0,.39,.24,.69,.73,.3,.48,.44,.82,.42,1l-.48,4.05h.28l.66-1.25c.28-.53,.75-1.41,1.44-2.65,.68-1.23,1.04-1.85,1.09-1.85,1.82,0,3.12,.28,3.89,.85,.77,.57,1.16,1.52,1.16,2.86,0,.46-.08,1.14-.24,2.04h.24l.66-1.25c.28-.53,.76-1.41,1.44-2.65,.68-1.23,1.04-1.85,1.09-1.85,1.82,0,3.14,.28,3.95,.85,.81,.57,1.21,1.52,1.21,2.86,0,.48-.08,1.19-.24,2.11Z"/></g><g><path class="e" d="M4.45,93.21c-.47-.43-.9-.92-1.28-1.47s-.57-1.02-.57-1.38v-9.97H0v-2.28l2.6-.87,3.81-4.4c.18-.14,.91,.03,2.18,.52v4.05h3.56v3.01h-3.56v8.51c0,.42,.07,.7,.21,.87,.14,.16,.32,.25,.55,.28l3.22,.21v2.87c-1.18,.16-2.56,.32-4.15,.47-1.59,.15-2.56,.22-2.91,.22-.23,0-.58-.21-1.06-.64Z"/><path class="e" d="M22.79,98.78c-.4-.7-.58-1.12-.54-1.26l1.49-4.19-1.87,.21c-.07,0-.35-.15-.83-.45l-3.25-12.46-1.56-.48v-2.39c3.46-.55,5.31-.83,5.54-.83,.14,0,.46,.19,.95,.55,.5,.37,.77,.63,.81,.8l1.28,7.54,.17,3.29h.35l1.97-8.86-2.28-.31v-2.53c4.08-.32,6.24-.48,6.47-.48,.14,0,.37,.25,.69,.76,.32,.51,.47,.84,.45,1l-4.46,14.02-.69,3.63,1.9,.62-.07,2.18c-3.44,.46-5.35,.69-5.75,.69-.12,0-.38-.35-.78-1.06Z"/><path class="e" d="M38.16,99.19c-.4-.43-.61-.71-.61-.85l.24-6.3v-11.42l-1.52-.52v-2.39c.92-.14,2.07-.31,3.44-.5,1.37-.2,2.19-.29,2.44-.29,.12,0,.38,.21,.78,.64,.4,.43,.61,.71,.61,.85v.73c.53-.42,1.15-.89,1.87-1.42,.71-.53,1.11-.8,1.18-.8,2.01,0,3.55,.71,4.64,2.13,1.08,1.42,1.63,3.33,1.63,5.73,0,.92-.09,1.88-.28,2.86-.18,.98-.4,1.76-.66,2.34-.32,.35-.96,.84-1.92,1.47-.96,.64-1.92,1.19-2.87,1.68-.96,.48-1.61,.73-1.96,.73l-1.38-.17v2.46l1.52,.52v2.39c-.65,.14-1.78,.31-3.41,.5-1.63,.2-2.61,.29-2.96,.29-.12,0-.38-.21-.78-.64Zm8.1-9.86c.13-1,.19-2.35,.19-4.03,0-1.18-.1-2.2-.29-3.06s-.48-1.3-.85-1.3c-.12,0-.62,.24-1.52,.73v8.27c1.11,1.02,1.76,1.42,1.97,1.21,.21-.21,.37-.81,.5-1.82Z"/><path class="e" d="M59.54,91.84c-1.23-1.36-1.85-3.2-1.85-5.5,0-.99,.09-2.01,.28-3.05,.18-1.04,.4-1.87,.66-2.49,.32-.35,.96-.84,1.92-1.47,.96-.63,1.91-1.19,2.87-1.68,.96-.48,1.61-.73,1.96-.73,2.21,0,3.86,.66,4.95,1.99,1.08,1.33,1.63,3.61,1.63,6.84l-8.13,.69c0,.88,.17,1.64,.52,2.3s.84,.99,1.49,.99l5.54-.28v2.42c-.81,.3-2,.71-3.58,1.23-1.58,.52-2.56,.78-2.92,.78-2.31,0-4.08-.68-5.31-2.04Zm6.8-8.41c0-.95-.08-1.77-.24-2.47-.16-.7-.36-1.14-.59-1.3-.09-.05-.25-.09-.47-.12-.22-.03-.38-.05-.47-.05-.14,0-.29,.42-.45,1.25s-.28,1.86-.35,3.08l2.56-.38Z"/><path class="e" d="M78.58,93.17c-.54-.45-.81-.73-.81-.85v-11.94h-2.01v-2.49l2.01-.66v-1.35c0-.46,.38-1.14,1.12-2.02,.75-.89,1.59-1.69,2.51-2.41,.92-.71,1.64-1.07,2.15-1.07s1.3,.02,2.3,.07c1,.05,1.96,.1,2.86,.17,.12,.12,.26,.39,.43,.83,.17,.44,.26,.73,.26,.87,0,.12-.2,.66-.61,1.63-.4,.97-.63,1.45-.67,1.45-.09-.05-.7-.34-1.83-.88-1.13-.54-1.83-.81-2.11-.81-.09,0-.19,.12-.28,.36-.09,.24-.14,.59-.14,1.06v2.28h3.77v3.01h-3.77v9.52l2.21,.83v2.08c-3.88,.67-6,1-6.37,1-.14,0-.48-.22-1.02-.67Z"/><path class="e" d="M93.09,91.81c-1.08-1.36-1.63-3.2-1.63-5.5,0-.99,.09-2,.28-3.03,.18-1.03,.4-1.85,.66-2.47,.32-.35,.96-.84,1.92-1.47,.96-.63,1.91-1.19,2.87-1.68,.96-.48,1.61-.73,1.96-.73s2.8,.38,7.37,1.14v12.08l1.52,.52v2.39c-3.53,.53-5.49,.8-5.88,.8-.12,0-.38-.21-.78-.64-.4-.43-.61-.71-.61-.85v-.73c-.53,.42-1.15,.89-1.87,1.42-.71,.53-1.11,.8-1.18,.8-2.01,0-3.55-.68-4.64-2.04Zm7.44-2.7v-8.27c-1.11-.97-1.75-1.38-1.94-1.25-.48,.35-.73,2.41-.73,6.19,0,1.08,.1,2.03,.29,2.84s.48,1.21,.85,1.21c.14,0,.65-.24,1.52-.73Z"/><path class="e" d="M114.16,91.81c-1.12-1.36-1.68-3.2-1.68-5.5,0-.99,.09-1.97,.28-2.94,.18-.97,.4-1.78,.66-2.42,.3-.35,.92-.85,1.87-1.51,.95-.66,1.89-1.24,2.82-1.75,.93-.51,1.57-.76,1.92-.76,.69,0,1.5,.08,2.42,.23,.92,.15,1.75,.35,2.49,.61l-.1,5.57h-3.22l-.62-2.91c-.55-.35-.96-.52-1.21-.52-.16,0-.29,.05-.38,.14-.21,.16-.37,.72-.49,1.66-.12,.95-.17,2.13-.17,3.56,0,2.86,.75,4.29,2.25,4.29h3.95v2.42c-.19,.07-1.01,.4-2.47,.99-1.47,.59-2.64,.88-3.51,.88-2.08,0-3.67-.68-4.79-2.04Z"/><path class="e" d="M131.6,91.84c-1.23-1.36-1.85-3.2-1.85-5.5,0-.99,.09-2.01,.28-3.05,.18-1.04,.4-1.87,.66-2.49,.32-.35,.96-.84,1.92-1.47,.96-.63,1.91-1.19,2.87-1.68,.96-.48,1.61-.73,1.96-.73,2.21,0,3.86,.66,4.95,1.99,1.08,1.33,1.63,3.61,1.63,6.84l-8.13,.69c0,.88,.17,1.64,.52,2.3s.84,.99,1.49,.99l5.54-.28v2.42c-.81,.3-2,.71-3.58,1.23-1.58,.52-2.56,.78-2.92,.78-2.31,0-4.08-.68-5.31-2.04Zm6.8-8.41c0-.95-.08-1.77-.24-2.47-.16-.7-.36-1.14-.59-1.3-.09-.05-.25-.09-.47-.12-.22-.03-.38-.05-.47-.05-.14,0-.29,.42-.45,1.25s-.28,1.86-.35,3.08l2.56-.38Z"/><path class="e" d="M162.04,93.69c-1.87-.1-3.29-.2-4.26-.29l.1-6.02h2.77l.73,2.8c.6,.21,1.28,.4,2.04,.59,.76,.19,1.3,.28,1.63,.28,.14,0,.25-.16,.33-.48,.08-.32,.12-.55,.12-.69,0-.39-.16-.72-.49-.99-.32-.26-.85-.58-1.59-.95-.39-.18-.9-.45-1.52-.8-1.62-.92-2.69-1.75-3.22-2.49-.53-.74-.8-1.59-.8-2.56,0-.76,.09-1.38,.28-1.87,.51-.62,1.3-1.33,2.37-2.11,1.07-.78,1.85-1.18,2.34-1.18,.97,0,2.21,.03,3.72,.09,1.51,.06,2.61,.12,3.3,.19l-.1,5.16h-3.08l-.21-1.94c-.21-.07-.77-.2-1.68-.4-.91-.2-1.47-.29-1.68-.29-.14,0-.23,.08-.28,.23-.05,.15-.07,.27-.07,.36,0,.35,.27,.7,.8,1.07,.53,.37,1.23,.78,2.11,1.25,1.15,.65,2.04,1.17,2.67,1.57,.62,.4,1.19,.91,1.7,1.51,.51,.6,.76,1.26,.76,1.97,0,.95-.1,1.67-.31,2.18-.28,.44-.71,.98-1.32,1.63-.6,.65-1.22,1.2-1.85,1.66s-1.16,.69-1.57,.69c-.62,0-1.87-.05-3.74-.16Z"/><path class="e" d="M181.26,98.78c-.4-.7-.58-1.12-.54-1.26l1.49-4.19-1.87,.21c-.07,0-.35-.15-.83-.45l-3.25-12.46-1.56-.48v-2.39c3.46-.55,5.31-.83,5.54-.83,.14,0,.46,.19,.95,.55,.5,.37,.77,.63,.81,.8l1.28,7.54,.17,3.29h.35l1.97-8.86-2.28-.31v-2.53c4.08-.32,6.24-.48,6.47-.48,.14,0,.37,.25,.69,.76,.32,.51,.47,.84,.45,1l-4.46,14.02-.69,3.63,1.9,.62-.07,2.18c-3.44,.46-5.35,.69-5.75,.69-.12,0-.38-.35-.78-1.06Z"/><path class="e" d="M199.17,93.69c-1.87-.1-3.29-.2-4.26-.29l.1-6.02h2.77l.73,2.8c.6,.21,1.28,.4,2.04,.59,.76,.19,1.3,.28,1.63,.28,.14,0,.25-.16,.33-.48,.08-.32,.12-.55,.12-.69,0-.39-.16-.72-.49-.99-.32-.26-.85-.58-1.59-.95-.39-.18-.9-.45-1.52-.8-1.62-.92-2.69-1.75-3.22-2.49-.53-.74-.8-1.59-.8-2.56,0-.76,.09-1.38,.28-1.87,.51-.62,1.3-1.33,2.37-2.11,1.07-.78,1.85-1.18,2.34-1.18,.97,0,2.21,.03,3.72,.09,1.51,.06,2.61,.12,3.3,.19l-.1,5.16h-3.08l-.21-1.94c-.21-.07-.77-.2-1.68-.4-.91-.2-1.47-.29-1.68-.29-.14,0-.23,.08-.28,.23-.05,.15-.07,.27-.07,.36,0,.35,.27,.7,.8,1.07,.53,.37,1.23,.78,2.11,1.25,1.15,.65,2.04,1.17,2.67,1.57,.62,.4,1.19,.91,1.7,1.51,.51,.6,.76,1.26,.76,1.97,0,.95-.1,1.67-.31,2.18-.28,.44-.71,.98-1.32,1.63-.6,.65-1.22,1.2-1.85,1.66s-1.16,.69-1.57,.69c-.62,0-1.87-.05-3.74-.16Z"/><path class="e" d="M216.07,93.21c-.47-.43-.9-.92-1.28-1.47s-.57-1.02-.57-1.38v-9.97h-2.6v-2.28l2.6-.87,3.81-4.4c.18-.14,.91,.03,2.18,.52v4.05h3.56v3.01h-3.56v8.51c0,.42,.07,.7,.21,.87,.14,.16,.32,.25,.55,.28l3.22,.21v2.87c-1.18,.16-2.56,.32-4.15,.47-1.59,.15-2.56,.22-2.91,.22-.23,0-.58-.21-1.06-.64Z"/><path class="e" d="M230.33,91.84c-1.23-1.36-1.85-3.2-1.85-5.5,0-.99,.09-2.01,.28-3.05,.18-1.04,.4-1.87,.66-2.49,.32-.35,.96-.84,1.92-1.47,.96-.63,1.91-1.19,2.87-1.68,.96-.48,1.61-.73,1.96-.73,2.21,0,3.86,.66,4.95,1.99,1.08,1.33,1.63,3.61,1.63,6.84l-8.13,.69c0,.88,.17,1.64,.52,2.3s.84,.99,1.49,.99l5.54-.28v2.42c-.81,.3-2,.71-3.58,1.23-1.58,.52-2.56,.78-2.92,.78-2.31,0-4.08-.68-5.31-2.04Zm6.8-8.41c0-.95-.08-1.77-.24-2.47-.16-.7-.36-1.14-.59-1.3-.09-.05-.25-.09-.47-.12-.22-.03-.38-.05-.47-.05-.14,0-.29,.42-.45,1.25s-.28,1.86-.35,3.08l2.56-.38Z"/><path class="e" d="M249.37,93.21c-.52-.43-.78-.72-.78-.88v-11.66l-1.52-.52v-2.39c3.53-.53,5.49-.8,5.88-.8,.12,0,.38,.21,.78,.64,.4,.43,.61,.71,.61,.85v.66c.58-.51,1.18-.99,1.8-1.45,.62-.46,.99-.69,1.11-.69,2.58,0,4.26,.72,5.02,2.15,1.66-1.43,2.58-2.15,2.77-2.15,2.05,0,3.56,.36,4.52,1.09,.96,.73,1.44,2.01,1.44,3.86v8.2l1.49,.52v2.35c-3.44,.58-5.32,.87-5.64,.87-.16,0-.51-.21-1.04-.64-.53-.43-.8-.72-.8-.88v-10.35c0-.37-.1-.63-.31-.78-.21-.15-.43-.22-.66-.22-.09,0-.51,.22-1.25,.66v8.48l1.31,.52v2.35c-3.32,.58-5.14,.87-5.47,.87-.16,0-.51-.21-1.04-.64-.53-.43-.8-.72-.8-.88v-10.35c0-.37-.1-.63-.31-.78-.21-.15-.43-.22-.66-.22-.09,0-.51,.22-1.25,.66v8.48l1.31,.52v2.35c-3.32,.58-5.16,.87-5.5,.87-.16,0-.5-.21-1.02-.64Z"/></g><g><path class="e" d="M21.32,22.01c-.32-.35-.59-.74-.83-1.17-.24-.43-.34-.77-.32-1.02,.06-.29,.11-.63,.15-1.02l1.32-8.24h-2.15l.34-1.78,2.37-.95,3.45-3.63c.29,0,.82,.14,1.6,.43l-.52,3.51h2.95l-.43,2.43h-2.98c-.45,2.77-.78,4.79-.98,6.08-.21,1.28-.31,2.04-.31,2.26s.03,.39,.09,.49,.18,.16,.37,.18c.12,.02,.92,.03,2.4,.03l-.25,2.18c-.88,.14-1.96,.3-3.23,.48-1.27,.17-2.05,.26-2.34,.26-.14,0-.37-.17-.69-.52Z"/><path class="e" d="M46.76,8.29c.34,.39,.5,.66,.48,.8l-6.83,13.44-1.29,4.83c-.43,.14-.94,.28-1.54,.42-.6,.13-1.04,.2-1.32,.2-.25,0-.55-.16-.91-.48-.36-.32-.62-.61-.78-.88l2.89-4.55-2.49-.28-.83-10.89-1.51-.4,.22-1.88c3.08-.59,4.68-.89,4.8-.89,.08,0,.3,.18,.65,.55s.53,.63,.55,.77l-.03,6.68-.31,3.05h.46l3.42-8.06-1.54-.58,.34-2c.39-.06,1.19-.14,2.4-.25,1.21-.1,2.05-.16,2.52-.18,.1,0,.32,.19,.66,.58Z"/><path class="e" d="M62.79,8.91c.71,.8,1.06,1.94,1.06,3.41,0,1.15-.18,2.45-.55,3.89s-.78,2.55-1.23,3.31c-.66,.49-1.78,1.11-3.38,1.86-1.6,.75-2.61,1.12-3.04,1.12-.17,0-.58-.05-1.26-.15l-.46,2.61,1.29,.34-.31,1.85c-.6,.14-1.46,.31-2.6,.51-1.14,.19-1.88,.29-2.23,.29-.12,0-.33-.18-.62-.55-.29-.37-.42-.65-.4-.83l2.8-15.87-1.29-.34,.31-1.85c.64-.14,1.49-.31,2.55-.51,1.07-.19,1.76-.29,2.09-.29,.12,0,.32,.2,.6,.6,.28,.4,.41,.67,.38,.82l-.49,3.63h.28c1.91-3.36,2.91-5.04,3.01-5.04,1.62,0,2.78,.4,3.49,1.2Zm-4.89,10.26c.3-.6,.55-1.39,.77-2.37,.21-.97,.32-1.99,.32-3.06,0-.57-.07-.98-.21-1.21s-.39-.35-.74-.35c-.14,0-.92,.84-2.34,2.52l-.89,5.05c1.33,.35,2.1,.49,2.31,.43,.23-.06,.49-.39,.78-1Z"/><path class="e" d="M79.28,13.58c-.73,.84-1.68,1.5-2.86,1.97-1.18,.47-2.42,.73-3.71,.77v.74c0,.94,.13,1.61,.38,2,.26,.39,.7,.58,1.34,.58,.35,0,.76-.06,1.23-.18s.97-.26,1.51-.42,.9-.26,1.11-.32l.46,2.03c-.9,.39-1.99,.78-3.26,1.18-1.27,.4-2.07,.6-2.4,.6-1.64,0-2.93-.41-3.88-1.23s-1.42-1.99-1.42-3.51c0-1.09,.19-2.36,.57-3.81,.38-1.46,.77-2.54,1.18-3.26,.66-.51,1.8-1.14,3.45-1.89,1.64-.75,2.69-1.12,3.14-1.12,1.23,0,2.25,.23,3.05,.68s1.2,1.2,1.2,2.25c0,1.13-.36,2.11-1.09,2.95Zm-5.75-2.01c-.3,.87-.52,1.9-.66,3.09,.86-.14,1.59-.51,2.18-1.11,.59-.59,.89-1.34,.89-2.25,0-.39-.08-.7-.25-.92-.16-.23-.41-.34-.74-.34-.14,0-.3,.02-.46,.06-.35,.1-.67,.59-.97,1.46Z"/><path class="e" d="M91.01,6.23l-.34,1.85,3.17,.06-.46,2.46h-3.14l-1.57,8.95,1.78,.46-.37,2.03c-3.32,.33-5.08,.49-5.26,.49-.14,0-.35-.19-.63-.57-.28-.38-.41-.66-.38-.85l1.81-10.55h-1.85l.34-2,1.97-.58,.21-1.23c.06-.41,.46-1,1.2-1.78,.74-.78,1.54-1.48,2.4-2.11s1.49-.94,1.88-.94,1.03,.02,1.91,.06c.88,.04,1.49,.08,1.82,.12,.1,.14,.25,.41,.45,.8,.19,.39,.29,.64,.29,.74,0,.27-.43,1.05-1.29,2.34-.04-.02-.34-.15-.89-.4-1.31-.62-2.07-.92-2.28-.92-.33,0-.58,.52-.77,1.57Z"/><path class="e" d="M108.05,19.55l1.42,.34-.31,1.85c-.66,.14-1.51,.31-2.57,.51-1.06,.19-1.75,.29-2.08,.29-.12,0-.33-.18-.62-.55s-.42-.65-.4-.83l.49-3.66h-.31l-.31,.52c-1.68,2.99-2.58,4.49-2.71,4.49-1.62,0-2.78-.39-3.49-1.18-.71-.79-1.06-1.92-1.06-3.4,0-1.17,.18-2.47,.55-3.91,.37-1.44,.78-2.53,1.23-3.29,.64-.51,1.75-1.14,3.35-1.89,1.6-.75,2.62-1.12,3.08-1.12,.25,0,1.13,.12,2.65,.35,1.52,.24,2.53,.41,3.05,.51l-1.97,10.98Zm-3.78-3.97l.83-5.11c-.51-.14-.99-.26-1.43-.35-.44-.09-.71-.12-.82-.08-.25,.06-.52,.4-.82,1.02-.3,.62-.55,1.41-.77,2.38-.22,.97-.32,1.99-.32,3.06,0,.57,.08,.98,.23,1.22,.15,.24,.4,.35,.75,.35,.14,0,.92-.83,2.34-2.49Z"/><path class="e" d="M119.87,12.51c-.35,1.46-.52,2.99-.52,4.61,0,.92,.14,1.57,.42,1.95,.28,.38,.77,.57,1.49,.57h3.08l-.37,1.97c-.86,.23-1.79,.44-2.78,.63-1,.19-1.59,.29-1.8,.29-1.52,0-2.73-.43-3.63-1.28-.9-.85-1.35-2-1.35-3.46,0-1.07,.19-2.33,.57-3.78,.38-1.46,.77-2.55,1.18-3.29,.66-.51,1.81-1.14,3.46-1.89,1.65-.75,2.69-1.12,3.12-1.12s1.69,.11,3.72,.34l-1.17,5.35h-1.97l-.28-2.77c-.74-.39-1.28-.58-1.63-.58-.08,0-.18,.02-.31,.06-.47,.14-.88,.94-1.23,2.4Z"/><path class="e" d="M141.02,13.58c-.73,.84-1.68,1.5-2.86,1.97-1.18,.47-2.42,.73-3.71,.77v.74c0,.94,.13,1.61,.38,2,.26,.39,.7,.58,1.34,.58,.35,0,.76-.06,1.23-.18s.97-.26,1.51-.42,.9-.26,1.11-.32l.46,2.03c-.9,.39-1.99,.78-3.26,1.18-1.27,.4-2.07,.6-2.4,.6-1.64,0-2.93-.41-3.88-1.23s-1.42-1.99-1.42-3.51c0-1.09,.19-2.36,.57-3.81,.38-1.46,.77-2.54,1.18-3.26,.66-.51,1.8-1.14,3.45-1.89,1.64-.75,2.69-1.12,3.14-1.12,1.23,0,2.25,.23,3.05,.68s1.2,1.2,1.2,2.25c0,1.13-.36,2.11-1.09,2.95Zm-5.75-2.01c-.3,.87-.52,1.9-.66,3.09,.86-.14,1.59-.51,2.18-1.11,.59-.59,.89-1.34,.89-2.25,0-.39-.08-.7-.25-.92-.16-.23-.41-.34-.74-.34-.14,0-.3,.02-.46,.06-.35,.1-.67,.59-.97,1.46Z"/><path class="e" d="M162.12,14.75c.44,.35,.83,.78,1.17,1.29,.34,.51,.51,1.1,.51,1.75,0,.27-.03,.59-.09,.97-.06,.38-.15,.7-.28,.97-.49,.57-1.26,1.18-2.31,1.83s-1.76,.97-2.15,.97c-2.05,0-4.37-.15-6.95-.46l.98-5.23h1.94l.34,2.58c.57,.18,1.14,.35,1.69,.49s.95,.22,1.2,.22c.16,0,.33-.12,.51-.35,.17-.24,.26-.49,.26-.75,0-.62-.71-1.35-2.12-2.22-1.09-.68-1.91-1.31-2.46-1.89s-.83-1.33-.83-2.23c0-.33,.05-.71,.14-1.15,.09-.44,.21-.78,.35-1.03,.62-.55,1.42-1.16,2.43-1.81s1.66-.98,1.97-.98c1.39,0,3.44,.15,6.12,.46l-.92,4.74h-1.94l-.4-2.15c-1.56-.41-2.53-.62-2.92-.62-.12,0-.26,.09-.42,.28-.15,.18-.23,.4-.23,.65,0,.35,.16,.67,.49,.95,.33,.29,.84,.65,1.54,1.08l.55,.37c.78,.51,1.39,.94,1.83,1.29Z"/><path class="e" d="M182.39,8.29c.34,.39,.5,.66,.48,.8l-6.83,13.44-1.29,4.83c-.43,.14-.94,.28-1.54,.42-.6,.13-1.04,.2-1.32,.2-.25,0-.55-.16-.91-.48-.36-.32-.62-.61-.78-.88l2.89-4.55-2.49-.28-.83-10.89-1.51-.4,.22-1.88c3.08-.59,4.68-.89,4.8-.89,.08,0,.3,.18,.65,.55s.53,.63,.55,.77l-.03,6.68-.31,3.05h.46l3.42-8.06-1.54-.58,.34-2c.39-.06,1.19-.14,2.4-.25,1.21-.1,2.05-.16,2.52-.18,.1,0,.32,.19,.66,.58Z"/><path class="e" d="M195,14.75c.44,.35,.83,.78,1.17,1.29,.34,.51,.51,1.1,.51,1.75,0,.27-.03,.59-.09,.97-.06,.38-.15,.7-.28,.97-.49,.57-1.26,1.18-2.31,1.83s-1.76,.97-2.15,.97c-2.05,0-4.37-.15-6.95-.46l.98-5.23h1.94l.34,2.58c.57,.18,1.14,.35,1.69,.49s.95,.22,1.2,.22c.16,0,.33-.12,.51-.35,.17-.24,.26-.49,.26-.75,0-.62-.71-1.35-2.12-2.22-1.09-.68-1.91-1.31-2.46-1.89s-.83-1.33-.83-2.23c0-.33,.05-.71,.14-1.15,.09-.44,.21-.78,.35-1.03,.62-.55,1.42-1.16,2.43-1.81s1.66-.98,1.97-.98c1.39,0,3.44,.15,6.12,.46l-.92,4.74h-1.94l-.4-2.15c-1.56-.41-2.53-.62-2.92-.62-.12,0-.26,.09-.42,.28-.15,.18-.23,.4-.23,.65,0,.35,.16,.67,.49,.95,.33,.29,.84,.65,1.54,1.08l.55,.37c.78,.51,1.39,.94,1.83,1.29Z"/><path class="e" d="M202.85,22.01c-.32-.35-.59-.74-.83-1.17-.24-.43-.34-.77-.32-1.02,.06-.29,.11-.63,.15-1.02l1.32-8.24h-2.15l.34-1.78,2.37-.95,3.45-3.63c.29,0,.82,.14,1.6,.43l-.52,3.51h2.95l-.43,2.43h-2.98c-.45,2.77-.78,4.79-.98,6.08-.21,1.28-.31,2.04-.31,2.26s.03,.39,.09,.49,.18,.16,.37,.18c.12,.02,.92,.03,2.4,.03l-.25,2.18c-.88,.14-1.96,.3-3.23,.48-1.27,.17-2.05,.26-2.34,.26-.14,0-.37-.17-.69-.52Z"/><path class="e" d="M225.46,13.58c-.73,.84-1.68,1.5-2.86,1.97-1.18,.47-2.42,.73-3.71,.77v.74c0,.94,.13,1.61,.38,2,.26,.39,.7,.58,1.34,.58,.35,0,.76-.06,1.23-.18s.97-.26,1.51-.42,.9-.26,1.11-.32l.46,2.03c-.9,.39-1.99,.78-3.26,1.18-1.27,.4-2.07,.6-2.4,.6-1.64,0-2.93-.41-3.88-1.23s-1.42-1.99-1.42-3.51c0-1.09,.19-2.36,.57-3.81,.38-1.46,.77-2.54,1.18-3.26,.66-.51,1.8-1.14,3.45-1.89,1.64-.75,2.69-1.12,3.14-1.12,1.23,0,2.25,.23,3.05,.68s1.2,1.2,1.2,2.25c0,1.13-.36,2.11-1.09,2.95Zm-5.75-2.01c-.3,.87-.52,1.9-.66,3.09,.86-.14,1.59-.51,2.18-1.11,.59-.59,.89-1.34,.89-2.25,0-.39-.08-.7-.25-.92-.16-.23-.41-.34-.74-.34-.14,0-.3,.02-.46,.06-.35,.1-.67,.59-.97,1.46Z"/><path class="e" d="M249.41,19.64l1.29,.34-.31,1.85c-3.06,.47-4.66,.71-4.8,.71-.12,0-.33-.18-.62-.55-.29-.37-.42-.65-.4-.83l1.26-6.92c.06-.41,.09-.76,.09-1.05,0-.31-.05-.53-.15-.68-.1-.14-.28-.22-.52-.22-.1,0-.84,.83-2.21,2.49-.51,2.85-.77,4.41-.77,4.68,0,.47,.17,.8,.52,.98l-.12,1.57c-.66,.1-1.44,.21-2.34,.31s-1.56,.17-1.97,.22c-.14,0-.36-.19-.65-.57-.29-.38-.41-.65-.37-.81l1.23-6.92c.08-.53,.12-.88,.12-1.05,0-.31-.05-.53-.15-.68-.1-.14-.28-.22-.52-.22-.1,0-.85,.84-2.25,2.52l-.71,4.37c-.02,.1-.03,.23-.03,.37,0,.41,.17,.71,.52,.89l-.15,1.57c-2.71,.35-4.13,.52-4.28,.52s-.36-.19-.65-.57c-.29-.38-.41-.65-.37-.81l1.88-10.46-1.42-.34,.31-1.85c.62-.14,1.48-.31,2.58-.51,1.11-.19,1.83-.29,2.15-.29,.12,0,.32,.19,.58,.58s.39,.67,.37,.83l-.52,3.78h.28c1.83-3.45,2.8-5.17,2.92-5.17,1.56,0,2.67,.25,3.32,.75,.66,.5,.98,1.35,.98,2.54,0,.43-.07,1.06-.22,1.88h.22c.12-.25,.23-.43,.31-.55,.16-.31,.62-1.15,1.38-2.54s1.17-2.08,1.23-2.08c1.56,0,2.68,.26,3.37,.77,.69,.51,1.03,1.35,1.03,2.52,0,.43-.07,1.06-.22,1.88l-1.26,6.74Z"/></g><g><path class="e" d="M18.19,169.15c-.42-.37-.8-.79-1.13-1.26s-.49-.86-.49-1.16v-9.94h-2.29v-1.67l2.29-.92,2.84-3.33c.2-.07,.75,.1,1.67,.49v3.07h3.3v2.45h-3.3v8.47c0,.5,.06,.85,.18,1.05,.12,.2,.31,.29,.57,.29l2.88,.16v2.22c-1.05,.15-2.16,.29-3.35,.42s-1.91,.2-2.17,.2c-.24,0-.57-.19-1-.56Z"/><path class="e" d="M33.89,174.54c-.31-.54-.45-.88-.42-1.01l1.47-4.25-1.37,.2c-.07,0-.28-.12-.65-.36l-3.24-12.13-1.41-.42v-1.86c2.57-.41,3.97-.62,4.18-.62,.13,0,.41,.15,.83,.46,.42,.31,.66,.53,.7,.69l1.5,7.35,.39,3.27h.33l2.26-9.12-2.09-.26v-2.03l5.13-.36c.11,0,.31,.2,.61,.61,.29,.4,.43,.68,.41,.83l-4.28,13.47-.78,3.53,1.6,.59-.07,1.7c-2.72,.37-4.22,.56-4.48,.56-.11,0-.32-.27-.62-.82Z"/><path class="e" d="M48.32,174.82c-.36-.36-.54-.6-.54-.74l.2-5.65v-11.44l-1.31-.49v-1.8c2.7-.44,4.17-.65,4.41-.65,.11,0,.34,.18,.7,.54,.36,.36,.54,.6,.54,.74v.95c1.9-1.48,2.91-2.22,3.04-2.22,1.68,0,3.02,.64,4.04,1.91s1.52,3.04,1.52,5.31c0,.98-.08,1.92-.25,2.83-.16,.9-.37,1.62-.6,2.14-.41,.5-1.35,1.2-2.81,2.11-1.46,.9-2.41,1.36-2.84,1.36-.22,0-.88-.08-1.99-.23v2.88l1.37,.49v1.86c-.48,.11-1.34,.25-2.58,.41-1.24,.16-1.97,.25-2.19,.25-.11,0-.34-.18-.7-.54Zm7.79-13.09c0-.87-.08-1.64-.23-2.32-.15-.67-.35-1.2-.59-1.58-.24-.38-.48-.57-.72-.57-.13,0-.83,.32-2.09,.95v8.33c.44,.24,.9,.46,1.39,.65s.87,.29,1.13,.29c.74,0,1.11-1.92,1.11-5.75Z"/><path class="e" d="M67.7,167.87c-1.12-1.24-1.68-2.97-1.68-5.2,0-1,.08-1.98,.25-2.93,.16-.95,.35-1.68,.57-2.21,.26-.33,.8-.78,1.62-1.36,.82-.58,1.63-1.09,2.45-1.54,.82-.45,1.38-.67,1.68-.67,1.29,0,2.35,.23,3.19,.69,.84,.46,1.48,1.26,1.93,2.4,.45,1.14,.67,2.73,.67,4.76l-7.71,.65c0,1.29,.24,2.28,.72,2.97s1.04,1.05,1.67,1.05l4.8-.23v1.9c-.85,.28-1.92,.62-3.22,1-1.3,.38-2.11,.57-2.44,.57-1.87,0-3.37-.62-4.49-1.86Zm6.26-7.84c0-1.07-.11-1.93-.34-2.6-.23-.66-.58-1.04-1.06-1.13-.11-.02-.32-.03-.62-.03-.22,0-.36,.01-.42,.03-.17,.07-.35,.51-.52,1.32-.17,.82-.28,1.77-.33,2.86l3.3-.46Z"/><path class="e" d="M85.01,169.15c-.44-.37-.65-.61-.65-.72v-11.64h-1.73v-1.9l1.73-.62v-1.27c0-.44,.32-1.07,.95-1.9,.63-.83,1.34-1.57,2.12-2.24,.79-.66,1.38-1,1.8-1s1.01,.02,1.78,.07c.77,.04,1.52,.1,2.24,.16,.13,.09,.28,.3,.44,.64,.16,.34,.25,.57,.25,.7,0,.09-.13,.44-.39,1.05-.26,.61-.46,1.05-.59,1.31-2.07-.83-3.27-1.24-3.6-1.24-.11,0-.22,.15-.33,.46-.11,.31-.16,.68-.16,1.11v2.32h3.37v2.39h-3.37v9.77l1.9,.65v1.7c-3.03,.5-4.67,.75-4.94,.75-.11,0-.38-.19-.82-.56Z"/><path class="e" d="M97.89,167.82c-1-1.25-1.5-3-1.5-5.25,0-.96,.08-1.91,.25-2.84,.16-.94,.35-1.67,.57-2.19,.41-.52,1.35-1.24,2.81-2.14s2.42-1.36,2.88-1.36c.22,0,1.16,.13,2.83,.39,1.67,.26,2.87,.45,3.61,.56v11.77l1.31,.49v1.8c-2.66,.44-4.13,.65-4.41,.65-.11,0-.34-.18-.7-.54s-.54-.59-.54-.7v-.95c-1.85,1.46-2.87,2.19-3.04,2.19-1.7,0-3.05-.63-4.05-1.88Zm6.93-2.27v-8.3c-.44-.24-.9-.46-1.41-.67s-.88-.31-1.14-.31c-.35,0-.62,.47-.8,1.41-.19,.94-.28,2.45-.28,4.54,0,1.24,.16,2.27,.47,3.07,.32,.81,.67,1.21,1.06,1.21,.13,0,.83-.32,2.09-.95Z"/><path class="e" d="M116.91,167.84c-1-1.24-1.5-2.96-1.5-5.16,0-.98,.08-1.94,.25-2.88,.16-.94,.35-1.67,.57-2.19,.26-.35,.79-.81,1.58-1.37,.79-.57,1.6-1.07,2.4-1.52,.81-.45,1.35-.67,1.63-.67,.57,0,1.24,.07,2.03,.2s1.5,.3,2.16,.52l-.1,4.8h-2.58l-.56-2.55c-.61-.33-1.11-.49-1.5-.49-.17,0-.31,.04-.39,.13-.24,.2-.43,.77-.57,1.73-.14,.96-.21,2.14-.21,3.53s.2,2.46,.6,3.25c.4,.79,.94,1.19,1.62,1.19h3.69v1.9c-2.72,.96-4.43,1.44-5.13,1.44-1.66,0-2.99-.62-3.99-1.86Z"/><path class="e" d="M132.65,167.87c-1.12-1.24-1.68-2.97-1.68-5.2,0-1,.08-1.98,.25-2.93,.16-.95,.35-1.68,.57-2.21,.26-.33,.8-.78,1.62-1.36,.82-.58,1.63-1.09,2.45-1.54,.82-.45,1.38-.67,1.68-.67,1.29,0,2.35,.23,3.19,.69,.84,.46,1.48,1.26,1.93,2.4,.45,1.14,.67,2.73,.67,4.76l-7.71,.65c0,1.29,.24,2.28,.72,2.97s1.04,1.05,1.67,1.05l4.8-.23v1.9c-.85,.28-1.92,.62-3.22,1-1.3,.38-2.11,.57-2.44,.57-1.87,0-3.37-.62-4.49-1.86Zm6.26-7.84c0-1.07-.11-1.93-.34-2.6-.23-.66-.58-1.04-1.06-1.13-.11-.02-.32-.03-.62-.03-.22,0-.36,.01-.42,.03-.17,.07-.35,.51-.52,1.32-.17,.82-.28,1.77-.33,2.86l3.3-.46Z"/><path class="e" d="M160.45,169.56c-1.59-.1-2.8-.19-3.63-.28l.07-5.26h2.19l.69,2.58c.52,.17,1.14,.34,1.86,.51,.72,.16,1.23,.25,1.54,.25,.15,0,.31-.2,.46-.59,.15-.39,.23-.7,.23-.92,0-.44-.16-.79-.47-1.06-.32-.27-.89-.63-1.72-1.06-.48-.24-.85-.44-1.11-.59-1.42-.81-2.38-1.53-2.89-2.16-.51-.63-.77-1.37-.77-2.22,0-.7,.08-1.26,.23-1.7,.41-.57,1.09-1.2,2.03-1.91,.94-.71,1.61-1.06,2.03-1.06,.83,0,1.9,.03,3.22,.08,1.32,.05,2.28,.11,2.89,.18l-.1,4.48h-2.45l-.23-1.8c-.2-.07-.74-.18-1.63-.34-.89-.16-1.45-.25-1.67-.25-.17,0-.3,.09-.38,.26-.08,.17-.11,.39-.11,.65,0,.35,.2,.68,.59,.98,.39,.3,.79,.58,1.19,.82,.4,.24,.67,.39,.8,.46l.65,.39c1.29,.72,2.29,1.39,3.02,2.01,.73,.62,1.09,1.35,1.09,2.17,0,.74-.09,1.37-.26,1.9-.39,.68-1.05,1.45-1.98,2.32-.93,.87-1.65,1.31-2.17,1.31s-1.61-.05-3.2-.15Z"/><path class="e" d="M177.44,174.54c-.31-.54-.45-.88-.42-1.01l1.47-4.25-1.37,.2c-.07,0-.28-.12-.65-.36l-3.24-12.13-1.41-.42v-1.86c2.57-.41,3.97-.62,4.18-.62,.13,0,.41,.15,.83,.46,.42,.31,.66,.53,.7,.69l1.5,7.35,.39,3.27h.33l2.26-9.12-2.09-.26v-2.03l5.13-.36c.11,0,.31,.2,.61,.61,.29,.4,.43,.68,.41,.83l-4.28,13.47-.78,3.53,1.6,.59-.07,1.7c-2.72,.37-4.22,.56-4.48,.56-.11,0-.32-.27-.62-.82Z"/><path class="e" d="M194.05,169.56c-1.59-.1-2.8-.19-3.63-.28l.07-5.26h2.19l.69,2.58c.52,.17,1.14,.34,1.86,.51,.72,.16,1.23,.25,1.54,.25,.15,0,.31-.2,.46-.59,.15-.39,.23-.7,.23-.92,0-.44-.16-.79-.47-1.06-.32-.27-.89-.63-1.72-1.06-.48-.24-.85-.44-1.11-.59-1.42-.81-2.38-1.53-2.89-2.16-.51-.63-.77-1.37-.77-2.22,0-.7,.08-1.26,.23-1.7,.41-.57,1.09-1.2,2.03-1.91,.94-.71,1.61-1.06,2.03-1.06,.83,0,1.9,.03,3.22,.08,1.32,.05,2.28,.11,2.89,.18l-.1,4.48h-2.45l-.23-1.8c-.2-.07-.74-.18-1.63-.34-.89-.16-1.45-.25-1.67-.25-.17,0-.3,.09-.38,.26-.08,.17-.11,.39-.11,.65,0,.35,.2,.68,.59,.98,.39,.3,.79,.58,1.19,.82,.4,.24,.67,.39,.8,.46l.65,.39c1.29,.72,2.29,1.39,3.02,2.01,.73,.62,1.09,1.35,1.09,2.17,0,.74-.09,1.37-.26,1.9-.39,.68-1.05,1.45-1.98,2.32-.93,.87-1.65,1.31-2.17,1.31s-1.61-.05-3.2-.15Z"/><path class="e" d="M209.33,169.15c-.42-.37-.8-.79-1.13-1.26s-.49-.86-.49-1.16v-9.94h-2.29v-1.67l2.29-.92,2.84-3.33c.2-.07,.75,.1,1.67,.49v3.07h3.3v2.45h-3.3v8.47c0,.5,.06,.85,.18,1.05,.12,.2,.31,.29,.57,.29l2.88,.16v2.22c-1.05,.15-2.16,.29-3.35,.42s-1.91,.2-2.17,.2c-.24,0-.57-.19-1-.56Z"/><path class="e" d="M222.01,167.87c-1.12-1.24-1.68-2.97-1.68-5.2,0-1,.08-1.98,.25-2.93,.16-.95,.35-1.68,.57-2.21,.26-.33,.8-.78,1.62-1.36,.82-.58,1.63-1.09,2.45-1.54,.82-.45,1.38-.67,1.68-.67,1.29,0,2.35,.23,3.19,.69,.84,.46,1.48,1.26,1.93,2.4,.45,1.14,.67,2.73,.67,4.76l-7.71,.65c0,1.29,.24,2.28,.72,2.97s1.04,1.05,1.67,1.05l4.8-.23v1.9c-.85,.28-1.92,.62-3.22,1-1.3,.38-2.11,.57-2.44,.57-1.87,0-3.37-.62-4.49-1.86Zm6.26-7.84c0-1.07-.11-1.93-.34-2.6-.23-.66-.58-1.04-1.06-1.13-.11-.02-.32-.03-.62-.03-.22,0-.36,.01-.42,.03-.17,.07-.35,.51-.52,1.32-.17,.82-.28,1.77-.33,2.86l3.3-.46Z"/><path class="e" d="M239.3,169.16c-.42-.36-.64-.6-.64-.74v-11.41l-1.31-.49v-1.8c2.68-.44,4.17-.65,4.48-.65,.11,0,.33,.18,.67,.54,.34,.36,.51,.59,.51,.7v.92c.54-.46,1.13-.93,1.75-1.42,.62-.49,.98-.74,1.06-.74,1.16,0,2.11,.17,2.88,.51,.76,.34,1.33,.89,1.7,1.65,1.61-1.44,2.5-2.16,2.65-2.16,1.85,0,3.22,.37,4.1,1.11,.88,.74,1.32,2.05,1.32,3.92v7.62l1.31,.49v1.8c-2.64,.46-4.08,.69-4.31,.69-.13,0-.41-.18-.85-.54-.44-.36-.65-.6-.65-.74v-9.28c0-1.24-.47-1.86-1.41-1.86-.13,0-.71,.29-1.73,.88v8.56l1.21,.49v1.8c-2.57,.46-3.98,.69-4.22,.69-.13,0-.41-.18-.85-.54-.44-.36-.65-.6-.65-.74v-9.28c0-1.24-.44-1.86-1.31-1.86-.15,0-.76,.29-1.83,.88v8.56l1.21,.49v1.8c-2.57,.46-3.99,.69-4.25,.69-.13,0-.41-.18-.83-.54Z"/></g><g><path class="e" d="M23.59,205.69c-.29-.31-.55-.66-.79-1.06-.24-.4-.35-.72-.35-.97,0-.39,.5-3.59,1.51-9.6h-2.06l.25-1.57,2.28-.89,3.08-3.35c.25,0,.72,.15,1.42,.46l-.46,3.14h2.92l-.37,2.21h-2.95l-.52,3.17c-.29,1.74-.5,3.05-.63,3.91-.13,.86-.2,1.39-.2,1.6,0,.23,.03,.39,.09,.49s.17,.16,.34,.18c.14,.04,.95,.06,2.43,.06l-.22,1.94c-.84,.17-1.83,.33-2.97,.49-1.14,.16-1.85,.25-2.14,.25-.14,0-.36-.15-.65-.46Z"/><path class="e" d="M48.09,192c.3,.35,.44,.59,.42,.74l-6.77,13.41-1.32,4.83c-.39,.12-.85,.25-1.37,.38-.52,.13-.9,.2-1.12,.2s-.51-.15-.86-.46c-.35-.31-.6-.57-.74-.8l2.86-4.65-2.31-.28-.83-10.92-1.57-.43,.18-1.6,1.08-.25c.49-.1,1.07-.23,1.72-.38,.66-.15,1.18-.26,1.57-.32,.08,0,.29,.17,.63,.51,.34,.34,.51,.58,.51,.72l.09,6.89-.25,3.23h.49l3.66-8.61-1.54-.55,.28-1.75c.31-.06,1.03-.14,2.17-.25,1.14-.1,1.94-.16,2.42-.18,.1,0,.3,.17,.6,.52Z"/><path class="e" d="M63.6,192.66c.69,.79,1.03,1.92,1.03,3.4,0,1.19-.17,2.48-.52,3.88-.35,1.4-.75,2.46-1.2,3.2-.55,.47-1.59,1.09-3.12,1.85-1.53,.76-2.5,1.14-2.91,1.14-.27,0-.79-.06-1.57-.18l-.49,2.83,1.32,.34-.28,1.6c-.68,.16-1.51,.34-2.51,.54-1,.19-1.63,.29-1.89,.29-.12,0-.32-.17-.58-.52-.27-.35-.39-.6-.37-.74l2.8-16.03-1.29-.34,.28-1.6c.14-.02,.8-.16,1.98-.43,1.18-.27,1.93-.4,2.26-.4,.12,0,.32,.17,.58,.52,.27,.35,.39,.59,.37,.74l-.58,3.85h.25c1.95-3.4,2.97-5.11,3.08-5.11,1.56,0,2.68,.4,3.37,1.18Zm-4.42,10.23c.33-.63,.61-1.47,.83-2.49s.34-2.11,.34-3.26c0-.64-.08-1.1-.25-1.38s-.41-.43-.74-.43c-.08,0-.35,.28-.81,.83-.46,.55-.95,1.16-1.46,1.81l-.52,.68-.83,4.83c.57,.16,1.11,.29,1.6,.38,.49,.09,.81,.12,.95,.08,.27-.06,.56-.41,.89-1.05Z"/><path class="e" d="M79.55,197.17c-.74,.82-1.69,1.46-2.85,1.92-1.16,.46-2.34,.73-3.55,.82-.02,.16-.03,.41-.03,.74,0,1,.13,1.72,.4,2.15,.27,.43,.74,.65,1.42,.65,.29,0,.69-.07,1.2-.2,.51-.13,1.04-.28,1.57-.45l.98-.28,.46,1.82c-.86,.39-1.92,.79-3.17,1.2-1.25,.41-2.04,.62-2.37,.62-1.5,0-2.68-.42-3.55-1.26-.87-.84-1.31-1.99-1.31-3.45,0-1.11,.18-2.36,.54-3.77,.36-1.4,.74-2.48,1.15-3.21,.59-.47,1.67-1.09,3.23-1.85s2.54-1.14,2.95-1.14c1.19,0,2.16,.22,2.91,.66,.75,.44,1.12,1.17,1.12,2.2s-.37,2.01-1.11,2.83Zm-5.54-1.97c-.33,.88-.57,1.93-.74,3.14,.9-.14,1.7-.53,2.38-1.17,.69-.64,1.03-1.4,1.03-2.31,0-.39-.09-.7-.28-.92-.18-.22-.46-.34-.83-.34-.23,0-.4,.03-.52,.09-.37,.12-.72,.63-1.05,1.51Z"/><path class="e" d="M90.99,189.79l-.34,2,3.08,.06-.4,2.25h-3.08l-1.6,9.29,1.66,.46-.31,1.81c-2.95,.33-4.52,.49-4.71,.49-.12,0-.32-.17-.6-.52-.28-.35-.41-.6-.38-.77l1.88-10.8h-1.72l.28-1.78,1.85-.58,.21-1.2c.06-.41,.45-1,1.15-1.78,.71-.78,1.47-1.48,2.28-2.11,.81-.62,1.4-.94,1.77-.94,.35,0,.92,.02,1.71,.06s1.35,.08,1.68,.12c.1,.1,.25,.33,.43,.68s.28,.57,.28,.68c-.02,.14-.17,.46-.45,.95-.28,.49-.53,.89-.75,1.2-.51-.23-1.12-.48-1.82-.75-.7-.28-1.12-.42-1.26-.42-.37,0-.65,.53-.83,1.6Z"/><path class="e" d="M107.57,203.38l1.38,.34-.28,1.6c-.14,.04-.8,.19-1.98,.45-1.18,.26-1.92,.38-2.23,.38-.12,0-.32-.17-.58-.51-.27-.34-.39-.59-.37-.75l.55-3.88h-.31l-.68,1.17c-.53,.96-1.05,1.86-1.55,2.69-.5,.83-.78,1.25-.85,1.25-2.93,0-4.4-1.53-4.4-4.58,0-1.19,.18-2.48,.54-3.88,.36-1.39,.75-2.46,1.18-3.2,.57-.47,1.62-1.09,3.15-1.85,1.53-.76,2.49-1.14,2.88-1.14,.27,0,1.13,.11,2.58,.32,1.46,.22,2.43,.38,2.92,.48l-1.97,11.11Zm-4.97-2.18c.58-.72,1.17-1.47,1.77-2.25l.8-4.83c-.57-.16-1.11-.29-1.6-.38-.49-.09-.81-.12-.95-.08-.27,.06-.56,.42-.88,1.06-.32,.65-.59,1.48-.82,2.49-.23,1.02-.34,2.1-.34,3.25,0,.64,.08,1.1,.25,1.38,.16,.29,.41,.43,.74,.43,.1,0,.45-.36,1.03-1.08Z"/><path class="e" d="M119.6,194.91c-.31,.71-.55,1.58-.74,2.63s-.28,2.1-.28,3.17c0,1,.15,1.71,.46,2.12,.31,.41,.8,.62,1.48,.62h3.04l-.34,1.78c-.88,.23-1.77,.44-2.66,.63-.89,.2-1.44,.29-1.65,.29-1.48,0-2.63-.43-3.46-1.29-.83-.86-1.25-2-1.25-3.41,0-1.13,.17-2.39,.52-3.8,.35-1.4,.74-2.47,1.17-3.18,.59-.47,1.67-1.09,3.23-1.85s2.53-1.14,2.92-1.14c.37,0,1.57,.11,3.6,.34l-1.08,5.11h-1.75l-.31-2.74c-.7-.37-1.26-.55-1.69-.55-.08,0-.18,.02-.31,.06-.31,.1-.62,.51-.92,1.22Z"/><path class="e" d="M139.63,197.17c-.74,.82-1.69,1.46-2.85,1.92-1.16,.46-2.34,.73-3.55,.82-.02,.16-.03,.41-.03,.74,0,1,.13,1.72,.4,2.15,.27,.43,.74,.65,1.42,.65,.29,0,.69-.07,1.2-.2,.51-.13,1.04-.28,1.57-.45l.98-.28,.46,1.82c-.86,.39-1.92,.79-3.17,1.2-1.25,.41-2.04,.62-2.37,.62-1.5,0-2.68-.42-3.55-1.26-.87-.84-1.31-1.99-1.31-3.45,0-1.11,.18-2.36,.54-3.77,.36-1.4,.74-2.48,1.15-3.21,.59-.47,1.67-1.09,3.23-1.85s2.54-1.14,2.95-1.14c1.19,0,2.16,.22,2.91,.66,.75,.44,1.12,1.17,1.12,2.2s-.37,2.01-1.11,2.83Zm-5.54-1.97c-.33,.88-.57,1.93-.74,3.14,.9-.14,1.7-.53,2.38-1.17,.69-.64,1.03-1.4,1.03-2.31,0-.39-.09-.7-.28-.92-.18-.22-.46-.34-.83-.34-.23,0-.4,.03-.52,.09-.37,.12-.72,.63-1.05,1.51Z"/><path class="e" d="M160.33,198.46c.45,.35,.85,.77,1.2,1.28,.35,.5,.52,1.05,.52,1.65,0,.25-.04,.56-.11,.94-.07,.38-.17,.7-.29,.97-.45,.57-1.19,1.2-2.21,1.86s-1.73,1-2.12,1c-1.7,0-3.87-.17-6.49-.49l.92-4.98h1.69l.4,2.49c1.54,.47,2.53,.71,2.98,.71,.16,0,.35-.14,.55-.43,.21-.29,.31-.55,.31-.8,0-.7-.75-1.48-2.25-2.34-1.05-.62-1.83-1.21-2.35-1.8-.52-.58-.78-1.3-.78-2.14,0-.31,.04-.67,.12-1.08,.08-.41,.19-.74,.34-.99,.55-.55,1.33-1.16,2.32-1.83,1-.67,1.63-1,1.89-1,.78,0,1.71,.05,2.78,.14,1.08,.09,2.06,.21,2.94,.35l-.86,4.46h-1.66l-.4-2.09c-.59-.16-1.19-.31-1.8-.43-.61-.12-1-.18-1.18-.18-.14,0-.31,.11-.49,.32-.18,.21-.28,.49-.28,.81,0,.35,.16,.67,.48,.95,.32,.29,.69,.56,1.12,.83s.73,.45,.89,.55c.76,.49,1.36,.91,1.81,1.26Z"/><path class="e" d="M180.19,192c.3,.35,.44,.59,.42,.74l-6.77,13.41-1.32,4.83c-.39,.12-.85,.25-1.37,.38-.52,.13-.9,.2-1.12,.2s-.51-.15-.86-.46c-.35-.31-.6-.57-.74-.8l2.86-4.65-2.31-.28-.83-10.92-1.57-.43,.18-1.6,1.08-.25c.49-.1,1.07-.23,1.72-.38,.66-.15,1.18-.26,1.57-.32,.08,0,.29,.17,.63,.51,.34,.34,.51,.58,.51,.72l.09,6.89-.25,3.23h.49l3.66-8.61-1.54-.55,.28-1.75c.31-.06,1.03-.14,2.17-.25,1.14-.1,1.94-.16,2.42-.18,.1,0,.3,.17,.6,.52Z"/><path class="e" d="M192.2,198.46c.45,.35,.85,.77,1.2,1.28,.35,.5,.52,1.05,.52,1.65,0,.25-.04,.56-.11,.94-.07,.38-.17,.7-.29,.97-.45,.57-1.19,1.2-2.21,1.86s-1.73,1-2.12,1c-1.7,0-3.87-.17-6.49-.49l.92-4.98h1.69l.4,2.49c1.54,.47,2.53,.71,2.98,.71,.16,0,.35-.14,.55-.43,.21-.29,.31-.55,.31-.8,0-.7-.75-1.48-2.25-2.34-1.05-.62-1.83-1.21-2.35-1.8-.52-.58-.78-1.3-.78-2.14,0-.31,.04-.67,.12-1.08,.08-.41,.19-.74,.34-.99,.55-.55,1.33-1.16,2.32-1.83,1-.67,1.63-1,1.89-1,.78,0,1.71,.05,2.78,.14,1.08,.09,2.06,.21,2.94,.35l-.86,4.46h-1.66l-.4-2.09c-.59-.16-1.19-.31-1.8-.43-.61-.12-1-.18-1.18-.18-.14,0-.31,.11-.49,.32-.18,.21-.28,.49-.28,.81,0,.35,.16,.67,.48,.95,.32,.29,.69,.56,1.12,.83s.73,.45,.89,.55c.76,.49,1.36,.91,1.81,1.26Z"/><path class="e" d="M200.29,205.69c-.29-.31-.55-.66-.79-1.06-.24-.4-.35-.72-.35-.97,0-.39,.5-3.59,1.51-9.6h-2.06l.25-1.57,2.28-.89,3.08-3.35c.25,0,.72,.15,1.42,.46l-.46,3.14h2.92l-.37,2.21h-2.95l-.52,3.17c-.29,1.74-.5,3.05-.63,3.91-.13,.86-.2,1.39-.2,1.6,0,.23,.03,.39,.09,.49s.17,.16,.34,.18c.14,.04,.95,.06,2.43,.06l-.22,1.94c-.84,.17-1.83,.33-2.97,.49-1.14,.16-1.85,.25-2.14,.25-.14,0-.36-.15-.65-.46Z"/><path class="e" d="M221.82,197.17c-.74,.82-1.69,1.46-2.85,1.92-1.16,.46-2.34,.73-3.55,.82-.02,.16-.03,.41-.03,.74,0,1,.13,1.72,.4,2.15,.27,.43,.74,.65,1.42,.65,.29,0,.69-.07,1.2-.2,.51-.13,1.04-.28,1.57-.45l.98-.28,.46,1.82c-.86,.39-1.92,.79-3.17,1.2-1.25,.41-2.04,.62-2.37,.62-1.5,0-2.68-.42-3.55-1.26-.87-.84-1.31-1.99-1.31-3.45,0-1.11,.18-2.36,.54-3.77,.36-1.4,.74-2.48,1.15-3.21,.59-.47,1.67-1.09,3.23-1.85s2.54-1.14,2.95-1.14c1.19,0,2.16,.22,2.91,.66,.75,.44,1.12,1.17,1.12,2.2s-.37,2.01-1.11,2.83Zm-5.54-1.97c-.33,.88-.57,1.93-.74,3.14,.9-.14,1.7-.53,2.38-1.17,.69-.64,1.03-1.4,1.03-2.31,0-.39-.09-.7-.28-.92-.18-.22-.46-.34-.83-.34-.23,0-.4,.03-.52,.09-.37,.12-.72,.63-1.05,1.51Z"/><path class="e" d="M245.39,203.44l1.29,.34-.25,1.6c-2.79,.51-4.26,.77-4.4,.77-.12,0-.32-.17-.58-.51-.27-.34-.39-.59-.37-.75l1.35-7.54c.08-.49,.12-.82,.12-.98,0-.33-.06-.57-.17-.72-.11-.15-.3-.23-.57-.23-.12,0-1.05,1.1-2.77,3.29l-.15,.89c-.37,2.21-.55,3.41-.55,3.6,0,.53,.16,.88,.49,1.05l-.09,1.32c-.6,.1-1.29,.21-2.09,.34-.8,.12-1.38,.2-1.75,.25-.12,0-.32-.17-.6-.51-.28-.34-.41-.59-.38-.75l1.35-7.54c.08-.49,.12-.82,.12-.98,0-.64-.24-.95-.71-.95-.1,0-.45,.36-1.03,1.08-.58,.72-1.17,1.46-1.77,2.21l-.71,4.28c-.02,.1-.03,.23-.03,.37,0,.41,.17,.71,.52,.89l-.09,1.32c-2.42,.39-3.7,.58-3.85,.58-.12,0-.32-.17-.6-.51-.28-.34-.41-.59-.38-.75l1.91-10.64-1.38-.34,.28-1.6c.51-.14,1.29-.32,2.34-.52,1.05-.2,1.71-.31,2-.31,.1,0,.28,.18,.54,.54,.26,.36,.37,.6,.35,.72l-.58,3.97h.25c.33-.57,.58-1.05,.77-1.42,.27-.47,.69-1.23,1.28-2.26,.58-1.04,.92-1.55,1-1.55,1.48,0,2.53,.25,3.17,.75,.64,.5,.95,1.34,.95,2.51,0,.43-.07,1.08-.22,1.94v.03h.22l.89-1.57c.12-.23,.49-.89,1.09-2,.61-1.11,.95-1.66,1.03-1.66,1.5,0,2.57,.26,3.23,.77s.98,1.35,.98,2.52c0,.53-.06,1.17-.18,1.91l-1.26,6.77Z"/></g></g></g></g></svg>