<?xml version="1.0" encoding="UTF-8"?><svg xmlns="http://www.w3.org/2000/svg" viewBox="0 0 320 174"><defs><style>.e{fill:#f2f2f2;}.f{fill:#a1caf1;}.g{fill:#6082b6;}</style></defs><g id="a"/><g id="b"><g id="c"><rect class="f" width="157.9" height="174"/><rect class="g" x="157.92" width="162.08" height="174"/></g><g id="d"><g><path class="e" d="M33.05,21.59c1.26,1.38,1.89,3.5,1.89,6.34,0,3.09-.44,6.03-1.31,8.82s-2.17,5.07-3.89,6.84c-1.73,1.77-3.82,2.66-6.28,2.66H13.7l.13-.95,2.75-.58,4.09-23.67-2.66-.58,.18-.95h9.94c2.01,0,3.65,.69,4.91,2.07Zm-4.86,21.02c1.35-1.5,2.46-3.56,3.33-6.17,.87-2.61,1.31-5.5,1.31-8.69,0-2.22-.41-3.92-1.21-5.11-.81-1.18-1.92-1.78-3.33-1.78-.78,0-2.67,.11-5.67,.31l-4.05,23.4c2.46,.18,4.3,.27,5.54,.27,1.38,0,2.75-.75,4.1-2.25Z"/><path class="e" d="M55.82,25.73h-1.21l.27-4.95-8.64,.4-1.8,10.17,6.75,.18-.18,1.21-6.84,.18-2.03,11.66,9.32,.45,1.53-5.45,1.17,.04-1.12,6.62h-15.75l.13-.95,2.75-.54,4.09-23.76-2.66-.54,.18-.95h15.12l-1.08,6.21Z"/><path class="e" d="M79.13,20.55l-10.89,25.61-2.75,.5-.4-.45-1.85-25.16-2.74-.58,.18-.95h7.56l-.22,1.12-2.75,.5,1.21,17.37,.32,6.48h.31l9.86-23.85-2.66-.5,.18-1.12h4.5l.14,1.04Z"/><path class="e" d="M88.76,21.18l-4.1,23.4,2.83,.54-.18,1.12h-7.51l.13-.95,2.75-.58,4.09-23.67-2.66-.58,.18-.95h7.56l-.22,1.12-2.88,.54Z"/><path class="e" d="M108.96,39.05l-1.21,7.2h-15.12l.13-.95,2.75-.54,4.09-23.71-2.66-.58,.18-.95h7.79l-.18,1.12-3.15,.54-4.1,23.4,8.6,.45,1.67-6.03,1.21,.04Z"/><path class="e" d="M114.63,26.95c1.05-1.8,1.83-3.24,2.34-4.32-.03-.03-.14-.12-.34-.27s-.28-.3-.25-.45l.58-3.38c.78-.21,1.36-.32,1.75-.32,.09,0,.23,.11,.43,.32,.19,.21,.28,.38,.25,.5-.3,1.77-.74,3.28-1.33,4.52s-1.46,2.56-2.63,3.94l-.81-.54Z"/><path class="e" d="M136.95,19.83h.04l-1.3,6.21h-1.17l.32-4.68c-.84-.18-1.84-.33-2.99-.45-1.16-.12-2.03-.18-2.63-.18-.39,0-.95,.26-1.69,.79-.74,.53-1.4,1.19-1.98,2-.58,.81-.88,1.62-.88,2.43,0,.99,.32,1.84,.97,2.54,.64,.71,1.69,1.58,3.13,2.63,.45,.33,.88,.63,1.3,.9,1.71,1.17,3,2.19,3.87,3.06,.87,.87,1.3,1.86,1.3,2.97,0,.84-.17,1.79-.5,2.83-.63,1.23-1.63,2.49-3.01,3.78-1.38,1.29-2.54,1.94-3.46,1.94-.87,0-2.16-.07-3.87-.2-1.71-.13-3.26-.28-4.63-.43l1.39-6.66h1.21l-.4,5.04c1.17,.18,2.43,.34,3.78,.5,1.35,.15,2.36,.22,3.02,.22,.39,0,.94-.33,1.64-.99,.7-.66,1.33-1.48,1.89-2.45,.55-.97,.83-1.94,.83-2.9,0-.9-.32-1.67-.95-2.32-.63-.65-1.62-1.42-2.97-2.32l-1.71-1.17c-1.65-1.2-2.87-2.23-3.67-3.1s-1.19-1.88-1.19-3.02c0-.96,.24-1.95,.72-2.97,.69-.93,1.77-1.96,3.24-3.08,1.47-1.12,2.49-1.69,3.06-1.69,.75,0,1.89,.08,3.42,.22,1.53,.15,2.84,.32,3.92,.5l-.04,.04Z"/></g><g><path class="e" d="M205.21,26.32h-1.22l.41-5.31h-5.8l-4.1,23.58,3.38,.54-.22,1.12h-8.59l.18-.95,3.24-.63,4.14-23.67-5.71-.09-1.26,5.4h-1.21l.85-6.8h17.24l-1.3,6.8Z"/><path class="e" d="M225.19,45.17l-.18,1.08h-4.37l-4.18-12.24h-4.05l-1.89,10.58,2.88,.54-.18,1.12h-7.56l.18-.95,2.7-.58,4.14-23.71-2.66-.54,.18-.95h9.18c1.89,0,3.28,.37,4.16,1.1,.88,.74,1.33,2,1.33,3.8,0,1.41-.27,2.78-.81,4.09-.54,1.32-1.31,2.46-2.32,3.42s-2.15,1.59-3.44,1.89l-.04,.31,1.26,3.15c1.53,3.87,2.54,6.33,3.02,7.38l2.65,.5Zm-12.51-12.69h4.54c1.17,0,2.17-.38,3.02-1.12,.84-.75,1.47-1.72,1.89-2.9,.42-1.18,.63-2.41,.63-3.67s-.22-2.21-.67-2.86c-.45-.64-1.2-.97-2.25-.97l-3.65,.13-1.53,.09-1.98,11.3Z"/><path class="e" d="M247.01,45.3l-.18,.95h-7.52l.18-1.12,2.79-.5-.86-8.01h-8.68l-3.42,8.01,2.79,.5-.23,1.12h-7.51l.18-.95,2.83-.58,11.12-25.2,2.43-.4,.45,.45,2.88,25.11,2.75,.63Zm-13.72-9.99h8.01l-1.44-14.72h-.27l-6.3,14.72Z"/><path class="e" d="M258.31,21.18l-4.1,23.4,2.83,.54-.18,1.12h-7.51l.13-.95,2.75-.58,4.09-23.67-2.66-.58,.18-.95h7.56l-.22,1.12-2.88,.54Z"/><path class="e" d="M287.29,20.46l-2.74,.58-4.32,24.88-2.38,.63-.63-.36-3.47-13.23c-.39-1.47-1.29-5.23-2.7-11.29h-.32l-3.74,22.95,2.79,.5-.18,1.12h-7.42l.13-.95,2.7-.58,4.09-23.67-2.61-.58,.18-.95h5.58l3.78,14.67,2.48,10.3h.31l3.87-23.31-2.88-.54,.18-1.12h7.47l-.18,.95Z"/></g><g><path class="e" d="M33.33,73.7c1.2,1.37,1.8,3.49,1.8,6.37,0,3.09-.43,6.02-1.28,8.8-.86,2.78-2.15,5.03-3.87,6.77-1.73,1.74-3.8,2.61-6.23,2.61H14.79l.13-.67,2.66-.45,4.28-24.34-2.7-.45,.13-.67h9.27c1.98,0,3.57,.68,4.77,2.05Zm-4.7,21.42c1.48-1.36,2.71-3.35,3.69-5.96,.97-2.61,1.46-5.7,1.46-9.27,0-2.37-.47-4.16-1.42-5.38-.94-1.21-2.23-1.82-3.85-1.82-1.17,0-2.99,.06-5.44,.18l-4.19,24.17c1.83,.09,3.62,.13,5.36,.13,1.44,0,2.9-.68,4.39-2.05Z"/><path class="e" d="M55.74,77.33h-.85l.31-4.73-9.31,.32-1.85,10.62,6.93,.18-.14,.86-7.02,.18-2.12,12.24,9.81,.36,1.39-5.26,.86,.04-1.04,6.12h-15.12l.13-.67,2.66-.45,4.28-24.34-2.7-.45,.13-.67h14.58l-.95,5.67Z"/><path class="e" d="M78.29,72.42l-10.98,25.83-1.84,.41-.41-.41-1.93-25.47-2.83-.45,.13-.67h7.02l-.13,.81-2.88,.36,1.39,18.22,.36,6.48h.27l10.44-24.71-2.57-.36,.14-.81h3.69l.14,.76Z"/><path class="e" d="M87.38,72.87l-4.19,24.17,2.88,.41-.13,.81h-6.84l.13-.67,2.66-.45,4.28-24.34-2.7-.45,.13-.67h6.84l-.13,.81-2.92,.41Z"/><path class="e" d="M106.77,91.63l-1.12,6.62h-14.22l.13-.67,2.66-.45,4.28-24.34-2.7-.45,.13-.67h6.84l-.13,.81-2.92,.41-4.19,24.12,8.91,.36,1.49-5.76,.85,.04Z"/><path class="e" d="M112.48,78.95c.36-.57,.76-1.26,1.19-2.07s.76-1.47,.97-1.98c-.03-.03-.12-.11-.27-.25-.15-.13-.21-.26-.18-.38l.54-3.15c.75-.15,1.16-.23,1.22-.23,.09,0,.21,.08,.36,.23s.21,.29,.18,.4c-.36,1.83-.74,3.24-1.15,4.23-.4,.99-1.18,2.19-2.32,3.6l-.54-.4Z"/><path class="e" d="M133.41,71.97h.04l-1.12,5.67h-.81l.32-4.72c-.84-.18-1.82-.32-2.95-.43-1.12-.1-1.97-.16-2.54-.16-.39,0-1.04,.3-1.94,.9-.9,.6-1.7,1.34-2.41,2.23-.71,.89-1.06,1.73-1.06,2.54,0,.72,.19,1.38,.56,1.98,.38,.6,.82,1.11,1.33,1.53,.51,.42,1.33,1.07,2.47,1.94l1.39,.99c1.68,1.2,2.94,2.22,3.78,3.06s1.26,1.73,1.26,2.66c0,.87-.13,1.75-.4,2.65-.57,1.29-1.47,2.58-2.7,3.87-1.23,1.29-2.31,1.94-3.24,1.94-.81,0-2.11-.08-3.89-.23-1.79-.15-3.35-.31-4.7-.5l1.26-6.12h.81l-.45,5.04c1.17,.18,2.47,.35,3.92,.52,1.44,.17,2.46,.25,3.06,.25,.42,0,1.04-.34,1.87-1.04,.83-.69,1.55-1.58,2.18-2.66s.95-2.21,.95-3.38c0-.9-.32-1.67-.95-2.29s-1.62-1.41-2.97-2.34c-.78-.51-1.42-.96-1.93-1.35-1.68-1.26-2.92-2.32-3.71-3.17-.79-.86-1.19-1.81-1.19-2.86,0-.93,.24-1.86,.72-2.79,.66-.9,1.64-1.88,2.95-2.92,1.31-1.05,2.21-1.58,2.72-1.58,.93,0,2.16,.08,3.69,.22,1.53,.15,2.77,.32,3.73,.5l-.04,.04Z"/></g><g><path class="e" d="M205.67,77.91h-.86l.41-5.27-6.25,.27-4.19,24.12,3.42,.41-.13,.81h-7.96l.13-.67,3.24-.45,4.23-24.25-6.03-.36-1.21,5.4h-.86l.86-6.25h16.29l-1.08,6.25Z"/><path class="e" d="M225.2,97.44l-.09,.81h-3.96l-4.32-12.42h-4.59l-1.94,11.21,2.88,.41-.13,.81h-6.84l.13-.67,2.66-.45,4.28-24.34-2.7-.45,.13-.67h8.59c1.86,0,3.21,.37,4.05,1.1s1.26,1.99,1.26,3.76c0,1.41-.27,2.78-.81,4.12s-1.3,2.47-2.29,3.4-2.12,1.5-3.38,1.71l-.09,.31c.42,.99,.97,2.42,1.67,4.28,1.38,3.6,2.28,5.83,2.7,6.71l2.79,.41Zm-12.74-12.78h4.82c1.2,0,2.26-.38,3.17-1.12s1.61-1.72,2.09-2.9c.48-1.19,.72-2.41,.72-3.67,0-1.35-.25-2.38-.76-3.1-.51-.72-1.37-1.08-2.57-1.08-1.29,0-3.1,.04-5.44,.13l-2.03,11.75Z"/><path class="e" d="M246.03,97.58l-.13,.67h-6.84l.13-.81,2.75-.36-.9-8.64h-8.91l-3.74,8.64,2.79,.36-.13,.81h-6.84l.14-.67,2.83-.5,11.11-25.42,1.67-.41,.41,.41,2.83,25.47,2.83,.45Zm-13.5-10.08h8.42l-1.58-15.3h-.27l-6.57,15.3Z"/><path class="e" d="M256.43,72.87l-4.19,24.17,2.88,.41-.13,.81h-6.84l.13-.67,2.66-.45,4.28-24.34-2.7-.45,.13-.67h6.84l-.13,.81-2.92,.41Z"/><path class="e" d="M284.78,72.33l-2.7,.45-4.41,25.15-1.53,.63-.63-.36-3.51-13.23c-.39-1.47-1.41-5.49-3.06-12.06h-.27l-4.1,24.12,2.88,.41-.13,.81h-6.84l.13-.67,2.61-.45,4.27-24.34-2.65-.45,.13-.67h4.82l3.82,14.54,2.79,10.93h.27l4.18-24.25-2.92-.41,.13-.81h6.84l-.13,.67Z"/></g><g><path class="e" d="M34.11,125.37c1.33,1.38,2,3.5,2,6.34,0,3.09-.44,6.05-1.33,8.89s-2.21,5.15-3.96,6.95-3.88,2.7-6.37,2.7H13.52l.23-1.3,2.79-.77,3.92-22.77-2.61-.77,.27-1.35h10.93c2.04,0,3.73,.69,5.06,2.07Zm-5.11,20.47c1.17-1.68,2.12-3.83,2.83-6.46s1.08-5.24,1.08-7.85c0-2.01-.31-3.57-.92-4.68-.62-1.11-1.49-1.67-2.63-1.67-.75,0-2.75,.14-5.99,.41l-3.78,22.37c3.03,.27,4.93,.41,5.71,.41,1.29,0,2.52-.84,3.69-2.52Z"/><path class="e" d="M55.68,130.36l.23-5.31-7.7,.54-1.67,9.5,6.53,.22-.27,1.67-6.61,.23-1.85,10.75,8.5,.54,1.71-5.62,1.76,.04-1.26,7.33h-16.79l.23-1.3,2.75-.77,4-22.81-2.66-.72,.27-1.35h15.84l-1.26,7.07h-1.76Z"/><path class="e" d="M81.78,124.74l-10.75,25.33-3.96,.54-.45-.41-1.75-24.84-2.56-.72,.18-1.35h8.37l-.27,1.62-2.61,.63,.99,16.11,.18,6.48h.36l9.09-22.54-2.83-.67,.27-1.62h5.67l.09,1.44Z"/><path class="e" d="M92.18,125.54l-3.87,22.46,2.79,.63-.27,1.62h-8.6l.23-1.3,2.75-.77,4-22.77-2.61-.77,.23-1.35h8.55l-.27,1.62-2.92,.63Z"/><path class="e" d="M113.64,142.15l-1.39,8.1h-16.43l.23-1.3,2.75-.77,4-22.77-2.61-.77,.23-1.35h9.09l-.27,1.62-3.46,.67-3.87,22.37,8.1,.58,1.89-6.43,1.75,.04Z"/><path class="e" d="M119.22,130.95c1.02-1.65,1.87-3.21,2.56-4.68-.06-.06-.2-.19-.4-.38-.21-.2-.3-.38-.27-.56l.58-3.69c.45-.12,.92-.22,1.42-.31,.5-.09,.86-.14,1.1-.14,.09,0,.28,.16,.56,.47,.28,.32,.41,.53,.38,.65-.33,1.89-.92,3.59-1.75,5.08-.84,1.5-1.84,2.93-3.01,4.28l-1.17-.72Z"/><path class="e" d="M140.33,130.67l.27-4.63c-.87-.21-1.9-.39-3.08-.54-1.19-.15-2.08-.22-2.68-.22-.33,0-.76,.22-1.28,.65-.53,.43-.98,1.01-1.37,1.73-.39,.72-.58,1.48-.58,2.29,0,.9,.29,1.68,.88,2.34,.58,.66,1.51,1.44,2.77,2.34,.15,.09,.33,.21,.54,.36,.21,.15,.45,.31,.72,.5,1.17,.81,2.1,1.49,2.79,2.05,.69,.56,1.28,1.2,1.75,1.94s.72,1.55,.72,2.45c0,.51-.06,1.05-.18,1.62-.12,.57-.25,1.05-.4,1.44-.45,.78-1.14,1.61-2.07,2.5-.93,.89-1.88,1.64-2.86,2.25-.98,.61-1.75,.92-2.32,.92-.99,0-2.31-.06-3.96-.18-1.65-.12-3.14-.25-4.46-.4l1.62-7.43h1.75l-.32,5.04c3.09,.45,5.28,.68,6.57,.68,.33,0,.76-.3,1.3-.9,.54-.6,1.02-1.31,1.44-2.14,.42-.82,.63-1.57,.63-2.23,0-.96-.35-1.78-1.04-2.47-.69-.69-1.75-1.5-3.2-2.43l-1.03-.68c-1.56-1.08-2.75-2.07-3.56-2.97-.81-.9-1.21-1.98-1.21-3.24,0-1.14,.24-2.22,.72-3.24,.42-.63,1.12-1.35,2.12-2.16,.99-.81,1.97-1.51,2.95-2.09s1.67-.88,2.09-.88c.6,0,1.64,.08,3.13,.23,1.48,.15,2.87,.31,4.16,.5l-1.58,7.02h-1.75Z"/></g><g><path class="e" d="M205.98,130.95h-1.75l.45-5.45-5.18-.22-3.92,22.68,3.24,.67-.27,1.62h-9.54l.22-1.3,3.24-.81,3.96-22.9-5.22,.22-1.31,5.49h-1.75l.86-7.65h18.63l-1.67,7.65Z"/><path class="e" d="M224.2,148.18l2.43,.58-.22,1.49h-5.04l-3.87-11.97h-3.38l-1.67,9.72,2.79,.63-.27,1.62h-8.55l.23-1.3,2.75-.77,3.96-22.77-2.61-.77,.27-1.35h10.03c1.89,0,3.32,.38,4.28,1.15s1.44,2.03,1.44,3.8c0,2.16-.62,4.16-1.85,6.01-1.23,1.84-2.83,3.07-4.81,3.67l-.04,.41c1.92,4.74,3.3,8.03,4.14,9.85Zm-9.72-11.92h4.14c1.68,0,2.92-.77,3.71-2.32,.79-1.54,1.19-3.35,1.19-5.42,0-1.11-.19-1.94-.56-2.5-.38-.55-.97-.83-1.78-.83-.42,0-2.04,.14-4.86,.41l-1.84,10.67Z"/><path class="e" d="M250.03,148.95l-.23,1.3h-8.55l.27-1.62,2.83-.63-.86-7.16h-8.37l-2.97,7.16,2.83,.63-.27,1.62h-8.55l.23-1.3,2.88-.77,11.07-24.88,3.56-.41,.5,.5,2.92,24.75,2.7,.81Zm-14.13-9.95h7.42l-1.17-13.86h-.27l-5.98,13.86Z"/><path class="e" d="M262.54,125.54l-3.87,22.46,2.79,.63-.27,1.62h-8.6l.23-1.3,2.75-.77,4-22.77-2.61-.77,.23-1.35h8.55l-.27,1.62-2.92,.63Z"/><path class="e" d="M292.55,124.64l-2.75,.77-4.32,24.52-3.65,.63-.63-.36-3.38-13.23c-.36-1.47-1.1-4.86-2.21-10.17h-.27l-3.29,21.2,2.75,.63-.27,1.62h-8.37l.23-1.3,2.75-.81,3.96-22.77-2.61-.72,.27-1.35h6.61l3.78,14.9c.27,.99,.95,4.11,2.03,9.36h.31l3.42-21.96-2.79-.67,.27-1.62h8.37l-.23,1.35Z"/></g></g></g></svg>